<?xml version="1.0" encoding="utf-8"?>
<!-- Generator: Adobe Illustrator 24.0.2, SVG Export Plug-In . SVG Version: 6.00 Build 0)  -->
<svg version="1.1" id="Camada_1" xmlns="http://www.w3.org/2000/svg" xmlns:xlink="http://www.w3.org/1999/xlink" x="0px" y="0px"
	 viewBox="0 0 50 50" style="enable-background:new 0 0 50 50;" xml:space="preserve">
<style type="text/css">
	.st0{fill:#E4002B;}
</style>
<path class="st0" d="M0,0v50h50V0H0z M22.17,38.2V26.14h-4.02v-4.65h4.02V17.9c0-1.3,0.29-2.44,0.88-3.44
	c1.03-1.79,2.76-2.68,5.21-2.68c1.26,0,2.46,0.07,3.59,0.2v4.17H29.7c-1.26,0-2.05,0.28-2.35,0.83c-0.14,0.25-0.2,0.4-0.2,0.45
	c-0.08,0.19-0.13,0.65-0.13,1.39v2.65h4.65l-0.61,4.65h-4.04V38.2H22.17z"/>
</svg>
