<?xml version="1.0" encoding="utf-8"?>
<!-- Generator: Adobe Illustrator 24.0.2, SVG Export Plug-In . SVG Version: 6.00 Build 0)  -->
<svg version="1.1" id="Camada_1" xmlns="http://www.w3.org/2000/svg" xmlns:xlink="http://www.w3.org/1999/xlink" x="0px" y="0px"
	 viewBox="0 0 50 50" style="enable-background:new 0 0 50 50;" xml:space="preserve">
<style type="text/css">
	.st0{fill:#E4002B;}
</style>
<g>
	<path class="st0" d="M25,20.96c-1.16,0-2.16,0.41-2.98,1.24c-0.83,0.83-1.24,1.81-1.24,2.96c0,1.16,0.41,2.16,1.24,2.98
		c0.83,0.83,1.82,1.24,2.98,1.24c1.15,0,2.13-0.41,2.96-1.24c0.83-0.83,1.24-1.82,1.24-2.98c0-1.15-0.41-2.13-1.24-2.96
		C27.13,21.37,26.15,20.96,25,20.96z"/>
	<path class="st0" d="M30.08,35.41c1.18-0.08,1.96-0.23,2.35-0.43c0.56-0.2,1.04-0.51,1.44-0.94c0.42-0.42,0.73-0.91,0.94-1.47
		c0.2-0.39,0.34-1.16,0.43-2.33c0.02-0.42,0.03-0.81,0.05-1.16c0.02-0.35,0.03-0.82,0.03-1.39c0-0.57,0-1.42,0-2.55
		c0-1.11,0-1.95,0-2.53c0-0.57-0.01-1.04-0.03-1.39c-0.02-0.35-0.03-0.74-0.05-1.16c-0.08-1.18-0.23-1.96-0.43-2.35
		c-0.2-0.56-0.51-1.04-0.94-1.44c-0.4-0.42-0.89-0.73-1.44-0.94c-0.39-0.2-1.17-0.35-2.35-0.43c-0.42-0.02-0.81-0.03-1.16-0.05
		c-0.35-0.02-0.82-0.03-1.39-0.03c-0.57,0-1.42,0-2.53,0c-0.15,0-0.3,0-0.43,0c-0.25,0-0.49,0-0.71,0c-0.78,0-1.38,0-1.82,0
		s-0.81,0-1.12,0.01c-0.31,0.01-0.65,0.03-1.02,0.06c-1.16,0.08-1.94,0.23-2.33,0.43c-0.56,0.2-1.05,0.51-1.47,0.94
		c-0.42,0.4-0.73,0.88-0.94,1.44c-0.2,0.39-0.35,1.17-0.43,2.35c-0.02,0.42-0.03,0.81-0.05,1.16c-0.02,0.35-0.03,0.82-0.03,1.39
		c0,0.57,0,1.42,0,2.53c0,1.13,0,1.98,0,2.55c0,0.57,0.01,1.04,0.03,1.39c0.02,0.35,0.03,0.74,0.05,1.16
		c0.08,1.16,0.23,1.94,0.43,2.33c0.2,0.56,0.51,1.04,0.94,1.47c0.42,0.4,0.91,0.72,1.47,0.94c0.39,0.2,1.16,0.35,2.33,0.43
		c0.42,0.02,0.81,0.03,1.16,0.04c0.35,0.01,0.82,0.02,1.39,0.03c0.57,0.01,1.42,0.01,2.55,0.01c1.11,0,1.95,0,2.53-0.01
		c0.57-0.01,1.04-0.02,1.39-0.03C29.27,35.44,29.66,35.43,30.08,35.41z M30.65,17.38c0.29-0.29,0.65-0.44,1.07-0.44
		c0.42,0,0.77,0.15,1.06,0.44c0.29,0.29,0.43,0.64,0.43,1.05c0,0.42-0.15,0.78-0.44,1.07c-0.3,0.3-0.64,0.44-1.05,0.44
		c-0.42,0-0.78-0.15-1.07-0.44c-0.3-0.29-0.44-0.65-0.44-1.07C30.21,18.02,30.35,17.67,30.65,17.38z M25,31.62
		c-1.79,0-3.31-0.63-4.58-1.88c-1.26-1.26-1.9-2.78-1.9-4.59c0-1.79,0.63-3.31,1.9-4.58c1.26-1.26,2.79-1.9,4.58-1.9
		s3.31,0.63,4.58,1.9c1.26,1.26,1.9,2.79,1.9,4.58c0,1.8-0.63,3.33-1.9,4.59C28.31,31,26.79,31.62,25,31.62z"/>
	<path class="st0" d="M0,0v50h50V0H0z M24.97,37.77c-1.13,0-1.99,0-2.58,0s-1.07-0.01-1.43-0.03c-0.36-0.02-0.75-0.03-1.18-0.05
		c-1.3-0.07-2.32-0.26-3.06-0.58c-0.81-0.3-1.55-0.79-2.22-1.47c-0.67-0.67-1.16-1.42-1.47-2.22c-0.32-0.74-0.51-1.76-0.58-3.06
		c-0.02-0.42-0.03-0.81-0.04-1.18c-0.01-0.36-0.02-0.84-0.03-1.43c-0.01-0.59-0.01-1.46-0.01-2.6c0-1.13,0-1.99,0.01-2.58
		c0.01-0.59,0.02-1.07,0.03-1.43c0.01-0.36,0.02-0.75,0.04-1.18c0.07-1.3,0.26-2.32,0.58-3.06c0.3-0.81,0.79-1.55,1.47-2.22
		c0.67-0.67,1.42-1.16,2.22-1.47c0.74-0.32,1.76-0.51,3.06-0.58c0.42-0.02,0.82-0.03,1.19-0.05c0.37-0.02,0.85-0.03,1.43-0.03
		c0.58,0,1.44,0,2.59,0c1.13,0,1.98,0,2.57,0c0.58,0,1.06,0.01,1.43,0.03c0.37,0.02,0.77,0.03,1.19,0.05
		c1.28,0.07,2.3,0.26,3.06,0.58c0.81,0.3,1.55,0.79,2.22,1.47c0.67,0.67,1.16,1.42,1.47,2.22c0.32,0.74,0.51,1.76,0.58,3.06
		c0.02,0.42,0.03,0.81,0.04,1.18c0.01,0.36,0.02,0.84,0.03,1.43c0.01,0.59,0.01,1.45,0.01,2.58c0,1.15,0,2.01-0.01,2.6
		c-0.01,0.59-0.02,1.07-0.03,1.43c-0.01,0.36-0.02,0.75-0.04,1.18c-0.07,1.3-0.26,2.32-0.58,3.06c-0.3,0.81-0.79,1.55-1.47,2.22
		c-0.67,0.67-1.42,1.16-2.22,1.47c-0.74,0.32-1.76,0.51-3.06,0.58c-0.42,0.02-0.82,0.03-1.19,0.05c-0.37,0.02-0.85,0.03-1.43,0.03
		C26.98,37.77,26.12,37.77,24.97,37.77z"/>
</g>
</svg>
