<?xml version="1.0" encoding="utf-8"?>
<!-- Generator: Adobe Illustrator 24.0.2, SVG Export Plug-In . SVG Version: 6.00 Build 0)  -->
<svg version="1.1" id="Camada_1" xmlns="http://www.w3.org/2000/svg" xmlns:xlink="http://www.w3.org/1999/xlink" x="0px" y="0px"
	 viewBox="0 0 50 50" style="enable-background:new 0 0 50 50;" xml:space="preserve">
<style type="text/css">
	.st0{fill:#E4002B;}
</style>
<g>
	<path class="st0" d="M26.39,22.88V22.8c-0.05,0-0.08,0.03-0.08,0.08H26.39z"/>
	<path class="st0" d="M0,0v50h50V0H0z M17.87,17.64c-0.56,0.51-1.26,0.76-2.12,0.76c-0.91,0-1.62-0.25-2.14-0.76
		c-0.51-0.51-0.77-1.13-0.77-1.87c0-0.79,0.27-1.43,0.82-1.92c0.55-0.49,1.27-0.73,2.16-0.73c0.81,0,1.47,0.24,2,0.73
		c0.52,0.49,0.82,1.13,0.88,1.92C18.71,16.52,18.43,17.14,17.87,17.64z M18.33,20.58v15.57h-5.21V20.58H18.33z M21.23,36.15v-7.23
		v-8.34h5.16v2.22c0.35-0.54,0.87-1.1,1.54-1.69c0.67-0.59,1.72-0.88,3.13-0.88c1.72,0,3.13,0.56,4.25,1.69
		c1.11,1.13,1.67,2.91,1.67,5.33v8.9h-5.21v-8.29c0-1.04-0.19-1.9-0.58-2.57c-0.39-0.67-1.05-1-1.97-1c-0.74,0-1.33,0.2-1.76,0.59
		c-0.43,0.4-0.75,0.83-0.95,1.3c-0.08,0.17-0.13,0.37-0.13,0.59c0,0.23,0,0.45,0,0.67v8.7H21.23z"/>
</g>
</svg>
