<?xml version="1.0" encoding="utf-8"?>
<!-- Generator: Adobe Illustrator 24.0.2, SVG Export Plug-In . SVG Version: 6.00 Build 0)  -->
<svg version="1.1" id="Camada_1" xmlns="http://www.w3.org/2000/svg" xmlns:xlink="http://www.w3.org/1999/xlink" x="0px" y="0px"
	 viewBox="0 0 50 50" style="enable-background:new 0 0 50 50;" xml:space="preserve">
<style type="text/css">
	.st0{fill:#E4002B;}
</style>
<g>
	<polygon class="st0" points="22.47,21.21 22.47,28.79 29.04,25.03 	"/>
	<path class="st0" d="M0,0v50h50V0H0z M20.79,33.8c-1.15-0.03-2.26-0.08-3.31-0.15c-1.05-0.07-1.85-0.17-2.39-0.3
		c-0.56-0.15-1.03-0.43-1.42-0.82c-0.39-0.4-0.66-0.87-0.81-1.43c-0.14-0.51-0.24-1.1-0.3-1.77c-0.07-0.67-0.12-1.34-0.15-2
		c-0.03-0.66-0.06-1.42-0.08-2.3c0.02-0.89,0.04-1.66,0.08-2.31c0.03-0.65,0.08-1.31,0.15-2c0.07-0.68,0.17-1.28,0.3-1.81
		c0.15-0.54,0.43-1.01,0.82-1.42c0.4-0.4,0.86-0.68,1.4-0.83c0.52-0.12,1.31-0.21,2.38-0.29c1.06-0.08,2.17-0.13,3.31-0.15
		c1.15-0.03,2.55-0.05,4.22-0.09c1.65,0.03,3.05,0.07,4.2,0.1c1.15,0.03,2.25,0.08,3.31,0.15c1.06,0.07,1.85,0.17,2.38,0.3
		c0.56,0.15,1.03,0.43,1.42,0.82c0.39,0.4,0.66,0.86,0.81,1.4c0.13,0.52,0.24,1.13,0.32,1.81c0.08,0.68,0.13,1.35,0.15,2.01
		c0.03,0.66,0.05,1.42,0.06,2.3c-0.02,0.89-0.04,1.66-0.08,2.31c-0.03,0.65-0.08,1.31-0.15,2c-0.07,0.68-0.17,1.28-0.3,1.78
		c-0.15,0.56-0.42,1.03-0.81,1.43c-0.39,0.4-0.86,0.67-1.42,0.82c-0.52,0.12-1.31,0.21-2.38,0.29c-1.06,0.08-2.17,0.13-3.31,0.15
		c-1.15,0.03-2.55,0.05-4.2,0.06C23.35,33.86,21.95,33.83,20.79,33.8z"/>
</g>
</svg>
