<?xml version="1.0" encoding="utf-8"?>
<!-- Generator: Adobe Illustrator 25.0.0, SVG Export Plug-In . SVG Version: 6.00 Build 0)  -->
<svg version="1.1" id="fb638577-3af1-4e62-8e8d-f046cc0653af"
	 xmlns="http://www.w3.org/2000/svg" xmlns:xlink="http://www.w3.org/1999/xlink" x="0px" y="0px" viewBox="0 0 2144 1614.8"
	 style="enable-background:new 0 0 2144 1614.8;" xml:space="preserve">
<style type="text/css">
	.st0{opacity:0.1;enable-background:new    ;}
</style>
<g class="st0">
	<path d="M1071,1362c-49.5-3.3-98.9-13.2-145.1-36.3c-13.2-6.6-29.7,0-33,13.2c-3.3,3.3-3.3,9.9-3.3,13.2l13.2,171.5
		c0,6.6,6.6,13.2,13.2,13.2c3.3,0,3.3,0,6.6-3.3l49.5-36.3c6.6-3.3,13.2-3.3,19.8,3.3l0,0l69.3,108.8c3.3,6.6,13.2,6.6,19.8,3.3
		l3.3-3.3l69.3-108.8c3.3-6.6,13.2-6.6,19.8-3.3l0,0l49.5,36.3c6.6,3.3,13.2,3.3,19.8-3.3c0-3.3,3.3-3.3,3.3-6.6l13.2-171.5
		c0-13.2-9.9-26.4-26.4-26.4c-3.3,0-6.6,0-13.2,3.3C1169.9,1348.8,1120.5,1362,1071,1362L1071,1362z"/>
	<path d="M1545.9,930l-161.6-164.9C1384.3,234.1,1071,0,1071,0S754.4,234.1,754.4,765.1L592.8,930c-6.6,6.6-9.9,16.5-6.6,23.1
		l62.7,376c0,13.2,13.2,23.1,29.7,23.1c3.3,0,9.9-3.3,13.2-3.3l227.5-151.7c42.9,39.6,98.9,62.7,158.3,66
		c59.4-3.3,112.1-26.4,155-66l224.3,151.7c13.2,6.6,26.4,6.6,36.3-6.6c3.3-3.3,3.3-6.6,3.3-13.2l62.7-376
		C1559.1,943.2,1552.5,936.6,1545.9,930z M1071,590.3c-59.4,3.3-108.8-42.9-112.1-102.2c-3.3-59.4,42.9-108.8,102.2-112.1
		c59.4-3.3,108.8,42.9,112.1,102.2c0,3.3,0,3.3,0,6.6C1176.5,540.8,1130.4,587,1071,590.3L1071,590.3z"/>
</g>
</svg>
