<?xml version="1.0" encoding="utf-8"?>
<!-- Generator: Adobe Illustrator 25.0.0, SVG Export Plug-In . SVG Version: 6.00 Build 0)  -->
<svg version="1.1" id="b368e7d6-7c4a-408c-9a35-0514749a7e1a"
	 xmlns="http://www.w3.org/2000/svg" xmlns:xlink="http://www.w3.org/1999/xlink" x="0px" y="0px" viewBox="0 0 870 520.1"
	 style="enable-background:new 0 0 870 520.1;" xml:space="preserve">
<style type="text/css">
	.st0{opacity:0.2;enable-background:new    ;}
	.st1{fill:#202930;enable-background:new    ;}
	.st2{fill:#E4002B;}
	.st3{fill:#FFB8B8;}
	.st4{fill:#000810;}
	.st5{fill:#192128;enable-background:new    ;}
</style>
<path class="st0" d="M480,0h-76c-5.5,0-10.9,0.3-16.2,0.9c-0.2,0-0.3,0-0.5,0c-0.1,0-0.2,0-0.3,0c-0.1,0-0.2,0-0.3,0
	c-0.6,0.1-1.2,0.1-1.8,0.2c-0.1,0-0.1,0-0.2,0c-0.4,0-0.8,0.1-1.1,0.2c-0.4,0-0.9,0.1-1.3,0.2c-0.6,0.1-1.2,0.2-1.8,0.3
	c-0.7,0.1-1.3,0.2-2,0.3c-1.8,0.3-3.6,0.7-5.4,1.1c-1.2,0.3-2.3,0.5-3.5,0.8c-0.6,0.1-1.2,0.3-1.7,0.4c-0.4,0.1-0.8,0.2-1.2,0.3
	c-0.6,0.2-1.2,0.3-1.8,0.5c-0.5,0.1-0.9,0.3-1.4,0.4c-0.3,0.1-0.5,0.1-0.8,0.2c-1,0.3-2,0.6-3,0.9c-0.2,0.1-0.4,0.1-0.6,0.2
	c-0.6,0.2-1.3,0.4-1.9,0.6c-0.6,0.2-1.3,0.4-1.9,0.7C327.3,18.5,303.1,37,286.1,61c0,0.1-0.1,0.2-0.2,0.3c-0.2,0.3-0.5,0.6-0.7,1
	c-0.9,1.3-1.9,2.7-2.7,4.1c-0.5,0.8-1,1.5-1.4,2.3c-0.5,0.8-0.9,1.5-1.4,2.3c-0.8,1.3-1.5,2.5-2.2,3.8c-1.6,2.9-3.1,5.9-4.5,8.9
	c-0.9,2-1.8,4.1-2.7,6.1c-0.4,1-0.8,2-1.2,3.1c-0.4,1-0.8,2.1-1.2,3.1c-0.4,1.1-0.7,2.1-1.1,3.2c-0.2,0.7-0.5,1.4-0.7,2.1
	c-0.2,0.7-0.5,1.4-0.7,2.1c-0.5,1.8-1,3.7-1.5,5.5c-0.2,0.9-0.4,1.7-0.6,2.5c-0.2,0.7-0.3,1.4-0.5,2c-0.3,1.3-0.6,2.7-0.8,4.1
	c-0.1,0.7-0.3,1.4-0.4,2c0,0.1,0,0.1,0,0.2c-0.2,0.9-0.3,1.8-0.4,2.6c-0.1,0.7-0.2,1.4-0.3,2.2c-0.1,0.5-0.1,0.9-0.2,1.3
	c-0.1,0.7-0.2,1.5-0.3,2.2c-0.1,0.9-0.2,1.8-0.3,2.7c-0.1,0.8-0.1,1.6-0.2,2.4v0c0,0.5-0.1,1-0.1,1.5c-0.1,1.1-0.1,2.1-0.2,3.2
	c0,0.7-0.1,1.3-0.1,2c0,0.8,0,1.5-0.1,2.3c0,0.8,0,1.5,0,2.3V519h365V144.5C624.5,64.8,559.7,0,480,0z M379.5,203.4h48v112.1h-48
	V203.4z M429.5,203.4h46v112.1h-46V203.4z M475.5,201.4h-46v-93.9H469c3.6,0,6.5,2.9,6.5,6.4V201.4z M427.5,107.5v93.9h-48v-93.9
	H427.5z M332.5,113.9c0-3.6,2.9-6.4,6.5-6.4h38.5v93.9h-45V113.9z M332.5,404.1V203.4h45v112.1H333v2h44.5v93H339
	C335.4,410.5,332.5,407.6,332.5,404.1z M379.5,317.5h48v93h-48V317.5z M475.5,404.1c0,3.5-2.9,6.4-6.5,6.4h-39.5v-93h46V404.1z"/>
<path class="st0" d="M863.9,443.6c-7.8,16.2-22.2,28.2-37.3,38.1c-48.7,31.4-107.1,44.2-164.5,36l4-3.4
	c-11.1-9.4-17.9-24.3-16.1-38.8s12.8-27.8,27-30.9c14.2-3.1,30.5,5.4,34.8,19.4c2.4-26.8,5.1-54.8,19.4-77.7
	c12.9-20.7,35.3-35.5,59.6-38.2c14.2-1.6,28.8,1.2,41.5,7.6c-0.2,0.1-0.4,0.2-0.6,0.4c-20,16.3-38.4,34.5-54.8,54.4
	c-25.7,31-46.6,65.8-61.8,103.2c-1.1,2.7,3.3,3.9,4.4,1.2c24.9-60.7,64.5-114.2,115.4-155.6c0.7-0.5,0.9-1.2,0.8-1.8
	c7.7,4.4,14.5,10.1,20,17.1C870.8,393.7,874.5,421.6,863.9,443.6z"/>
<path class="st0" d="M280.1,511.7l5.3,4.7c-7.9,1.2-15.9,2-23.9,2.6c-70.6,5-142.7-13.4-202-52C38.8,453.5,19,437,8.3,414.7
	c-14.6-30.2-9.5-68.4,11.3-94.7c7.5-9.5,16.9-17.4,27.5-23.4c-0.1,0.8,0.2,1.6,1,2.3c15.3,12.4,30,25.7,43.8,39.8
	c24.5,24.9,46.5,52.1,65.7,81.2c19.3,29.2,35.7,60.3,49,92.7c1.6,3.7,7.6,2,6.1-1.7c-7.5-18.4-15.9-36.3-25.4-53.8
	c-16.9-31.2-36.8-60.6-59.4-87.9c-22.6-27.4-47.8-52.4-75.3-74.8c-0.2-0.2-0.4-0.3-0.6-0.4c17.5-8.7,37.6-12.5,57-10.4
	c33.3,3.6,64,24,81.8,52.4c19.6,31.4,23.3,69.8,26.6,106.7c5.3-17.3,24.1-28.5,42.1-27.4c1.9,0.1,3.8,0.4,5.7,0.8
	c19.6,4.2,34.7,22.5,37.1,42.4C304.7,478.4,295.4,498.8,280.1,511.7z"/>
<path class="st1" d="M520.9,59.6c-0.7-0.9-1.3-1.8-2-2.7c-3.9-5.2-8.1-10-12.7-14.6c-5.7-5.7-11.9-10.9-18.4-15.6
	c-0.7-0.5-1.3-0.9-2-1.4c-9.7-6.6-20.1-12.1-31.1-16.2c-0.7-0.2-1.3-0.5-2-0.7c-10.1-3.6-20.5-6-31.1-7.3c-0.7-0.1-1.3-0.1-2-0.2
	c-10.3-1.1-20.8-1.1-31.1,0c-0.3,0-0.5,0-0.7,0c-0.2,0-0.3,0-0.5,0c-0.1,0-0.2,0-0.3,0c-0.1,0-0.2,0-0.3,0c-0.1,0-0.2,0-0.3,0
	c-0.5,0.1-1,0.1-1.5,0.2c-0.1,0-0.1,0-0.2,0c-0.4,0-0.8,0.1-1.1,0.2c-0.4,0-0.9,0.1-1.3,0.2c-0.6,0.1-1.2,0.2-1.8,0.3
	c-0.7,0.1-1.3,0.2-2,0.3c-1.8,0.3-3.6,0.7-5.4,1.1c-1.2,0.3-2.3,0.5-3.5,0.8c-0.6,0.1-1.2,0.3-1.7,0.4c-0.4,0.1-0.8,0.2-1.2,0.3
	c-0.6,0.2-1.2,0.3-1.8,0.5c-0.5,0.1-0.9,0.3-1.4,0.4c-0.3,0.1-0.5,0.1-0.8,0.2c-1,0.3-2,0.6-3,0.9c-0.2,0.1-0.4,0.1-0.6,0.2
	c-0.6,0.2-1.3,0.4-1.9,0.6c-0.6,0.2-1.3,0.4-1.9,0.7c-0.7,0.2-1.3,0.4-2,0.7c-11.2,4.2-21.7,9.7-31.5,16.5c-0.7,0.4-1.3,0.9-2,1.4
	c-11.7,8.4-22.1,18.5-30.8,29.9c-0.7,0.9-1.3,1.8-2,2.7c-0.3,0.5-0.7,0.9-1,1.4c0,0.1-0.1,0.2-0.2,0.3c-0.2,0.3-0.5,0.6-0.7,1
	c-0.9,1.3-1.9,2.7-2.7,4.1c-0.5,0.8-1,1.5-1.4,2.3c-0.5,0.8-0.9,1.5-1.4,2.3c-0.8,1.3-1.5,2.5-2.2,3.8c-1.6,2.9-3.1,5.9-4.5,8.9
	c-0.9,2-1.8,4.1-2.7,6.1c-0.4,1-0.8,2-1.2,3.1c-0.4,1-0.8,2.1-1.2,3.1c-0.4,1.1-0.7,2.1-1.1,3.2c-0.2,0.7-0.5,1.4-0.7,2.1
	c-0.2,0.7-0.5,1.4-0.7,2.1c-0.5,1.8-1,3.7-1.5,5.5c-0.2,0.9-0.4,1.7-0.6,2.5c-0.2,0.7-0.3,1.4-0.5,2c-0.3,1.3-0.6,2.7-0.8,4.1
	c-0.1,0.7-0.3,1.4-0.4,2c0,0.1,0,0.1,0,0.2c-0.2,0.9-0.3,1.8-0.4,2.6c-0.1,0.7-0.2,1.4-0.3,2.2c-0.1,0.5-0.1,0.9-0.2,1.3
	c-0.1,0.7-0.2,1.5-0.3,2.2c-0.1,0.9-0.2,1.8-0.3,2.7c-0.1,0.8-0.1,1.6-0.2,2.4v0c0,0.5-0.1,1-0.1,1.5c-0.1,1.1-0.1,2.1-0.2,3.2
	c0,0.7-0.1,1.3-0.1,2c0,0.8,0,1.5-0.1,2.3c0,0.8,0,1.5,0,2.3V519h289V144.5C548.6,114,538.9,84.3,520.9,59.6z M469,107.5
	c3.6,0,6.5,2.9,6.5,6.4v87.5h-46v-93.9H469z M379.5,203.4h48v112.1h-48V203.4z M429.5,203.4h46v112.1h-46V203.4z M427.5,107.5v93.9
	h-48v-93.9H427.5z M377.5,107.5v93.9h-45v-87.5c0-3.6,2.9-6.4,6.5-6.4H377.5z M332.5,404.1V203.4h45v112.1H333v2h44.5v93H339
	C335.4,410.5,332.5,407.6,332.5,404.1z M379.5,317.5h48v93h-48V317.5z M475.5,404.1c0,3.5-2.9,6.4-6.5,6.4h-39.5v-93h46V404.1z"/>
<circle class="st2" cx="525" cy="335.5" r="16"/>
<polygon class="st3" points="594.6,507.8 582.3,507.8 576.5,460.5 594.6,460.5 "/>
<path class="st4" d="M573.6,504.3h23.6l0,0v14.9l0,0h-38.5l0,0l0,0C558.7,510.9,565.4,504.3,573.6,504.3L573.6,504.3z"/>
<polygon class="st3" points="655.6,507.8 643.3,507.8 637.5,460.5 655.6,460.5 "/>
<path class="st4" d="M634.6,504.3h23.6l0,0v14.9l0,0h-38.5l0,0l0,0C619.7,510.9,626.4,504.3,634.6,504.3L634.6,504.3z"/>
<path class="st3" d="M533.1,338.7c-3.3-4.9-2.1-11.6,2.9-14.9c0.5-0.4,1.1-0.7,1.7-0.9L579.3,208l20.5,11.2L552.2,329
	c2.1,5.6-0.8,11.8-6.4,13.9C541.1,344.5,535.9,342.8,533.1,338.7z"/>
<path class="st3" d="M649.3,360.3c-5.1-3-6.9-9.5-4-14.7c0.3-0.5,0.7-1.1,1.1-1.6l-12.9-121.5l23.3,1.1l5.4,119.5
	c4.3,4.1,4.5,11,0.3,15.3C659.1,362,653.7,362.8,649.3,360.3L649.3,360.3z"/>
<circle class="st3" cx="612.1" cy="162.1" r="24.6"/>
<path class="st2" d="M649.2,332.6h-74l0.1-0.6c0.1-0.9,13.2-86.4,3.6-114.4c-2-5.7,0.6-12,6.1-14.6l0,0c13.8-6.5,40.2-14.5,62.5,4.9
	c6.7,5.9,10.2,14.5,9.5,23.4L649.2,332.6z"/>
<path class="st2" d="M589.4,258.3l-33.3-6.8l15.6-37c1.9-7.5,9.6-12,17.1-10c7.5,1.9,11.9,9.5,10,17L589.4,258.3z"/>
<path class="st2" d="M632.1,270.8l-2-45.9c-1.5-8.6,3.4-16.8,11-18.1s15,4.7,16.6,13.4l7.5,42.9L632.1,270.8z"/>
<path class="st4" d="M646.7,327.1c11.9,45.4,13.2,103.1,10,166l-16-2l-29-120l-16,122l-18-1c-5.4-66-10.6-122.7-2-160L646.7,327.1z"
	/>
<path class="st4" d="M628.3,181.1c-4.6,4.9-13.1,2.3-13.7-4.4c0-0.5,0-1,0-1.6c0.3-3,2-5.6,1.6-8.8c-0.1-0.8-0.4-1.5-0.8-2.1
	c-3.7-4.9-12.2,2.2-15.7-2.2c-2.1-2.7,0.4-7-1.3-10c-2.1-4-8.5-2-12.5-4.2c-4.4-2.4-4.2-9.2-1.2-13.4c3.6-5,9.8-7.7,15.9-8.1
	c6.1-0.4,12.3,1.3,18,3.5c6.5,2.5,13,6.1,17,11.8c4.9,7,5.3,16.3,2.9,24.5C637.1,171.1,632,177.1,628.3,181.1z"/>
<path class="st5" d="M840,519.6H101.7c-0.7,0-1.2-0.5-1.2-1.2s0.5-1.2,1.2-1.2H840c0.7,0,1.2,0.5,1.2,1.2S840.6,519.6,840,519.6z"/>
</svg>
