<?xml version="1.0" encoding="utf-8"?>
<!-- Generator: Adobe Illustrator 25.0.0, SVG Export Plug-In . SVG Version: 6.00 Build 0)  -->
<svg version="1.1" id="fb638577-3af1-4e62-8e8d-f046cc0653af"
	 xmlns="http://www.w3.org/2000/svg" xmlns:xlink="http://www.w3.org/1999/xlink" x="0px" y="0px" viewBox="0 0 2144 1614.8"
	 style="enable-background:new 0 0 2144 1614.8;" xml:space="preserve">
<style type="text/css">
	.st0{fill:none;stroke:#101820;stroke-width:2;stroke-miterlimit:10;}
	.st1{fill:#101820;}
	.st2{opacity:0.25;fill:#101820;enable-background:new    ;}
	.st3{fill:none;stroke:#5A4D5D;stroke-width:2;stroke-miterlimit:10;}
	.st4{fill:#5A4D5D;}
	.st5{opacity:0.1;enable-background:new    ;}
	.st6{fill:#E5E1E6;}
	.st7{fill:#E4002B;}
	.st8{fill:none;stroke:#E4002B;stroke-miterlimit:10;}
	.st9{fill:url(#SVGID_1_);}
	.st10{fill:#65617D;}
	.st11{fill:#FBBEBE;}
	.st12{fill:#FFFFFF;}
	.st13{fill:#E3A79F;}
	.st14{fill:#E7EFFD;}
	.st15{opacity:0.1;}
</style>
<g id="bcb547b9-8dd8-4d76-924a-52de61933c6c_5_">
	<path class="st0" d="M1253.1,770.1c0,0,27.6,111,101.6,161.2c31,21.1,54.9,51.2,67.1,86.7c5.8,16.8,10,34.2,12.5,51.8"/>
	<path class="st1" d="M1480.7,1101.7c-6.8-11.6-47.5-32.9-47.5-32.9s-1.3,45.9,5.5,57.5c6.9,11.5,21.9,15.2,33.4,8.3
		C1483.5,1127.8,1487.3,1113.2,1480.7,1101.7z"/>
	<path class="st1" d="M1477.8,1017.1c-12-6-57.8-1.8-57.8-1.8s23.9,39.3,35.9,45.3c12.1,5.8,26.7,0.6,32.4-11.5
		C1493.9,1037.3,1489.2,1023.2,1477.8,1017.1L1477.8,1017.1z"/>
	<path class="st1" d="M1411.9,908.2c-13.4,0.9-50.7,27.6-50.7,27.6s40.5,21.8,53.9,21c13.4-0.4,24-11.7,23.6-25.1
		c-0.4-13.4-11.7-24-25.1-23.6C1413,908.2,1412.4,908.2,1411.9,908.2L1411.9,908.2z"/>
	<path class="st1" d="M1343.5,837c-13.4-1.4-54.7,18.6-54.7,18.6s36.1,28.4,49.5,29.8c13.4,1.4,25.4-8.3,26.8-21.6
		C1366.5,850.5,1356.8,838.5,1343.5,837z"/>
	<path class="st1" d="M1374.6,1038.9c3.6-13,37.4-44.1,37.4-44.1s13.1,44,9.5,57c-3.3,13-16.5,20.9-29.6,17.6
		c-13-3.3-20.9-16.5-17.6-29.6C1374.4,1039.6,1374.5,1039.2,1374.6,1038.9L1374.6,1038.9z"/>
	<path class="st1" d="M1295.6,954.7c7.3-11.3,48.9-30.8,48.9-30.8s-0.7,46-8,57.2c-7.8,11-23,13.6-33.9,5.8
		C1292.3,979.6,1289.3,965.6,1295.6,954.7L1295.6,954.7z"/>
	<path class="st1" d="M1230.1,862.3c5.3-12.3,43-38.7,43-38.7s7.1,45.4,1.8,57.8c-5.1,12.4-19.3,18.4-31.7,13.3
		c-12.4-5.1-18.4-19.3-13.3-31.7C1229.9,862.8,1230,862.5,1230.1,862.3L1230.1,862.3z"/>
	<path class="st2" d="M1480.7,1101.7c-6.8-11.6-47.5-32.9-47.5-32.9s-1.3,45.9,5.5,57.5c6.9,11.5,21.9,15.2,33.4,8.3
		C1483.5,1127.8,1487.3,1113.2,1480.7,1101.7z"/>
	<path class="st2" d="M1477.8,1017.1c-12-6-57.8-1.8-57.8-1.8s23.9,39.3,35.9,45.3c12.1,5.8,26.7,0.6,32.4-11.5
		C1493.9,1037.3,1489.2,1023.2,1477.8,1017.1L1477.8,1017.1z"/>
	<path class="st2" d="M1411.9,908.2c-13.4,0.9-50.7,27.6-50.7,27.6s40.5,21.8,53.9,21c13.4-0.4,24-11.7,23.6-25.1
		c-0.4-13.4-11.7-24-25.1-23.6C1413,908.2,1412.4,908.2,1411.9,908.2L1411.9,908.2z"/>
	<path class="st2" d="M1343.5,837c-13.4-1.4-54.7,18.6-54.7,18.6s36.1,28.4,49.5,29.8c13.4,1.4,25.4-8.3,26.8-21.6
		C1366.5,850.5,1356.8,838.5,1343.5,837z"/>
	<path class="st2" d="M1374.6,1038.9c3.6-13,37.4-44.1,37.4-44.1s13.1,44,9.5,57c-3.3,13-16.5,20.9-29.6,17.6
		c-13-3.3-20.9-16.5-17.6-29.6C1374.4,1039.6,1374.5,1039.2,1374.6,1038.9L1374.6,1038.9z"/>
	<path class="st2" d="M1295.6,954.7c7.3-11.3,48.9-30.8,48.9-30.8s-0.7,46-8,57.2c-7.8,11-23,13.6-33.9,5.8
		C1292.3,979.6,1289.3,965.6,1295.6,954.7L1295.6,954.7z"/>
	<path class="st2" d="M1230.1,862.3c5.3-12.3,43-38.7,43-38.7s7.1,45.4,1.8,57.8c-5.1,12.4-19.3,18.4-31.7,13.3
		c-12.4-5.1-18.4-19.3-13.3-31.7C1229.9,862.8,1230,862.5,1230.1,862.3L1230.1,862.3z"/>
	<path class="st3" d="M1255.7,772.9c0,0-19.7,112.6,27.6,188.5c19.8,31.8,29.4,69,26.2,106.4c-1.6,17.7-4.8,35.3-9.5,52.4"/>
	<path class="st1" d="M1329.4,1168.2c-1.5-13.4-30.1-49.4-30.1-49.4s-19.8,41.4-18.3,54.8s13.6,23,27,21.5
		S1331,1181.6,1329.4,1168.2L1329.4,1168.2z"/>
	<path class="st1" d="M1361,1089.7c-8.5-10.4-52.1-25.1-52.1-25.1s5.9,45.6,14.5,56c8.7,10.3,24,11.6,34.3,2.9
		C1367.8,1115,1369.2,1100,1361,1089.7L1361,1089.7z"/>
	<path class="st1" d="M1344.9,963.5c-12.7-4.7-57.6,4.7-57.6,4.7s28.1,36.3,40.8,41c12.5,4.9,26.6-1.2,31.6-13.7
		s-1.2-26.6-13.7-31.6C1345.5,963.7,1345.2,963.6,1344.9,963.5L1344.9,963.5z"/>
	<path class="st1" d="M1311.1,870.7c-11.6-6.7-57.6-5.1-57.6-5.1s21.6,40.6,33.2,47.3s26.5,2.7,33.2-8.9
		C1326.8,892.3,1322.8,877.4,1311.1,870.7L1311.1,870.7z"/>
	<path class="st1" d="M1257.8,1067.8c8.5-10.4,52.1-25.1,52.1-25.1s-5.9,45.6-14.4,56c-8.7,10.2-24.1,11.4-34.3,2.6
		C1251.3,1092.9,1249.8,1078.1,1257.8,1067.8z"/>
	<path class="st1" d="M1219.8,958.9c11.2-7.4,57.2-8.4,57.2-8.4s-19.2,41.7-30.5,49.1c-11.1,7.6-26.2,4.8-33.8-6.3
		c-7.6-11.1-4.8-26.2,6.3-33.8C1219.2,959.2,1219.5,959,1219.8,958.9z"/>
	<path class="st1" d="M1197.3,847.8c9.8-9.2,54.9-17.9,54.9-17.9s-11.9,44.4-21.8,53.5c-9.8,9.2-25.3,8.6-34.4-1.2
		C1186.9,872.4,1187.4,857,1197.3,847.8L1197.3,847.8z"/>
</g>
<g id="bcb547b9-8dd8-4d76-924a-52de61933c6c_4_">
	<path class="st3" d="M1426.6,818.5c0,0,8.5-114-46.1-184.8c-22.9-29.7-36.1-65.8-36.6-103.3c-0.2-17.8,1.2-35.6,4.3-53.1"/>
	<path class="st1" d="M1314,432.4c2.8,13.1,34.9,46.1,34.9,46.1s15.6-43.2,12.7-56.4c-3-13.1-16.1-21.3-29.2-18.3
		C1319.6,406.7,1311.4,419.4,1314,432.4z"/>
	<path class="st1" d="M1290.4,513.6c9.5,9.5,54.3,19.8,54.3,19.8s-10.4-44.8-20-54.2c-9.7-9.3-25.1-8.9-34.4,0.8
		C1281.4,489.4,1281.4,504.3,1290.4,513.6L1290.4,513.6z"/>
	<path class="st1" d="M1319,637.6c13,3.4,56.8-10.4,56.8-10.4s-31.6-33.4-44.6-36.8c-12.9-3.8-26.4,3.6-30.2,16.5
		s3.6,26.4,16.5,30.2C1317.9,637.4,1318.4,637.5,1319,637.6L1319,637.6z"/>
	<path class="st1" d="M1361.7,726.7c12.3,5.5,57.8-0.6,57.8-0.6s-25.4-38.2-37.7-43.8c-12.3-5.5-26.7-0.1-32.2,12.2
		C1344,706.7,1349.4,721.1,1361.7,726.7z"/>
	<path class="st1" d="M1395.2,525.2c-7.5,11.2-49.3,30.1-49.3,30.1s1.3-45.9,8.8-57.1c7.2-11.4,22.2-14.7,33.6-7.5
		s14.7,22.2,7.5,33.6C1395.6,524.6,1395.4,524.9,1395.2,525.2L1395.2,525.2z"/>
	<path class="st1" d="M1443.9,629.8c-10.5,8.4-56.1,14-56.1,14s15-43.4,25.5-51.9c10.8-8,26.1-5.7,34,5.1
		C1454.8,607.3,1453.3,621.5,1443.9,629.8L1443.9,629.8z"/>
	<path class="st1" d="M1477.2,738.1c-8.9,10.1-52.9,23.3-52.9,23.3s7.5-45.3,16.4-55.4c8.7-10.2,24.1-11.5,34.3-2.7
		c10.2,8.7,11.5,24.1,2.7,34.3C1477.6,737.7,1477.4,737.9,1477.2,738.1L1477.2,738.1z"/>
	<path class="st2" d="M1314,432.4c2.8,13.1,34.9,46.1,34.9,46.1s15.6-43.2,12.7-56.4c-3-13.1-16.1-21.3-29.2-18.3
		C1319.6,406.7,1311.4,419.4,1314,432.4z"/>
	<path class="st2" d="M1290.4,513.6c9.5,9.5,54.3,19.8,54.3,19.8s-10.4-44.8-20-54.2c-9.7-9.3-25.1-8.9-34.4,0.8
		C1281.4,489.4,1281.4,504.3,1290.4,513.6L1290.4,513.6z"/>
	<path class="st2" d="M1319,637.6c13,3.4,56.8-10.4,56.8-10.4s-31.6-33.4-44.6-36.8c-12.9-3.8-26.4,3.6-30.2,16.5
		s3.6,26.4,16.5,30.2C1317.9,637.4,1318.4,637.5,1319,637.6L1319,637.6z"/>
	<path class="st2" d="M1361.7,726.7c12.3,5.5,57.8-0.6,57.8-0.6s-25.4-38.2-37.7-43.8c-12.3-5.5-26.7-0.1-32.2,12.2
		C1344,706.7,1349.4,721.1,1361.7,726.7z"/>
	<path class="st2" d="M1395.2,525.2c-7.5,11.2-49.3,30.1-49.3,30.1s1.3-45.9,8.8-57.1c7.2-11.4,22.2-14.7,33.6-7.5
		s14.7,22.2,7.5,33.6C1395.6,524.6,1395.4,524.9,1395.2,525.2L1395.2,525.2z"/>
	<path class="st2" d="M1443.9,629.8c-10.5,8.4-56.1,14-56.1,14s15-43.4,25.5-51.9c10.8-8,26.1-5.7,34,5.1
		C1454.8,607.3,1453.3,621.5,1443.9,629.8L1443.9,629.8z"/>
	<path class="st2" d="M1477.2,738.1c-8.9,10.1-52.9,23.3-52.9,23.3s7.5-45.3,16.4-55.4c8.7-10.2,24.1-11.5,34.3-2.7
		c10.2,8.7,11.5,24.1,2.7,34.3C1477.6,737.7,1477.4,737.9,1477.2,738.1L1477.2,738.1z"/>
	<path class="st3" d="M1425,815c0,0,54-100.8,32.8-187.7c-8.9-36.4-6.4-74.8,8.4-109.3c7-16.4,15.5-32,25.4-46.8"/>
	<path class="st1" d="M1478.5,416.4c-2.7,13.2,13.2,56.3,13.2,56.3s31.7-33.2,34.5-46.4c2.7-13.2-5.7-26.1-18.9-28.8
		C1494.1,394.8,1481.2,403.3,1478.5,416.4L1478.5,416.4z"/>
	<path class="st1" d="M1424,481.2c4.9,12.5,41.6,40.1,41.6,40.1s8.6-45.1,3.7-57.7c-5-12.5-19.2-18.5-31.7-13.5
		C1425.5,455,1419.4,468.8,1424,481.2L1424,481.2z"/>
	<path class="st1" d="M1399.9,606.1c10.6,8.4,56.2,13.6,56.2,13.6s-15.4-43.3-25.9-51.7c-10.3-8.6-25.7-7.2-34.3,3.1
		c-8.6,10.3-7.2,25.7,3.1,34.3C1399.3,605.7,1399.6,605.9,1399.9,606.1L1399.9,606.1z"/>
	<path class="st1" d="M1402.9,704.8c9,10,53.1,22.9,53.1,22.9s-7.8-45.3-16.8-55.3s-24.3-10.9-34.4-1.9
		C1394.8,679.4,1393.9,694.7,1402.9,704.8L1402.9,704.8z"/>
	<path class="st1" d="M1515.2,534.2c-11.3,7.2-57.3,7.6-57.3,7.6s19.8-41.5,31.2-48.7c11.5-7,26.5-3.3,33.4,8.2
		C1529.2,512.5,1526,526.9,1515.2,534.2z"/>
	<path class="st1" d="M1517.2,649.6c-13,3.5-56.9-9.9-56.9-9.9s31.3-33.6,44.3-37.1c12.9-3.8,26.4,3.7,30.2,16.6
		c3.8,12.9-3.7,26.4-16.6,30.2C1517.9,649.4,1517.6,649.5,1517.2,649.6z"/>
	<path class="st1" d="M1503.9,762.1c-12.2,5.6-57.8-0.1-57.8-0.1s25.2-38.4,37.4-44.1c12.2-5.6,26.7-0.3,32.3,11.9
		C1521.4,742,1516.1,756.4,1503.9,762.1L1503.9,762.1z"/>
</g>
<g id="bcb547b9-8dd8-4d76-924a-52de61933c6c">
	<path class="st0" d="M837.3,791.1c0,0-56.2-99.6-140.9-128.3c-35.5-12-66.5-34.7-87.8-65.6c-10-14.7-18.7-30.3-25.9-46.6"/>
	<path class="st1" d="M529.6,532.2c9.7,9.4,54.6,19,54.6,19s-11-44.6-20.7-54c-9.8-9.2-25.2-8.8-34.4,0.9
		C520,507.8,520.2,522.9,529.6,532.2z"/>
	<path class="st1" d="M555,613c13.2,2.6,56.2-13.7,56.2-13.7s-33.5-31.5-46.7-34.1c-13.2-2.3-25.9,6.5-28.2,19.8
		C534,597.8,542.3,610.2,555,613L555,613z"/>
	<path class="st1" d="M647.5,700.3c12.7-4.4,41.5-40.2,41.5-40.2s-44.8-10.2-57.5-5.9c-12.8,4-20,17.6-16,30.5s17.6,20,30.5,16
		C646.5,700.7,647,700.5,647.5,700.3L647.5,700.3z"/>
	<path class="st1" d="M732.4,750.7c13.3-2.2,47.8-32.5,47.8-32.5s-42.4-17.7-55.7-15.5s-22.3,14.7-20.1,28
		C706.6,743.9,719.2,752.9,732.4,750.7z"/>
	<path class="st1" d="M648.7,564.4c0,13.4-24.3,52.4-24.3,52.4s-24.4-39-24.4-52.4c-0.3-13.4,10.4-24.6,23.8-24.9
		s24.6,10.4,24.9,23.8C648.7,563.7,648.7,564.1,648.7,564.4L648.7,564.4z"/>
	<path class="st1" d="M747.2,624.6c-4,12.8-38.9,42.8-38.9,42.8s-11.6-44.5-7.6-57.3c4.6-12.6,18.5-19.2,31.2-14.6
		C743.8,599.7,750.4,612.4,747.2,624.6L747.2,624.6z"/>
	<path class="st1" d="M834.9,696.1c-1.8,13.3-31.1,48.7-31.1,48.7s-18.9-41.9-17.1-55.2c1.6-13.4,13.7-22.9,27-21.3
		s22.9,13.7,21.3,27C835,695.6,835,695.9,834.9,696.1L834.9,696.1z"/>
	<path class="st2" d="M529.6,532.2c9.7,9.4,54.6,19,54.6,19s-11-44.6-20.7-54c-9.8-9.2-25.2-8.8-34.4,0.9
		C520,507.8,520.2,522.9,529.6,532.2z"/>
	<path class="st2" d="M555,613c13.2,2.6,56.2-13.7,56.2-13.7s-33.5-31.5-46.7-34.1c-13.2-2.3-25.9,6.5-28.2,19.8
		C534,597.8,542.3,610.2,555,613L555,613z"/>
	<path class="st2" d="M647.5,700.3c12.7-4.4,41.5-40.2,41.5-40.2s-44.8-10.2-57.5-5.9c-12.8,4-20,17.6-16,30.5s17.6,20,30.5,16
		C646.5,700.7,647,700.5,647.5,700.3L647.5,700.3z"/>
	<path class="st2" d="M732.4,750.7c13.3-2.2,47.8-32.5,47.8-32.5s-42.4-17.7-55.7-15.5s-22.3,14.7-20.1,28
		C706.6,743.9,719.2,752.9,732.4,750.7z"/>
	<path class="st2" d="M648.7,564.4c0,13.4-24.3,52.4-24.3,52.4s-24.4-39-24.4-52.4c-0.3-13.4,10.4-24.6,23.8-24.9
		s24.6,10.4,24.9,23.8C648.7,563.7,648.7,564.1,648.7,564.4L648.7,564.4z"/>
	<path class="st2" d="M747.2,624.6c-4,12.8-38.9,42.8-38.9,42.8s-11.6-44.5-7.6-57.3c4.6-12.6,18.5-19.2,31.2-14.6
		C743.8,599.7,750.4,612.4,747.2,624.6L747.2,624.6z"/>
	<path class="st2" d="M834.9,696.1c-1.8,13.3-31.1,48.7-31.1,48.7s-18.9-41.9-17.1-55.2c1.6-13.4,13.7-22.9,27-21.3
		s22.9,13.7,21.3,27C835,695.6,835,695.9,834.9,696.1L834.9,696.1z"/>
	<path class="st0" d="M834.1,789.1c0,0-11-113.8-76.8-174.3c-27.6-25.4-46.8-58.7-53.6-95.6c-3.2-17.5-4.8-35.3-4.8-53.1"/>
	<path class="st1" d="M657.7,427.8c5,12.5,42.2,39.6,42.2,39.6s8-45.2,3-57.7s-19.2-18.5-31.7-13.5
		C658.6,401.1,652.6,415.3,657.7,427.8L657.7,427.8z"/>
	<path class="st1" d="M648.2,511.9c11,7.7,56.9,10.3,56.9,10.3s-17.9-42.3-28.9-50.1c-11.1-7.6-26.2-4.7-33.8,6.4
		C634.9,489.3,637.5,504.1,648.2,511.9L648.2,511.9z"/>
	<path class="st1" d="M697.4,629.2c13.4,1.1,54.3-19.9,54.3-19.9s-36.8-27.5-50.2-28.6c-13.4-1.4-25.4,8.3-26.8,21.6
		c-1.4,13.4,8.3,25.4,21.6,26.8C696.7,629.2,697,629.2,697.4,629.2L697.4,629.2z"/>
	<path class="st1" d="M754.6,709.6c13,3.4,56.9-10.4,56.9-10.4s-31.6-33.3-44.6-36.7s-26.3,4.4-29.7,17.4S741.6,706.3,754.6,709.6
		L754.6,709.6z"/>
	<path class="st1" d="M753.4,505.4c-5.4,12.3-43.5,38.1-43.5,38.1s-6.5-45.5-1-57.8c5.7-12.2,20.2-17.4,32.4-11.7
		C753.1,479.6,758.4,493.4,753.4,505.4z"/>
	<path class="st1" d="M819.2,600.3c-8.9,10.1-52.9,23.3-52.9,23.3s7.4-45.4,16.3-55.5c8.7-10.3,24-11.6,34.3-3
		c10.3,8.7,11.6,24,3,34.3C819.6,599.8,819.4,600.1,819.2,600.3z"/>
	<path class="st1" d="M870.4,701.3c-7,11.5-48.2,31.9-48.2,31.9s-0.3-46,6.7-57.4c7-11.5,22-15.1,33.5-8
		C873.9,674.9,877.5,689.9,870.4,701.3L870.4,701.3z"/>
</g>
<g id="bcb547b9-8dd8-4d76-924a-52de61933c6c_1_">
	<path class="st0" d="M975,939.1c0,0-105.9,43.1-145.1,123.4c-16.5,33.7-42.9,61.6-76.3,78.7c-15.9,8.1-32.4,14.7-49.5,19.8"/>
	<path class="st1" d="M679.1,1211.5c10.5-8.4,25.8-51.7,25.8-51.7s-45.7,5.2-56.2,13.6c-10.4,8.5-12,23.8-3.4,34.3
		C653.7,1217.9,668.7,1219.6,679.1,1211.5z"/>
	<path class="st1" d="M762.4,1196.6c4.3-12.7-6.4-57.5-6.4-57.5s-35.5,29.2-39.7,42c-4,12.8,3.2,26.5,16,30.5
		C744.7,1215.4,758,1208.8,762.4,1196.6L762.4,1196.6z"/>
	<path class="st1" d="M860.8,1115.9c-2.7-13.2-34.6-46.3-34.6-46.3s-15.9,43.1-13.1,56.3c2.3,13.2,14.9,22.1,28.2,19.8
		s22.1-14.9,19.8-28.2C861,1117,860.9,1116.5,860.8,1115.9L860.8,1115.9z"/>
	<path class="st1" d="M921.6,1038.1c-0.5-13.4-26.2-51.5-26.2-51.5s-23,39.8-22.5,53.3c0.5,13.4,11.8,24,25.2,23.5
		C911.6,1062.8,922.1,1051.5,921.6,1038.1z"/>
	<path class="st1" d="M726.2,1097.5c13.3,1.7,48.9,30.8,48.9,30.8s-41.7,19.2-55.1,17.5c-13.4-1.4-23.1-13.4-21.7-26.8
		c1.4-13.4,13.4-23.1,26.8-21.7C725.5,1097.4,725.8,1097.5,726.2,1097.5L726.2,1097.5z"/>
	<path class="st1" d="M798.3,1007.4c12.2,5.6,37.5,44,37.5,44s-45.6,5.8-57.8,0.2c-12-6.1-16.7-20.8-10.5-32.8
		C773.2,1007.7,786.6,1002.7,798.3,1007.4L798.3,1007.4z"/>
	<path class="st1" d="M880.5,929.5c13,3.5,44.4,37.1,44.4,37.1s-43.9,13.5-56.9,10c-13-3.3-21-16.5-17.7-29.5s16.5-21,29.5-17.7
		C880,929.3,880.2,929.4,880.5,929.5L880.5,929.5z"/>
	<path class="st2" d="M679.1,1211.5c10.5-8.4,25.8-51.7,25.8-51.7s-45.7,5.2-56.2,13.6c-10.4,8.5-12,23.8-3.4,34.3
		C653.7,1217.9,668.7,1219.6,679.1,1211.5z"/>
	<path class="st2" d="M762.4,1196.6c4.3-12.7-6.4-57.5-6.4-57.5s-35.5,29.2-39.7,42c-4,12.8,3.2,26.5,16,30.5
		C744.7,1215.4,758,1208.8,762.4,1196.6L762.4,1196.6z"/>
	<path class="st2" d="M860.8,1115.9c-2.7-13.2-34.6-46.3-34.6-46.3s-15.9,43.1-13.1,56.3c2.3,13.2,14.9,22.1,28.2,19.8
		s22.1-14.9,19.8-28.2C861,1117,860.9,1116.5,860.8,1115.9L860.8,1115.9z"/>
	<path class="st2" d="M921.6,1038.1c-0.5-13.4-26.2-51.5-26.2-51.5s-23,39.8-22.5,53.3c0.5,13.4,11.8,24,25.2,23.5
		C911.6,1062.8,922.1,1051.5,921.6,1038.1z"/>
	<path class="st2" d="M726.2,1097.5c13.3,1.7,48.9,30.8,48.9,30.8s-41.7,19.2-55.1,17.5c-13.4-1.4-23.1-13.4-21.7-26.8
		c1.4-13.4,13.4-23.1,26.8-21.7C725.5,1097.4,725.8,1097.5,726.2,1097.5L726.2,1097.5z"/>
	<path class="st2" d="M798.3,1007.4c12.2,5.6,37.5,44,37.5,44s-45.6,5.8-57.8,0.2c-12-6.1-16.7-20.8-10.5-32.8
		C773.2,1007.7,786.6,1002.7,798.3,1007.4L798.3,1007.4z"/>
	<path class="st2" d="M880.5,929.5c13,3.5,44.4,37.1,44.4,37.1s-43.9,13.5-56.9,10c-13-3.3-21-16.5-17.7-29.5s16.5-21,29.5-17.7
		C880,929.3,880.2,929.4,880.5,929.5L880.5,929.5z"/>
	<path class="st3" d="M972.6,942.1c0,0-114.3-3.5-182.7,54c-28.7,24.1-64.2,38.9-101.6,41.1c-17.8,1-35.6,0.3-53.3-2"/>
	<path class="st1" d="M591.8,1071.2c13-3.4,44.6-36.8,44.6-36.8s-43.8-13.7-56.9-10.3c-13,3.4-20.8,16.7-17.4,29.7
		S578.8,1074.7,591.8,1071.2L591.8,1071.2z"/>
	<path class="st1" d="M674,1091.3c9.1-9.9,17.4-55.1,17.4-55.1s-44.3,12.4-53.3,22.3c-8.9,10-8,25.4,2,34.4
		C649.9,1101.6,664.9,1100.9,674,1091.3L674,1091.3z"/>
	<path class="st1" d="M796.6,1057.4c2.8-13.2-12.8-56.4-12.8-56.4s-32,33-34.8,46.2c-3.1,13.1,5,26.2,18.1,29.3
		c13.1,3.1,26.2-5,29.3-18.1C796.5,1058.1,796.6,1057.8,796.6,1057.4L796.6,1057.4z"/>
	<path class="st1" d="M883.7,1010.9c5-12.5-3.1-57.7-3.1-57.7s-37.1,27.1-42.1,39.6s1.1,26.6,13.5,31.6
		C864.5,1029.4,878.7,1023.3,883.7,1010.9L883.7,1010.9z"/>
	<path class="st1" d="M681,986.1c11.5,7,32.3,48,32.3,48s-46,0.6-57.5-6.3c-11.3-7.2-14.7-22.3-7.5-33.6
		C655.3,983.1,669.7,979.6,681,986.1z"/>
	<path class="st1" d="M783.4,932.9c8.9,10.1,16.4,55.4,16.4,55.4s-44-13.1-52.9-23.2c-9.1-9.9-8.5-25.3,1.4-34.4
		c9.9-9.1,25.3-8.5,34.4,1.4C783,932.4,783.2,932.7,783.4,932.9z"/>
	<path class="st1" d="M890.1,894.9c10.5,8.4,25.6,51.8,25.6,51.8s-45.6-5.5-56.1-13.9s-12.1-23.8-3.7-34.3S879.7,886.5,890.1,894.9
		L890.1,894.9z"/>
</g>
<path class="st4" d="M1196.3,1286.9v9.6H913.8v-7.8c48.1-17.8,72.6-71.2,54.8-119.3c-8.6-23.1-26-41.9-48.4-52.2h274.2
	c-25.5,11.7-44.4,34.3-51.3,61.6c-9.4,37,4.8,76,35.9,98.3C1184.4,1280.9,1190.2,1284.2,1196.3,1286.9z"/>
<path class="st5" d="M1194.4,1117.2c-25.5,11.7-44.4,34.3-51.3,61.6H971.5c-6.9-27.2-25.8-49.8-51.3-61.6H1194.4z"/>
<path class="st4" d="M590.4,1068.6v53.6c0,29.6,21.7,53.6,48.4,53.6h831.1c26.7,0,48.4-24,48.4-53.6v-53.6H590.4z"/>
<path class="st5" d="M1196.3,1286.9v9.6H913.8v-7.8c7.7-2.9,15.1-6.8,21.8-11.6H1179C1184.4,1281,1190.2,1284.2,1196.3,1286.9z"/>
<path class="st4" d="M832.1,1280.1h446c6.4,0,11.6,5.2,11.6,11.6v5.1c0,6.4-5.2,11.6-11.6,11.6h-446c-6.4,0-11.6-5.2-11.6-11.6v-5.1
	C820.5,1285.3,825.7,1280.1,832.1,1280.1z"/>
<path class="st1" d="M1518.3,481c0-26.7-21.7-48.4-48.4-48.4l0,0H638.8c-26.7,0-48.4,21.7-48.4,48.4l0,0v598h927.9V481z"/>
<path class="st6" d="M1493,502.6v513.8c0,13.2-10.7,23.8-23.8,23.8l0,0H639.5c-13.2,0-23.8-10.7-23.8-23.8l0,0V502.6
	c0-13.2,10.7-23.8,23.8-23.8h829.6C1482.3,478.8,1493,489.4,1493,502.6L1493,502.6z"/>
<circle class="st4" cx="1054.3" cy="455.7" r="11.2"/>
<circle class="st1" cx="1054.3" cy="1124.4" r="27.6"/>
<g>
	<circle class="st7" cx="639.5" cy="498" r="6"/>
	<circle class="st7" cx="657.4" cy="498" r="6"/>
	<circle class="st7" cx="675.3" cy="498" r="6"/>
</g>
<path class="st1" d="M819.2,918.2h26.1v4.9h-26.1V918.2z M832.3,905.1c1.8,0,3.3-1.5,3.2-3.3c0-1.8-1.5-3.3-3.3-3.2
	c-0.3,0-0.6,0-0.9,0.1l-6.8-5l-0.4,0.4l5,6.8c-0.1,0.3-0.1,0.6-0.1,1C829,903.7,830.5,905.1,832.3,905.1L832.3,905.1z"/>
<path class="st1" d="M832.3,880.7c-11.7,0-21.2,9.5-21.2,21.2c0,4.7,1.6,9.3,4.5,13.1h6l0.4-0.4l2.2-2.2l-2.4-2.3l-2.2,2.2
	c-2-2.5-3.3-5.5-3.6-8.7h3.2v-3.3H816c0.3-3.2,1.6-6.2,3.6-8.7l2.2,2.2l2.3-2.3l-2.2-2.2c2.5-2,5.5-3.3,8.7-3.6v3.2h3.3v-3.2
	c3.2,0.3,6.2,1.6,8.7,3.6l-2.2,2.2l2.3,2.3l2.2-2.2c2,2.5,3.3,5.5,3.6,8.7h-3.2v3.3h3.2c-0.3,3.2-1.6,6.2-3.6,8.7l-2.2-2.2l-2.3,2.3
	l2.3,2.2l0.4,0.4h6c7.2-9.2,5.6-22.6-3.7-29.8C841.6,882.3,837,880.7,832.3,880.7L832.3,880.7z"/>
<path class="st1" d="M832.3,791.7c-1.5-0.1-3-0.4-4.4-1.1c-0.4-0.2-0.9,0-1,0.4c-0.1,0.1-0.1,0.3-0.1,0.4l0.4,5.2
	c0,0.2,0.2,0.4,0.4,0.4c0.1,0,0.1,0,0.2-0.1l1.5-1.1c0.2-0.1,0.4-0.1,0.6,0.1l0,0l2.1,3.3c0.1,0.2,0.4,0.2,0.6,0.1l0.1-0.1l2.1-3.3
	c0.1-0.2,0.4-0.2,0.6-0.1l0,0l1.5,1.1c0.2,0.1,0.4,0.1,0.6-0.1c0-0.1,0.1-0.1,0.1-0.2l0.4-5.2c0-0.4-0.3-0.8-0.8-0.8
	c-0.1,0-0.2,0-0.4,0.1C835.3,791.3,833.8,791.7,832.3,791.7L832.3,791.7z"/>
<path class="st1" d="M846.7,778.6l-4.9-5c0-16.1-9.5-23.2-9.5-23.2s-9.6,7.1-9.6,23.2l-4.9,5c-0.2,0.2-0.3,0.5-0.2,0.7l1.9,11.4
	c0,0.4,0.4,0.7,0.9,0.7c0.1,0,0.3-0.1,0.4-0.1l6.9-4.6c1.3,1.2,3,1.9,4.8,2c1.8-0.1,3.4-0.8,4.7-2l6.8,4.6c0.4,0.2,0.8,0.2,1.1-0.2
	c0.1-0.1,0.1-0.2,0.1-0.4l1.9-11.4C847.1,779,846.9,778.8,846.7,778.6z M832.3,768.3c-1.8,0.1-3.3-1.3-3.4-3.1
	c-0.1-1.8,1.3-3.3,3.1-3.4c1.8-0.1,3.3,1.3,3.4,3.1c0,0.1,0,0.1,0,0.2C835.5,766.8,834.1,768.2,832.3,768.3L832.3,768.3z"/>
<path class="st1" d="M848.6,666.9h-0.5c-0.7,0-1.2-0.1-1.3-0.8l0,0c-1.5-13.9-10.2-14.1-10.2-17.4s8.7-3.5,10.2-17.4l0,0
	c0.1-0.7,0.6-0.8,1.3-0.8h0.5c0.8,0,1.4-0.6,1.5-1.4c0-0.8-0.6-1.5-1.4-1.5c0,0,0,0-0.1,0H816c-0.8,0-1.4,0.6-1.5,1.4
	c0,0.8,0.6,1.5,1.4,1.5h0.1h0.6c0.7,0,1.2,0.1,1.3,0.8l0,0c1.5,13.9,10.2,14.1,10.2,17.4s-8.7,3.5-10.2,17.4l0,0
	c-0.1,0.7-0.6,0.8-1.3,0.8H816c-0.8,0-1.4,0.6-1.5,1.4c0,0.8,0.6,1.5,1.4,1.5h0.1h32.6c0.8,0,1.4-0.6,1.4-1.4v-0.1
	C850,667.5,849.3,666.9,848.6,666.9z M822.9,663.5c2.9-8.1,8.1-7.2,8.1-10.4v-5.7c0-2-3.8-3.4-6.1-6.6c-0.2-0.4-0.1-0.9,0.2-1.1
	c0.1-0.1,0.3-0.1,0.4-0.1h13.6c0.4,0,0.8,0.3,0.8,0.8c0,0.2,0,0.3-0.1,0.4c-2.3,3.2-6.1,4.6-6.1,6.6v5.7c0,3.2,5,2.3,8.1,10.4
	c0.3,0.7,0.1,1.6-0.7,1.6h-17.5C822.8,665.1,822.6,664.2,822.9,663.5z"/>
<g>
	<rect x="916.9" y="888.2" class="st7" width="282.5" height="27.2"/>
	<rect x="916.9" y="888.2" class="st8" width="376.6" height="27.2"/>
</g>
<g>
	
		<linearGradient id="SVGID_1_" gradientUnits="userSpaceOnUse" x1="818.4508" y1="1596.8241" x2="818.4508" y2="2161.7002" gradientTransform="matrix(1 0 0 -1 605.84 2914.7417)">
		<stop  offset="0" style="stop-color:#808080;stop-opacity:0.25"/>
		<stop  offset="0.54" style="stop-color:#808080;stop-opacity:0.12"/>
		<stop  offset="1" style="stop-color:#808080;stop-opacity:0.1"/>
	</linearGradient>
	<path class="st9" d="M1560.4,931c0.6-1.5-3.6-9.8-3.6-10.2s-4.3-5-4.3-7.6s-5.6-8.2-5.6-8.2s-7.5-3.1-8.3-9.9c-0.8-6.8-9-6.9-9-6.9
		l0,0c0,0,0-0.6,0-1.6c0-2.1-0.1-5.9-1-8c-1-1.9-2.6-3.3-4.7-3.9c0,0-0.8-5.3-2.5-6.9c-1.9-2-2.6-4.7-1.9-7.3
		c0.8-2.6-1.1-9.1-5.1-10s-8.5-2.5-8.5-2.5s-0.4,0.1-1.1,0.2l-0.5-0.2c-0.9,0.2-1.9,0.3-2.9,0.4c-0.8,0-1.7-0.2-2.3-0.8
		c-1.4-1.5-12.4-4.4-14.5-4.4s-8-2.7-8-2.7l-5.9-4.5c-1.7-1.3-4.7-6.4-5.1-7.1l-0.1-0.1l0,0l0,0c-0.5-1.2-0.9-2.4-1.2-3.6l0,0
		c2-2.1,3.7-4.5,5.1-7c0.1-0.3,0.3-0.5,0.4-0.8c0.3,0,0.6,0,0.9-0.1l0.4-0.1c1.4-0.7,2.4-2,2.9-3.5l0,0c0.1-0.3,0.2-0.6,0.3-0.9
		l0.1-0.3c0-0.2,0.1-0.4,0.1-0.6l0.1-0.4c0-0.2,0.1-0.4,0.1-0.6c0-0.2,0-0.2,0-0.3s0.1-0.5,0.1-0.8l0,0c0.1-1,0.2-1.9,0.4-2.9l0,0
		l0,0c0.8-3.7,3-6.8,4.6-10.2l0,0c0.2-0.5,0.4-1,0.6-1.5s0.4-1.1,0.5-1.7c0-0.2,0.1-0.3,0.1-0.5c0.1-0.4,0.2-0.8,0.3-1.2
		c0-0.2,0.1-0.4,0.1-0.5c0.1-0.6,0.2-1.1,0.2-1.7c0.3-3.2-0.2-6.5-1.4-9.5c-1-2.5-2.5-4.8-3.6-7.4c-1.6-3.9-2-8.3-3.9-11.9
		c-3.2-6.2-10.8-9.3-17-7c-3,1.1-5.5,3.3-8.6,4.2c-4,1.3-8.4,0.3-12.6-0.3s-8.8-0.6-12.2,2.1c-3.9,3.1-4.9,9.1-8.6,12.5
		c-1.5,1.5-3.4,2.4-5,3.7c-1.1,0.9-2,2.1-2.5,3.5c0,0.1-0.1,0.2-0.1,0.3s-0.1,0.2-0.1,0.3s0,0.3-0.1,0.4s0,0.2,0,0.3
		c0,0.2,0,0.5,0,0.7l0,0c0,0.2,0.1,0.5,0.1,0.7c0,0.1,0,0.1,0,0.2s0.1,0.4,0.2,0.6v0.1c0.1,0.2,0.2,0.4,0.2,0.6
		c0.1,0.2,0.1,0.2,0.1,0.3s0.1,0.2,0.1,0.3c0.5,1,1,2.1,1.3,3.2c0.2,0.7,0.1,1.4-0.1,2.1c-0.4,0.8-0.9,1.4-1.5,2
		c-2.7,2.8-4.8,6.2-6.2,9.9c-0.2,0.4-0.3,0.8-0.4,1.3l0,0h0.2c0.4,0.1,0.8,0.2,1.2,0.3c0.2,0,0.5,0.1,0.7,0.1c0.9,0.1,1.9,0,2.8-0.2
		l0.7-0.2c0.9-0.3,1.9-0.6,2.8-1c0,0.3,0,0.5,0,0.8s0,0.3,0,0.5c0,12.3,7,23.5,18,28.9l0.1,0.9l0.1,0.7l-0.4-0.4
		c0,0-2.5-1.2-4.8,2.3c-1.7,2.3-4,4.1-6.7,5.2c0,0-24.9,3.9-25.9,7.2l-11.6,0.7c0,0-4.1,0.5-4.5,9.1s-2.6,9.4-2.6,9.4
		s-4.8,8.4-4.4,12.8c0.4,4.4-3.8,6.5-3.8,6.5l-0.6,7.8c0,0-4.5-0.7-5.8,4.6s-3.4,7.8-3.4,7.8s-7.5,6.3-7.9,11.5l-4.7,2.9
		c0,0-10.8-2.5-13.3-6.8l-0.8-0.7c0,0,0-0.1-0.1-0.1l0,0c-1.6-1.5-5.1-4.7-4.5-4c0.3,0.7,0.4,1.5,0.2,2.2l-0.8-0.9l-2.1-2.3
		c0,0-16.1-18.5-26.3-19.8l0,0c-2.2,0.6-4,2.3-4.6,4.5c-1.3,4.4-2.7,11.7,0.7,15.3l16.2,17.3l0.4,0.3l3.5,4.5
		c-0.6,1.4-1.1,2.8-1.5,4v0.1c-0.1,0.3-0.2,0.5-0.3,0.8l-0.1,0.3c-0.1,0.3-0.2,0.5-0.2,0.8s-0.1,0.3-0.1,0.5s0,0.2-0.1,0.3
		c-0.4,1.4-0.6,2.4-0.8,3l-0.9-0.3l0.9,0.4v0.1c0,0.1,0,0.2-0.1,0.3c0.3,0.1,0.5,0.3,0.8,0.4c4.8,2.1,28.7,12.6,30,14.2
		c1.4,1.8,10.4,6.9,18.6,2.6c8.2-4.4,10-11,10-11s7.9-11,8.2-12.6s6.4-3.5,6.4-3.5s0.6,18.2-2.6,24.9c-3.1,6.7-9,36.2-9,36.2
		c0.4-0.1,0.8-0.1,1.2-0.1l-0.3,1.7c0.5-0.1,1-0.1,1.4,0c-0.4,3.3-3,18.9-3,18.9s-0.8,7.1-2.2,9.5c-1.4,2.4-1.5,15.2-1.5,15.2
		l-2.2,9.2c0,0,0.3,0.6,0.8,1.6l0,0c0,0,2.3,5.2,6.3,8.1c-0.2,1.4-0.6,2.9-1.1,4.2c-0.9,2.1-1.2,4.3-1.1,6.5c0,0-2.3,10.5-2.1,13.5
		s-1.5,10.3-1.5,10.3l-2.5,23.7c0,0-1.6,20.5-0.8,26.1c0.8,5.6-0.5,13.2-0.5,13.2s1.6,16.2,1.2,17.9s-2.5,9.4-1.2,13.6
		c1.2,4.2,0.5,15.8,0.5,15.8s0.8,15.2,1.8,20.1s-0.3,11.2-0.3,11.2s-1,10.5-1.4,10.5s-4,7.2,3.3,14.3c7.3,7.1,2.8,6,2.8,6
		s-5.8-2.8-5.1,3c0.7,5.6,1.5,4.1,1.6,4l-1.4,4.5l1,0.1c-0.3,0.3-0.5,0.6-0.8,1c-0.8,1-1.7,2-2.8,2.9c-1.7,1.2-1.8,3.9-1.8,3.9
		s-10.1,11-19.6,16.6c-5,2.9-9.3,5.4-11.1,7.5c-1.7,1.8-1.4,3.3,2.1,4.5c7.4,2.5,20.4,3.7,29.7,0.6c5.5-1.9,10.5-5.1,14.5-9.4
		c0,0,5.9-3,11.6-1.9c5.8,1.1,17.3-6.4,17.3-6.4l-0.2-1.9l-0.6-5.6c-0.8-0.9-1.2-2.2-1-3.4c0.1-1.6-0.1-3.3-0.5-4.9
		c-0.1-0.5-0.2-1.1-0.3-1.6l1.1-0.2c0,0-1.4-6.9,1.1-8.3s1.8-19.2,1.8-19.2s-3.1-4.1-4.8-4.8c-1.6-0.7-0.1-9.1,0.1-10.2
		c0.3-1.1,2.3-22.3,2.3-22.3s-0.8-6.7,0.3-9.5c1.1-2.9-1.4-13.9-1.4-13.9s-0.8-1.4,0.7-3s1-16.2,1-16.2s-0.1-7.3-0.1-9.3
		c0-1.9,1.6-8.8,3.1-11.1c1.5-2.3,0.5-9.5,0.5-9.5l0,0l0.1-0.5c0-0.2,0.1-0.5,0.1-0.8l0.1-0.7c0.7-4,1.6-7.9,2.7-11.8
		c1.8-5.7,3.8-15.8,3.8-15.8l12.7-33.3l0.1-0.4c0,0,5.9,10.9,5.9,20.9c0,0,1.5,12.1,1.1,15.3c-0.4,3.3,1.2,18.6,1.2,18.6
		s1.8,22,1.8,23s2.2,17.9,3.6,20.5s-1.4,10.5-2.2,11.3c-0.8,0.8,0.3,20.8,0.3,20.8s-2,15.8-2.5,19s-2.1,15.8-0.7,20.7
		c1.4,4.9,0.8,5.6,0.8,5.6s4.9,5,2,5.4c-4.1,0.9-6.6,4.9-5.8,9c0.1,0.3,0.2,0.6,0.3,0.9c1.7,5,3.7,9.8,6,14.6l2.3-0.5v1.6l0.2,8.1
		c0,0,1,7.8,0.4,9.5c-0.6,3.5-0.9,7-1.1,10.6c-0.1,1.2-0.2,1.9-0.2,1.9s0,7.2,15.2,5s18-8.1,18-8.1s0-0.3,0.1-0.8
		c0.2-1.4,0.7-4.3,1.1-5.9c0.5-2.2-4.4-12-4.4-12s-0.8-6.7-2.2-8.2c-0.6-0.9-0.9-1.8-1.1-2.8c-0.1-0.6-0.2-1.1-0.3-1.7
		c0.4,0.1,0.7,0.1,1,0.2c0.5,0.1-0.8-4.8,2.3-6.3s2.3-4.6,1.9-6s1.2-9,1.2-9c-0.4-1.5,0-3.2,1.1-4.3c1.9-1.9,3.4-15.2,3.4-15.2
		l0.3-51.4c0,0,1-9.1-0.1-12.8s-2.2-10.7-0.7-12.6s0.1-10.7,0.1-10.7s0-18.6,2-23.2c2.1-4.6,1.4-33.8,1.4-33.8l0.6-19.2
		c0,0,4.5-4.2,3.4-26.3c4.8-0.3,10.2-0.5,11,0.2c1.5,1.2,11.2,7.5,17,3.5c1.2-0.5,6.8-5.3,6.8-5.3l-2.4-40.8
		c1.5,2.3,2.4,3.8,2.4,3.8c0-5.7,16.2-24.2,16.2-24.2s15.1-19.4,18.3-21.8s9.7-14.5,9.7-14.5c1-2.3,2.1-4.6,3.3-6.8
		C1564.9,939,1559.9,932.5,1560.4,931z M1525.1,945.2c-4.1,0.4-12.7,9.8-12.9,11.8c-0.3,1.3-0.9,2.6-1.8,3.7
		c-0.1-0.8-0.1-1.7-0.2-2.5c-1-12-2-26.6-1.5-28.1c0.8-2.4,0.5-13.5,0.5-13.5l0,0l0.2-0.2c2.8,8.5,11.3,18.6,11.3,18.6
		s1.5,4.4,3.3,4.5S1525.1,945.2,1525.1,945.2L1525.1,945.2z"/>
	<path class="st10" d="M1305.7,942.1c0,0,5-26.2,21-26.3l11.7,24.1l-7.8,5.4C1330.6,945.4,1313.6,945.9,1305.7,942.1z"/>
	<path class="st5" d="M1338.5,940l-7.8,5.4c0,0-12,0.4-20.5-1.7c-1.5-0.4-3-0.9-4.4-1.5c0,0,0-0.2,0.1-0.4v-0.1
		c0.7-3.3,1.7-6.5,3-9.6c0.5-1.2,1-2.4,1.7-3.6c2.3-4.5,5.7-9,10.2-11.1c1.7-0.8,3.5-1.3,5.3-1.4h0.5h0.2l0.3,0.5l4,8.2L1338.5,940z
		"/>
	<path class="st1" d="M1471.7,1048.7c0,0,16.9-1.6,18.3-0.4c1.5,1.2,11.1,7.4,16.7,3.5c5.7-3.9,1.9-17.5,1.9-18.1
		s-0.5-19.8-0.5-19.8l-10.1-13.6l-12.7-23.9l-25.9-2.6l0.7,37.9l-0.1,19.4L1471.7,1048.7z"/>
	<path class="st11" d="M1323.4,915.1c0,0-1.3,16.5-11.6,16.7c0,0-2.9-1.8-6.8-4.7c-9-6.8-23.3-19.7-19.3-31.8
		c5.7-17.3,33.2,14.6,33.2,14.6l2.1,2.4L1323.4,915.1z"/>
	<path class="st5" d="M1323.4,915.1c0,0-1.3,16.5-11.6,16.7c0,0-2.9-1.8-6.8-4.7l-0.9-1.1c1.7,0.9,3.7,1.4,5.6,1.5
		c3.2,0.1,6.1-1.7,7.3-4.6c1.1-2.1,2-4.3,2.8-6.5c0.5-1.3,0.8-2.7,1-4L1323.4,915.1z"/>
	<path class="st12" d="M1318.9,945l-2.3-3l-7.8-10l-4-5.1c1.7,0.9,3.7,1.4,5.6,1.5c3.2,0.1,6.1-1.7,7.3-4.6c1.1-2.1,2-4.3,2.8-6.5
		c1.3-3.6,1.3-5.5,0.8-6.1s2.9,2.4,4.5,4l0.1,0.1l0.8,0.7l0.3,0.5l3.9,7.8c0,0,0,0.1,0,0.3C1331.3,927,1332.6,942.7,1318.9,945z"/>
	<path class="st1" d="M1399.7,1292.1c0,0-11.3,7.4-17,6.3s-11.5,1.9-11.5,1.9c-3.9,4.3-8.8,7.5-14.3,9.3c-9.2,3.1-22,1.9-29.3-0.6
		c-3.4-1.2-3.7-2.6-2.1-4.5c1.8-2,6.1-4.5,11-7.4c9.3-5.5,19.3-16.4,19.3-16.4s0.1-2.7,1.8-3.9c1-0.9,1.9-1.8,2.7-2.8
		c1.4-1.7,2.8-3.5,2.8-3.5l33.3,1.1c0,0,0.6,2.4,1,4.8c0.4,1.6,0.5,3.2,0.5,4.9c-0.2,1.2,0.2,2.4,0.9,3.4l0.6,5.5L1399.7,1292.1z"/>
	<path class="st1" d="M1469.4,1301.5c-0.4,1.6-0.9,4.5-1.1,5.9c-0.1,0.5-0.1,0.8-0.1,0.8s-2.7,5.9-17.7,8.1s-15-5-15-5
		s0.1-0.8,0.2-1.9c0.2-3.5,0.6-7,1.2-10.5c0.5-1.8-0.4-9.5-0.4-9.5l-0.2-8l-0.1-5.6l24.8-2.6c0.2,1.9,0.4,3.7,0.8,5.5
		c0.2,1,0.5,2,1.1,2.8c1.4,1.5,2.2,8.1,2.2,8.1S1470,1299.3,1469.4,1301.5z"/>
	<path class="st5" d="M1396.5,1271.7c0,0,0.6,2.4,1,4.8c-3.6,0.7-19.3,3.4-23.3,1.5c-4.5-2.2-14-3.4-14-3.4l0.2-0.5
		c1.5-1.7,2.8-3.5,2.8-3.5L1396.5,1271.7z"/>
	<path class="st5" d="M1461.9,1278.7c-6.3-1.1-20.1,1.5-25.5,2.6l-0.1-5.6l24.8-2.6C1461.2,1275,1461.5,1276.9,1461.9,1278.7z"/>
	<path class="st1" d="M1475.9,1074.2l-0.5,19c0,0,0.7,29-1.3,33.6s-2,23.1-2,23.1s1.3,8.8-0.1,10.7s-0.4,8.9,0.7,12.5
		s0.1,12.7,0.1,12.7l-0.3,51c0,0-1.5,13.2-3.4,15.1c-1.1,1.1-1.5,2.8-1.1,4.3c0,0-1.6,7.5-1.2,8.9c0.4,1.3,1.2,4.5-1.9,5.9
		s-2.3,6.2-2.3,6.2c-7.4-1.8-28.5,3-28.5,3c-2.3-4.7-4.3-9.5-5.9-14.4c-1.4-3.9,0.6-8.2,4.5-9.6c0.3-0.1,0.6-0.2,0.9-0.3
		c2.8-0.4-2-5.4-2-5.4s0.5-0.7-0.8-5.5s0.3-17.3,0.7-20.5c0.4-3.2,2.4-18.9,2.4-18.9s-1.1-19.8-0.3-20.6c0.8-0.8,3.5-8.6,2.2-11.2
		s-3.5-19.4-3.5-20.4s-1.8-22.8-1.8-22.8s-1.6-15.2-1.2-18.4c0.4-3.2-1.1-15.3-1.1-15.3c0-10-5.8-20.8-5.8-20.8l-0.2,0.4l-12.5,32.9
		c0,0-2,10-3.8,15.6c-1.1,3.9-2,7.8-2.6,11.7l-0.1,0.7c0,0.3-0.1,0.6-0.1,0.8l-0.1,0.5l0,0c0,0,0.9,7.2-0.5,9.4
		c-1.5,2.3-3.1,9.2-3.1,11.1s0.1,9.2,0.1,9.2s0.5,14.4-0.9,16c-0.9,0.7-1.2,2-0.7,3c0,0,2.4,10.9,1.3,13.8c-1.1,2.8-0.3,9.4-0.3,9.4
		s-2.2,20.9-2.4,22c-0.3,1.1-1.8,9.4-0.1,10.1c1.6,0.7,4.7,4.7,4.7,4.7s0.7,17.7-1.8,19c-2.4,1.3-1.1,8.2-1.1,8.2s-19.6,3.8-24,1.6
		c-4.4-2.2-14-3.4-14-3.4l1.3-4.4c-0.1,0.2-1,1.6-1.6-3.9c-0.7-5.8,5-3,5-3s4.4,1.1-2.7-5.9s-3.6-14.2-3.2-14.2s1.3-10.4,1.3-10.4
		s1.2-6.2,0.3-11.1s-1.8-20-1.8-20s0.7-11.5-0.5-15.7s0.8-11.7,1.2-13.5s-1.2-17.8-1.2-17.8s1.3-7.5,0.5-13.1
		c-0.8-5.5,0.8-25.9,0.8-25.9l2.4-23.5c0,0,1.8-7.3,1.5-10.3s2-13.3,2-13.3c-0.1-2.2,0.2-4.4,1.1-6.5c1.3-2.7,1.9-11.6,1.9-11.6
		l12.9-29.7l6.4-26.1l85.7-0.8c0,0,0.3,2.3,0.8,6.4s1.3,10.2,2.1,17.8c0.8,6.8,1.6,14.9,2.4,23.9
		C1481.3,1069.1,1475.9,1074.2,1475.9,1074.2z"/>
	<path class="st11" d="M1468,838l-20,21.3c0,0-25.6-10.3-22.9-13.8c1-1.4,0.9-5.6,0.3-10.4c-1-7.5-3-16.1-3-16.1s44.8-7.3,41,0.3
		c-1.4,2.8-1.1,6-0.3,9C1464.1,831.8,1465.8,835.1,1468,838z"/>
	<path class="st5" d="M1463.4,819.4c-1.4,2.8-2,3-1.2,6c-5.8,6.3-13.3,13.1-22.6,13.1c-5,0-9.9-1.2-14.3-3.4c-1-7.5-3-16.1-3-16.1
		S1467.2,811.8,1463.4,819.4z"/>
	<path class="st11" d="M1471.7,805.6c0,17.7-14.4,32.1-32.1,32.1s-32.1-14.4-32.1-32.1c0-0.2,0-0.3,0-0.5
		c0.4-17.7,15.1-31.8,32.8-31.4C1457.7,774.2,1471.6,788.3,1471.7,805.6L1471.7,805.6z"/>
	<path class="st5" d="M1476.4,1017.4c-4.3,0-18.4,0.2-34.2,0.4h-0.2l-5.2,0.1h-0.2c-18.8,0.3-37.3-3.4-44.7-2.7
		c-15.8,1.5,5.7-14.6,5.7-14.6c11.8,2.9,23.9,4.1,36,3.6l4.5-0.2c14.3-0.8,28.8-2.2,36.3-4.4
		C1474.9,1003.8,1475.6,1009.9,1476.4,1017.4z"/>
	<path class="st13" d="M1476.4,1016.6c-4.3,0-18.4,0.2-34.2,0.4h-0.2l-5.2,0.1h-0.2c-18.8,0.3-37.3-3.4-44.7-2.7
		c-15.8,1.5,5.7-14.6,5.7-14.6c11.8,2.9,23.9,4.1,36,3.6l4.5-0.2c14.3-0.8,28.8-2.2,36.3-4.4
		C1474.9,1003,1475.6,1009.1,1476.4,1016.6z"/>
	<path class="st5" d="M1431,846.9l-24.8,11.6l-19.2,148.1c0,0,11.3-5.1,17.8-1.9s26.4,0.3,26.4,0.3s14.6-0.8,16.7,0.8
		c2.2,1.6,27.5-6.8,27.5-6.8s4.6-10.3,1.1-11.9s1.1-17.5,1.1-17.5l-2.2-106.8l-4.3-13.8l-11.6-7l-11.9,9.4l-5.7,0.8L1431,846.9z"/>
	<path class="st12" d="M1431,845.3l-24.8,11.6L1387,1005c0,0,11.3-5.1,17.8-1.8s26.4,0.3,26.4,0.3s14.6-0.8,16.7,0.8
		c2.2,1.6,27.5-6.7,27.5-6.7s4.6-10.3,1.1-11.9s1.1-17.5,1.1-17.5l-2.2-106.8l-4.3-13.8l-11.6-7l-11.9,9.4l-5.7,0.8L1431,845.3z"/>
	<path class="st5" d="M1430.6,852.1c0,0,7.2,8.5,7,10.3s-0.4,5.9-0.4,5.9l-5.3,11c0,0-3,13.6-3,16.5c0,2.8-4.7,27.4-4.7,27.4
		l-5.7,37.8l-7.2,49.5l7.3,12.5l8.6-7.3l11.5-88.2l2.4-17.4c0,0,2.6-31.3,2.6-34.5s-1.5-11.7-1.5-11.7s1.8-8.1,9-10
		s-0.5-0.4-0.5-0.4l-4.2-3.4l-3.6,1.5C1442.9,851.5,1432.8,848.4,1430.6,852.1z"/>
	<path class="st1" d="M1429.8,851.4c0,0,7.2,8.5,7,10.3s-0.4,5.9-0.4,5.9l-5.4,10.9c0,0-3,13.6-3,16.5c0,2.8-4.7,27.4-4.7,27.4
		l-5.7,37.8l-7.2,49.5l7.3,12.6l8.6-7.3l11.5-88.2l2.4-17.4c0,0,2.6-31.3,2.6-34.5s-1.5-11.7-1.5-11.7s1.8-8.1,9-10
		s-0.5-0.4-0.5-0.4l-4.2-3.4l-3.6,1.5C1442,850.7,1431.9,847.6,1429.8,851.4z"/>
	<path class="st5" d="M1425.1,837.1c0,0-1.1,0.8-1.3,6.2c-0.3,5.4-4,17.5-4,17.5s14-9.7,21-8.6L1425.1,837.1z"/>
	<path class="st14" d="M1425.1,835.6c0,0-1.1,0.8-1.3,6.2c-0.3,5.4-4,17.5-4,17.5s14-9.7,21-8.6L1425.1,835.6z"/>
	<path class="st5" d="M1463.4,832.9l-22.1,19.4c0,0,18.6,11.1,21,13.8s4.9-26.4,4.9-26.4L1463.4,832.9z"/>
	<path class="st14" d="M1464.2,831.3l-22.1,19.4c0,0,18.6,11.1,21,13.8s4.9-26.4,4.9-26.4L1464.2,831.3z"/>
	<path class="st5" d="M1425.9,837.1c0,0-2.4-1.2-4.7,2.3c-1.7,2.3-4,4.1-6.6,5.1c0,0-24.6,3.9-25.5,7.2l-11.5,0.7c0,0-4.1,0.5-4.5,9
		s-2.6,9.3-2.6,9.3s-4.7,8.4-4.3,12.8s-3.6,6.5-3.6,6.5l16.9,43.8c0,0,0.5,18.1-2.6,24.7s-8.9,35.9-8.9,35.9s2.4-0.5,2.3,1.1
		s-3,19.3-3,19.3s-0.8,7-2.2,9.4c-1.3,2.4-1.5,15.1-1.5,15.1l-2.2,9.2c0,0,5.1,11.5,13,9.8s22-32.2,22-32.2l9-33l7-32.6l2-22.1
		l3.2-49l4.7-32.4C1422.5,856.9,1427.8,839.5,1425.9,837.1z"/>
	<path class="st1" d="M1425.1,835.6c0,0-2.4-1.2-4.7,2.3c-1.7,2.3-4,4.1-6.6,5.1c0,0-24.5,3.9-25.5,7.1l-11.5,0.7c0,0-4,0.5-4.4,9
		c-0.5,8.5-2.6,9.3-2.6,9.3s-4.7,8.4-4.3,12.7c0.4,4.3-3.6,6.5-3.6,6.5l16.9,43.8c0,0,0.5,18.1-2.6,24.7s-8.9,35.9-8.9,35.9
		s2.4-0.5,2.3,1.1s-3,19.3-3,19.3s-0.8,7-2.2,9.5c-1.4,2.5-1.5,15.1-1.5,15.1l-2.2,9.2c0,0,5.1,11.5,12.9,9.8
		c7.8-1.6,22-32.2,22-32.2l9-33l7-32.7l2-22.1l3.2-49l4.7-32.4C1421.6,855.3,1427,837.9,1425.1,835.6z"/>
	<path class="st5" d="M1338.5,940l-7.8,5.4c0,0-12,0.4-20.5-1.7l-4.4-1.9l-0.9-0.4l0.9,0.3c4.5,1.3,8,1.3,10.8,0.4
		c11.1-3.7,9.8-22,9.4-26.1c0-0.4-0.1-0.7-0.1-0.8l0,0c0,0,0,0.1,0.1,0.1c0.2,0.2,0.3,0.5,0.5,0.7s0.3,0.4,0.5,0.5l0,0l3.9,7.8
		c0,0,0,0.1,0,0.3L1338.5,940z"/>
	<path class="st1" d="M1365.6,887.2l-3.8,1.1l-0.5,7.7c0,0-4.5-0.7-5.7,4.6s-3.4,7.7-3.4,7.7s-7.4,6.2-7.8,11.5l-4.5,2.8
		c0,0-10.7-2.4-13.1-6.7c0,0,4.8,34.8-21,26.3c0,0,29,12.7,30.3,14.4s10.3,6.9,18.3,2.6s9.8-10.9,9.8-10.9s7.8-10.9,8.1-12.5
		s6.3-3.5,6.3-3.5l11.5-28L1365.6,887.2z"/>
	<path class="st5" d="M1460.3,849.1l3.9-17.8c0,0,1.8,5.8,3.5,7.1l5.8,4.5c0,0,5.8,2.7,7.8,2.7s12.9,2.8,14.3,4.3
		c1.3,1.5,6.8,0.4,6.8,0.4s4.5,1.5,8.4,2.4s5.8,7.4,5,10c-0.7,2.6,0,5.3,1.9,7.3c1.6,1.6,2.4,6.9,2.4,6.9c2,0.7,3.6,2.1,4.6,3.9
		c1.3,3,1,9.5,1,9.5l-20.1,28.3c0,0,0.3,10.9-0.5,13.4c-0.8,2.4,2.8,43.7,2.8,43.7l4.2,71c0,0-5.5,4.7-6.7,5.3s-2.4-25.1-2.4-26
		s-31.2-46.7-31.2-46.7s-4.2-6.7-4.2-8.2s-3.9-15.1-3.9-15.1l-5.9-26.3L1460.3,849.1z"/>
	<path class="st1" d="M1527.2,888.7c0,0.9,0,1.5,0,1.5l-20.1,28.3l0,0c0,0,0.3,10.9-0.5,13.4c-0.5,1.4,0.6,15.9,1.5,27.8
		c0.7,8.6,1.3,15.8,1.3,15.8l1.8,30.1l2.4,40.9c0,0-5.5,4.7-6.7,5.3s-2.4-25.1-2.4-26s-31.2-46.6-31.2-46.6s-4.2-6.8-4.2-8.2
		s-3.9-15.1-3.9-15.1l-5.9-26.3l2.7-80.4l2.3-17.8c0,0,3.4,5.8,5.1,7.1s5.8,4.5,5.8,4.5s5.8,2.7,7.8,2.7s13,2.8,14.3,4.3
		s6.8,0.4,6.8,0.4s4.4,1.5,8.4,2.4c3.9,0.9,5.8,7.4,5,10c-0.7,2.6,0,5.3,1.9,7.3c1.6,1.6,2.4,6.9,2.4,6.9c2,0.7,3.6,2.1,4.6,3.9
		C1527.2,882.8,1527.3,886.5,1527.2,888.7z"/>
	<path class="st5" d="M1362.3,1248.1c0.7,0,29,1.1,28.5,5.7C1390.3,1258.3,1362.3,1248.1,1362.3,1248.1z"/>
	<path class="st5" d="M1368.7,1255.8c0,0,19,3.1,14,5.9C1377.7,1264.5,1368.7,1255.8,1368.7,1255.8z"/>
	<path class="st5" d="M1439.4,1245.1c0,0,31.6,2.7,26.8,6.2c-4.7,3.5-15.9,4.1-16.5,4.2S1439.4,1245.1,1439.4,1245.1z"/>
	<path class="st5" d="M1435.6,1259c0,0,17.5,3,18.1,6.3C1454.2,1268.7,1435.6,1259,1435.6,1259z"/>
	<path class="st5" d="M1445.3,1177.8c0,0,16,3.8,17,6.3L1445.3,1177.8z"/>
	<path class="st5" d="M1383.4,1189.4c0,0-8.4,2.4-0.3,7.3C1391.2,1201.5,1383.4,1189.4,1383.4,1189.4z"/>
	<path class="st5" d="M1420.5,1059.8c0.9,0,15.6-4.9,20.8-2.7c3.7,1.4,7.6,2.1,11.5,2.2L1420.5,1059.8z"/>
	<path class="st5" d="M1422.4,1075.1l-0.2,1.3l-12.5,32.9c0,0-2,10-3.8,15.6c-1.1,3.9-2,7.8-2.6,11.7l11.1-69L1422.4,1075.1z"/>
	<path class="st1" d="M1442,1017l-5.2,0.1h-0.2l-3.1-13.6l4.5-0.2L1442,1017z"/>
	<path class="st11" d="M1505.6,1000.5l-3.3,2.8l-11.2,9.2c0,0-30.4,16.2-38.7,0.8c-7.4-13.5,27-23.2,35.3-25.3l1.8-0.4
		L1505.6,1000.5z"/>
	<path class="st5" d="M1376,867.9c0,0,5.9,2.7,7.3,6.5C1384.6,878.2,1376,867.9,1376,867.9z"/>
	<path class="st5" d="M1357.6,908.4c0,0-8.6,10.5-5.1,14.6C1356,927,1357.6,908.4,1357.6,908.4z"/>
	<path class="st5" d="M1511.9,873.9c0,0-8.1,0.8-8.4,7.8L1511.9,873.9z"/>
	<path class="st5" d="M1436.9,984.5c0.8-0.8,19.4-28.3,23.7-25.9L1436.9,984.5z"/>
	<path class="st5" d="M1471.7,805.6c0,5.3-1.3,10.5-3.8,15.2h-0.2c-2-0.4-3.1-2.8-4.7-4.3c-2-1.9-4.9-2.3-7.3-1
		c-2.4,1.4-3.8,4.1-3.6,6.9c-1-4.3-0.7-8.9-1.7-13.2s-4-8.7-8.2-8.8c-1.8,0-3.9,0.7-5.2-0.7c-0.8-0.8-0.9-2.1-1.5-3
		c-3-4.8-11.9-2.4-15.6,0.1s-7.9,6.4-12.5,8.5c0.4-17.7,15.1-31.8,32.8-31.4C1457.7,774.3,1471.6,788.3,1471.7,805.6L1471.7,805.6z"
		/>
	<path class="st1" d="M1435.7,795.8c0.6,1,0.7,2.3,1.5,3c1.3,1.3,3.4,0.7,5.2,0.7c4.1,0.1,7.2,4.5,8.2,8.8s0.7,8.9,1.7,13.3
		c-0.2-2.8,1.2-5.5,3.6-6.9c2.4-1.3,5.3-0.8,7.3,1c1.6,1.5,2.6,3.9,4.7,4.3c2,0.4,4-1.5,4.7-3.7s0.7-4.5,1.2-6.7
		c0.9-4.2,3.7-7.7,5.2-11.7c1.8-4.9,1.8-10.2-0.1-15.1c-1-2.5-2.5-4.8-3.5-7.3c-1.6-3.9-2-8.2-3.8-11.9c-3.2-6.1-10.7-9.2-16.8-6.9
		c-2.9,1.1-5.5,3.2-8.5,4.2c-4,1.3-8.3,0.3-12.4-0.3s-8.7-0.6-12,2.1c-3.8,3.1-4.9,9-8.5,12.4c-1.5,1.4-3.4,2.4-5,3.7
		s-3,3.3-2.8,5.5c0.2,2.8,3,5.3,2,7.9c-0.4,0.8-0.9,1.4-1.5,2c-3,3.1-5.2,7-6.5,11.1c7.2,2.3,15-5.7,20.7-9.5
		C1423.7,793.4,1432.7,791,1435.7,795.8z"/>
	<path class="st5" d="M1505.6,1000.5l-3.3,2.8c-3-4.9-15.1-14.8-15.1-14.8l0.5-0.5l1.8-0.4L1505.6,1000.5z"/>
	<path class="st12" d="M1508.9,995.6c0,0-1.2,3-2.5,5.6s-2.6,5-2.7,3c-0.1-3.8-15.8-16.5-15.8-16.5l2.1-2.1l2.5-2.4L1508.9,995.6z"
		/>
	<path class="st5" d="M1509.4,975.6l1.8,30.1c-4.2-6.5-15.7-23.2-23.1-22.7l17.9-20.6c0.7-0.8,1.4-1.7,2-2.6
		C1508.7,968.3,1509.4,975.6,1509.4,975.6z"/>
	<path class="st5" d="M1508.9,995.6c0,0-1.2,3-2.5,5.6c-4.7-6.5-11.2-14.1-16.3-15.5l2.5-2.4L1508.9,995.6z"/>
	<path class="st1" d="M1522.3,886.4l4.9,3.8c0,0,8.1,0.1,8.9,6.9s8.2,9.8,8.2,9.8s5.5,5.5,5.5,8.1s4.2,7.2,4.2,7.5
		c0,0.4,4,8.6,3.5,10.1s4.3,8,2.8,10.4c-1.2,2.2-2.3,4.4-3.2,6.8c0,0-6.3,12.1-9.6,14.4s-18.1,21.6-18.1,21.6s-15.9,18.3-15.9,24
		c0,0-15.5-25.9-24.7-25.2l18-20.6c0,0,3.1-3.4,3.2-5.4s8.6-11.3,12.7-11.7c0,0,0.7-5.5-1.1-5.7s-3.2-4.5-3.2-4.5s-11.9-14-12-22.9
		S1522.3,886.4,1522.3,886.4z"/>
	<path class="st5" d="M1529.5,899.2c0,0-11.3,8.4-8.9,11.1S1529.5,899.2,1529.5,899.2z"/>
	<path class="st5" d="M1530,933.8c0,0,21-6.8,23.2,0H1530z"/>
	<path class="st5" d="M1399.7,1292.1c0,0-11.3,7.4-17,6.3s-11.5,1.9-11.5,1.9c-3.9,4.3-8.8,7.5-14.3,9.3c-9.2,3.1-22,1.9-29.3-0.6
		c-3.4-1.2-3.7-2.6-2.1-4.5c7.9,1.6,25.6,4.7,30.4,2.4c6.2-3,15.1-9.4,15.1-9.4s11.6-1.5,13.2-1.5c1.2,0,10.1-3.7,15.2-5.8
		L1399.7,1292.1z"/>
	<path class="st5" d="M1468.3,1307.4c-0.1,0.5-0.1,0.8-0.1,0.8s-2.7,5.9-17.7,8.1s-15-5-15-5s0.1-0.8,0.2-1.9
		C1440.5,1311.1,1450.9,1313.1,1468.3,1307.4z"/>
	<path class="st5" d="M1381.6,897.6c0,0,0,30.8-2.6,33.8S1381.6,897.6,1381.6,897.6z"/>
	<path class="st5" d="M1503.2,907.5l3.9,11C1507.1,918.5,1508.6,907.7,1503.2,907.5z"/>
	<g class="st15">
		<path d="M1407.8,789.6c1-2.5-1.6-5-1.9-7.7c-0.3,0.8-0.5,1.6-0.4,2.4c0.2,2,1.7,4,2.1,5.8C1407.6,790,1407.7,789.8,1407.8,789.6z"
			/>
		<path d="M1452.6,818.7c-1-4.3-0.7-8.8-1.7-13s-4-8.7-8.2-8.8c-1.8,0-3.9,0.7-5.2-0.7c-0.8-0.8-0.9-2.1-1.5-3
			c-3-4.8-11.9-2.4-15.6,0.1c-5.5,3.7-13.1,11.3-20.2,9.6c-0.3,0.8-0.7,1.6-0.9,2.5c7.2,2.3,15-5.7,20.7-9.5
			c3.7-2.5,12.7-4.9,15.6-0.1c0.6,1,0.7,2.3,1.5,3c1.3,1.3,3.4,0.7,5.2,0.7c4.1,0.1,7.2,4.5,8.2,8.8s0.7,8.9,1.7,13.3
			C1452.1,820.6,1452.3,819.6,1452.6,818.7z"/>
		<path d="M1472.9,813.6c-0.7,2.1-2.7,4.1-4.7,3.7c-2.1-0.4-3.1-2.8-4.6-4.3c-2-1.8-4.9-2.3-7.3-1c-2.3,1.4-3.7,3.9-3.6,6.5
			c0.5-1.6,1.7-3,3.2-3.9c2.4-1.3,5.3-0.8,7.3,1c1.6,1.5,2.6,3.9,4.7,4.3c2,0.4,4-1.5,4.7-3.7c0.4-1.3,0.6-2.6,0.7-3.9
			C1473.1,812.8,1473,813.2,1472.9,813.6z"/>
		<path d="M1479.2,795.2c-1.5,4-4.3,7.5-5.2,11.7c-0.2,0.9-0.3,1.7-0.4,2.6c0.9-4.2,3.7-7.6,5.2-11.6c0.7-1.8,1.1-3.7,1.3-5.6
			C1479.8,793.3,1479.5,794.3,1479.2,795.2z"/>
	</g>
</g>
<g>
	<rect x="916.9" y="635.2" class="st7" width="325.8" height="27.2"/>
	<rect x="916.9" y="635.2" class="st8" width="376.6" height="27.2"/>
</g>
<g>
	<rect x="916.9" y="761.2" class="st7" width="354.9" height="27.2"/>
	<rect x="916.9" y="761.2" class="st8" width="376.6" height="27.2"/>
</g>
</svg>
