<?xml version="1.0" encoding="utf-8"?>
<!-- Generator: Adobe Illustrator 25.0.0, SVG Export Plug-In . SVG Version: 6.00 Build 0)  -->
<svg version="1.1" id="Camada_1" xmlns="http://www.w3.org/2000/svg" xmlns:xlink="http://www.w3.org/1999/xlink" x="0px" y="0px"
	 viewBox="0 0 535.5 155.6" style="enable-background:new 0 0 535.5 155.6;" xml:space="preserve">
<style type="text/css">
	.st0{fill:#E5E1E6;}
	.st1{fill:#E4002B;}
</style>
<g>
	<g>
		<path class="st0" d="M154.7,126.9h1.1v4.3c1.3-0.3,2.4-0.5,3.3-0.5c3.2,0,4.8,1.7,4.8,5.1c0,3.7-1.7,5.5-5.1,5.5
			c-1.5,0-2.9-0.1-4.1-0.4V126.9z M155.7,140.1c1.1,0.2,2.1,0.3,2.9,0.3c2.8,0,4.1-1.5,4.1-4.6c0-2.7-1.3-4-3.8-4
			c-1,0-2.1,0.2-3.3,0.5L155.7,140.1L155.7,140.1z"/>
		<path class="st0" d="M178.6,130.7v10.6h-0.8l-0.1-1.4c-1.2,0.9-2.6,1.4-4.1,1.4c-2.5,0-3.8-1.3-3.8-3.9v-6.6h1.1v6.7
			c0,2,0.9,3,2.7,3c1.3,0,2.6-0.4,3.9-1.3v-8.3L178.6,130.7L178.6,130.7z"/>
		<path class="st0" d="M184.9,140.8v-1c1.2,0.4,2.3,0.6,3.5,0.6c2.2,0,3.3-0.7,3.3-2.1c0-1.1-0.8-1.7-2.5-1.7h-1.4
			c-2.2,0-3.3-0.9-3.3-2.8c0-2,1.5-3,4.4-3c1.1,0,2.3,0.2,3.5,0.5v1c-1.2-0.4-2.3-0.6-3.5-0.6c-2.2,0-3.4,0.7-3.4,2.1
			c0,1.2,0.8,1.8,2.3,1.8h1.4c2.4,0,3.5,0.9,3.5,2.7c0,2-1.5,3-4.4,3C187.3,141.3,186.1,141.2,184.9,140.8z"/>
		<path class="st0" d="M200.2,126.9v1.2h-1.3v-1.2H200.2z M200.1,130.7v10.6H199v-10.6H200.1z"/>
		<path class="st0" d="M206.8,141.3v-10.6h0.8l0.1,1.4c1.4-0.9,2.7-1.4,4-1.4c2.6,0,3.9,1.1,3.9,3.3v7.3h-1.1v-7.3
			c0-1.6-0.9-2.4-2.9-2.4c-1.3,0-2.5,0.4-3.8,1.3v8.3H206.8z"/>
		<path class="st0" d="M226.3,130.7c2.9,0,4.4,1.6,4.4,4.8c0,0.2,0,0.5,0,0.7h-8c0,2.8,1.5,4.2,4.4,4.2c1.2,0,2.3-0.2,3.2-0.5v0.9
			c-0.9,0.3-2,0.5-3.2,0.5c-3.6,0-5.5-1.8-5.5-5.4C221.6,132.5,223.2,130.7,226.3,130.7z M222.6,135.3h7c0-2.5-1.1-3.7-3.3-3.7
			C224,131.6,222.8,132.9,222.6,135.3z"/>
		<path class="st0" d="M236.5,140.8v-1c1.2,0.4,2.3,0.6,3.5,0.6c2.2,0,3.3-0.7,3.3-2.1c0-1.1-0.8-1.7-2.5-1.7h-1.4
			c-2.2,0-3.3-0.9-3.3-2.8c0-2,1.5-3,4.4-3c1.1,0,2.3,0.2,3.5,0.5v1c-1.2-0.4-2.3-0.6-3.5-0.6c-2.2,0-3.4,0.7-3.4,2.1
			c0,1.2,0.8,1.8,2.3,1.8h1.4c2.4,0,3.5,0.9,3.5,2.7c0,2-1.5,3-4.4,3C238.9,141.3,237.7,141.2,236.5,140.8z"/>
		<path class="st0" d="M250.2,140.8v-1c1.2,0.4,2.3,0.6,3.5,0.6c2.2,0,3.3-0.7,3.3-2.1c0-1.1-0.8-1.7-2.5-1.7h-1.4
			c-2.2,0-3.3-0.9-3.3-2.8c0-2,1.5-3,4.4-3c1.1,0,2.3,0.2,3.5,0.5v1c-1.2-0.4-2.3-0.6-3.5-0.6c-2.2,0-3.4,0.7-3.4,2.1
			c0,1.2,0.8,1.8,2.3,1.8h1.4c2.4,0,3.5,0.9,3.5,2.7c0,2-1.5,3-4.4,3C252.5,141.3,251.4,141.2,250.2,140.8z"/>
		<path class="st0" d="M272.3,140.8v-1c1.2,0.4,2.3,0.6,3.5,0.6c2.2,0,3.3-0.7,3.3-2.1c0-1.1-0.8-1.7-2.5-1.7h-1.4
			c-2.2,0-3.3-0.9-3.3-2.8c0-2,1.5-3,4.4-3c1.1,0,2.3,0.2,3.5,0.5v1c-1.2-0.4-2.3-0.6-3.5-0.6c-2.2,0-3.4,0.7-3.4,2.1
			c0,1.2,0.8,1.8,2.3,1.8h1.4c2.4,0,3.5,0.9,3.5,2.7c0,2-1.5,3-4.4,3C274.6,141.3,273.4,141.2,272.3,140.8z"/>
		<path class="st0" d="M285.6,136c0-3.6,1.6-5.4,4.9-5.4s4.9,1.8,4.9,5.4c0,3.6-1.6,5.4-4.9,5.4C287.3,141.4,285.7,139.6,285.6,136z
			 M290.6,140.5c2.6,0,3.9-1.5,3.9-4.5c0-3-1.3-4.4-3.9-4.4s-3.9,1.5-3.9,4.4C286.7,139,288,140.5,290.6,140.5z"/>
		<path class="st0" d="M302.8,126.9v14.4h-1.1v-14.4H302.8z"/>
		<path class="st0" d="M318.3,130.7v10.6h-0.8l-0.1-1.4c-1.2,0.9-2.6,1.4-4.1,1.4c-2.5,0-3.8-1.3-3.8-3.9v-6.6h1.1v6.7
			c0,2,0.9,3,2.7,3c1.3,0,2.6-0.4,3.9-1.3v-8.3L318.3,130.7L318.3,130.7z"/>
		<path class="st0" d="M324.8,129h0.8l0.2,1.7h3.2v0.9h-3.1v6.7c0,1.4,0.5,2.1,1.5,2.1h1.5v0.9h-1.5c-1.7,0-2.6-0.9-2.6-2.9V129z"/>
		<path class="st0" d="M335.8,126.9v1.2h-1.3v-1.2H335.8z M335.7,130.7v10.6h-1.1v-10.6H335.7z"/>
		<path class="st0" d="M341.9,136c0-3.6,1.6-5.4,4.9-5.4s4.9,1.8,4.9,5.4c0,3.6-1.6,5.4-4.9,5.4C343.6,141.4,342,139.6,341.9,136z
			 M346.9,140.5c2.6,0,3.9-1.5,3.9-4.5c0-3-1.3-4.4-3.9-4.4S343,133,343,136C343,139,344.3,140.5,346.9,140.5z"/>
		<path class="st0" d="M357.9,141.3v-10.6h0.8l0.1,1.4c1.4-0.9,2.7-1.4,4-1.4c2.6,0,3.9,1.1,3.9,3.3v7.3h-1.1v-7.3
			c0-1.6-1-2.4-2.9-2.4c-1.3,0-2.5,0.4-3.8,1.3v8.3H357.9z"/>
		<path class="st0" d="M372.9,140.8v-1c1.2,0.4,2.3,0.6,3.5,0.6c2.2,0,3.3-0.7,3.3-2.1c0-1.1-0.8-1.7-2.5-1.7h-1.4
			c-2.2,0-3.3-0.9-3.3-2.8c0-2,1.5-3,4.4-3c1.1,0,2.3,0.2,3.5,0.5v1c-1.2-0.4-2.3-0.6-3.5-0.6c-2.2,0-3.4,0.7-3.4,2.1
			c0,1.2,0.8,1.8,2.3,1.8h1.4c2.4,0,3.5,0.9,3.5,2.7c0,2-1.5,3-4.4,3C375.2,141.3,374.1,141.2,372.9,140.8z"/>
	</g>
	<g>
		<g>
			<path class="st0" d="M96.5,29.2v67.3h-6.7V29.2H96.5z"/>
			<path class="st0" d="M118.3,96.5V29.2h4.8l0.7,8.5c6.9-5.6,14.3-8.5,22.4-8.5c10.6,0,17.5,3.1,20.6,9.2
				c7.7-6.2,15.6-9.2,23.5-9.2c15.1,0,22.6,7.5,22.6,22.4v44.9h-6.7V51.5c0-10.9-5.3-16.3-15.9-16.3c-8.5,0-15.4,2.9-21,8.7v52.6
				h-6.7v-46c0-10.2-5.5-15.3-16.4-15.3c-7.9,0-15,2.9-21.1,8.7v52.6H118.3z"/>
			<path class="st0" d="M233.4,31.9c7.6-1.8,16.2-2.8,25.8-2.8c21.6,0,32.4,10.7,32.4,32c0,23.6-10.9,35.3-32.6,35.3
				c-5.4,0-11.7-1.1-18.9-3.2v25.6h-6.7L233.4,31.9L233.4,31.9z M240.1,86.6c6.8,2.3,13.1,3.5,18.8,3.5c17.4,0,26.1-9.7,26.1-29
				c0-17.2-8.7-25.8-26-25.8c-6,0-12.3,0.5-18.9,1.5L240.1,86.6L240.1,86.6z"/>
			<path class="st0" d="M364.3,29.2v67.3h-4.9l-0.8-8.6c-7.7,5.7-16.4,8.6-25.9,8.6c-15.9,0-23.9-8.4-23.9-25.1V29.2h6.7v42.4
				c0,12.6,5.8,18.8,17.4,18.8c8.5,0,16.7-2.8,24.6-8.5V29.2H364.3z"/>
			<path class="st0" d="M392.9,6.7v89.8h-6.7V6.7C386.1,6.7,392.9,6.7,392.9,6.7z"/>
			<path class="st0" d="M413.4,93.3v-6.4c7.5,2.6,14.8,3.8,22.1,3.8c14.1,0,21.2-4.5,21.2-13.5c0-7.3-5.2-10.9-15.7-10.9h-8.6
				c-14.1,0-21.2-6-21.2-18c0-12.8,9.3-19.2,28-19.2c7.2,0,14.5,1.1,22,3.2v6.4c-7.5-2.6-14.8-3.8-22-3.8
				c-14.2,0-21.3,4.5-21.3,13.5c0,7.7,4.8,11.5,14.4,11.5h8.6c15,0,22.4,5.8,22.4,17.3c0,12.8-9.3,19.2-28,19.2
				C428.2,96.5,420.9,95.4,413.4,93.3z"/>
			<path class="st0" d="M507.8,29.2c18.4,0,27.6,10.2,27.6,30.6c0,1.5,0,3-0.1,4.6h-51.1c0,17.6,9.3,26.4,28,26.4
				c7.7,0,14.5-1.1,20.4-3.2v5.8c-5.9,2.1-12.7,3.2-20.4,3.2c-23.1,0-34.7-11.5-34.7-34.4C477.5,40.1,487.6,29.2,507.8,29.2z
				 M484.3,58.3H529c-0.3-15.6-7.3-23.5-21.2-23.5C492.9,34.8,485,42.6,484.3,58.3z"/>
		</g>
		<g>
			<rect x="89.8" y="0" class="st1" width="6.7" height="6.7"/>
			<g>
				<g>
					<rect x="3.4" y="86.4" class="st1" width="6.7" height="6.7"/>
					<polygon class="st1" points="77.4,19.1 67.3,31.5 53.9,48.2 37,69 37,93.1 26.2,82.3 20.2,89.8 16.8,79.7 6.7,76.3 14.2,70.3 
						3.4,59.5 27.5,59.5 48.3,42.6 64.9,29.2 					"/>
				</g>
				<g>
					<polygon class="st1" points="62.8,29.2 46.2,42.6 13.5,42.6 0,56.1 0,29.2 					"/>
					<polygon class="st1" points="67.3,33.7 67.3,96.5 40.4,96.5 53.9,83 53.9,50.3 					"/>
				</g>
			</g>
		</g>
	</g>
</g>
</svg>
