<?xml version="1.0" encoding="utf-8"?>
<!-- Generator: Adobe Illustrator 24.0.2, SVG Export Plug-In . SVG Version: 6.00 Build 0)  -->
<svg version="1.1" id="Camada_1" xmlns="http://www.w3.org/2000/svg" xmlns:xlink="http://www.w3.org/1999/xlink" x="0px" y="0px"
	 viewBox="0 0 379.94 247.18" style="enable-background:new 0 0 379.94 247.18;" xml:space="preserve">
<style type="text/css">
	.st0{fill:#101820;}
	.st1{fill:#E4002B;}
</style>
<g>
	<g>
		<g>
			<g>
				<path class="st0" d="M93.61,234.81h0.9v3.7c1.08-0.29,2.01-0.43,2.79-0.43c2.74,0,4.11,1.44,4.11,4.33
					c0,3.13-1.44,4.69-4.32,4.69c-1.3,0-2.46-0.12-3.48-0.37V234.81z M94.51,246.05c0.92,0.17,1.76,0.25,2.5,0.25
					c2.35,0,3.53-1.32,3.53-3.95c0-2.28-1.08-3.41-3.24-3.41c-0.83,0-1.75,0.15-2.79,0.46V246.05z"/>
				<path class="st0" d="M113.99,238.08v9.03h-0.66l-0.1-1.15c-1.04,0.77-2.19,1.15-3.47,1.15c-2.13,0-3.2-1.12-3.2-3.36v-5.67h0.9
					v5.69c0,1.69,0.78,2.53,2.34,2.53c1.14,0,2.24-0.38,3.29-1.14v-7.08H113.99z"/>
				<path class="st0" d="M119.39,246.68v-0.86c1,0.34,1.99,0.52,2.96,0.52c1.9,0,2.85-0.6,2.85-1.81c0-0.97-0.7-1.46-2.11-1.46
					h-1.15c-1.89,0-2.84-0.8-2.84-2.41c0-1.72,1.25-2.58,3.76-2.58c0.96,0,1.95,0.14,2.95,0.43v0.86c-1-0.34-1.99-0.52-2.95-0.52
					c-1.9,0-2.85,0.6-2.85,1.81c0,1.03,0.64,1.55,1.93,1.55h1.15c2.01,0,3.01,0.77,3.01,2.32c0,1.72-1.25,2.58-3.75,2.58
					C121.38,247.11,120.39,246.96,119.39,246.68z"/>
				<path class="st0" d="M132.4,234.81v1.03h-1.07v-1.03H132.4z M132.31,238.08v9.03h-0.9v-9.03H132.31z"/>
				<path class="st0" d="M138.05,247.11v-9.03h0.64l0.11,1.15c1.15-0.77,2.28-1.15,3.39-1.15c2.19,0,3.29,0.95,3.29,2.85v6.18h-0.9
					v-6.21c0-1.34-0.81-2.01-2.43-2.01c-1.08,0-2.15,0.38-3.2,1.14v7.08H138.05z"/>
				<path class="st0" d="M154.69,238.08c2.47,0,3.71,1.37,3.71,4.1c0,0.2-0.01,0.4-0.02,0.61h-6.85c0,2.36,1.25,3.54,3.75,3.54
					c1.03,0,1.94-0.14,2.73-0.43v0.77c-0.8,0.29-1.71,0.43-2.73,0.43c-3.1,0-4.65-1.54-4.65-4.62
					C150.63,239.55,151.98,238.08,154.69,238.08z M151.53,241.98h6c-0.03-2.1-0.98-3.15-2.84-3.15
					C152.69,238.83,151.63,239.88,151.53,241.98z"/>
				<path class="st0" d="M163.37,246.68v-0.86c1,0.34,1.99,0.52,2.96,0.52c1.9,0,2.85-0.6,2.85-1.81c0-0.97-0.7-1.46-2.11-1.46
					h-1.15c-1.89,0-2.84-0.8-2.84-2.41c0-1.72,1.25-2.58,3.76-2.58c0.96,0,1.95,0.14,2.95,0.43v0.86c-1-0.34-1.99-0.52-2.95-0.52
					c-1.9,0-2.85,0.6-2.85,1.81c0,1.03,0.64,1.55,1.93,1.55h1.15c2.01,0,3.01,0.77,3.01,2.32c0,1.72-1.25,2.58-3.75,2.58
					C165.36,247.11,164.37,246.96,163.37,246.68z"/>
				<path class="st0" d="M175.04,246.68v-0.86c1,0.34,1.99,0.52,2.96,0.52c1.9,0,2.85-0.6,2.85-1.81c0-0.97-0.7-1.46-2.11-1.46
					h-1.15c-1.89,0-2.84-0.8-2.84-2.41c0-1.72,1.25-2.58,3.76-2.58c0.96,0,1.95,0.14,2.95,0.43v0.86c-1-0.34-1.99-0.52-2.95-0.52
					c-1.9,0-2.85,0.6-2.85,1.81c0,1.03,0.64,1.55,1.93,1.55h1.15c2.01,0,3.01,0.77,3.01,2.32c0,1.72-1.25,2.58-3.75,2.58
					C177.03,247.11,176.04,246.96,175.04,246.68z"/>
				<path class="st0" d="M193.83,246.68v-0.86c1,0.34,1.99,0.52,2.96,0.52c1.9,0,2.85-0.6,2.85-1.81c0-0.97-0.7-1.46-2.11-1.46
					h-1.15c-1.89,0-2.84-0.8-2.84-2.41c0-1.72,1.25-2.58,3.76-2.58c0.96,0,1.95,0.14,2.95,0.43v0.86c-1-0.34-1.99-0.52-2.95-0.52
					c-1.9,0-2.85,0.6-2.85,1.81c0,1.03,0.64,1.55,1.93,1.55h1.15c2.01,0,3.01,0.77,3.01,2.32c0,1.72-1.25,2.58-3.75,2.58
					C195.82,247.11,194.83,246.96,193.83,246.68z"/>
				<path class="st0" d="M205.25,242.59c0-3.07,1.4-4.6,4.21-4.6s4.21,1.53,4.21,4.6c0,3.06-1.4,4.59-4.21,4.59
					C206.66,247.18,205.26,245.65,205.25,242.59z M209.46,246.42c2.21,0,3.31-1.29,3.31-3.86c0-2.53-1.1-3.79-3.31-3.79
					s-3.31,1.26-3.31,3.79C206.15,245.13,207.25,246.42,209.46,246.42z"/>
				<path class="st0" d="M219.88,234.81v12.3h-0.9v-12.3H219.88z"/>
				<path class="st0" d="M233.06,238.08v9.03h-0.66l-0.1-1.15c-1.04,0.77-2.19,1.15-3.47,1.15c-2.13,0-3.2-1.12-3.2-3.36v-5.67h0.9
					v5.69c0,1.69,0.78,2.53,2.34,2.53c1.14,0,2.24-0.38,3.29-1.14v-7.08H233.06z"/>
				<path class="st0" d="M238.6,236.62h0.64l0.16,1.46h2.71v0.77h-2.63v5.7c0,1.19,0.44,1.78,1.31,1.78h1.32v0.77h-1.31
					c-1.47,0-2.2-0.81-2.2-2.43V236.62z"/>
				<path class="st0" d="M248,234.81v1.03h-1.07v-1.03H248z M247.92,238.08v9.03h-0.9v-9.03H247.92z"/>
				<path class="st0" d="M253.23,242.59c0-3.07,1.4-4.6,4.21-4.6s4.21,1.53,4.21,4.6c0,3.06-1.4,4.59-4.21,4.59
					C254.64,247.18,253.24,245.65,253.23,242.59z M257.44,246.42c2.21,0,3.31-1.29,3.31-3.86c0-2.53-1.1-3.79-3.31-3.79
					c-2.21,0-3.31,1.26-3.31,3.79C254.13,245.13,255.23,246.42,257.44,246.42z"/>
				<path class="st0" d="M266.79,247.11v-9.03h0.64l0.11,1.15c1.15-0.77,2.28-1.15,3.39-1.15c2.19,0,3.29,0.95,3.29,2.85v6.18h-0.9
					v-6.21c0-1.34-0.81-2.01-2.43-2.01c-1.08,0-2.15,0.38-3.2,1.14v7.08H266.79z"/>
				<path class="st0" d="M279.62,246.68v-0.86c1,0.34,1.99,0.52,2.96,0.52c1.9,0,2.85-0.6,2.85-1.81c0-0.97-0.7-1.46-2.11-1.46
					h-1.15c-1.89,0-2.84-0.8-2.84-2.41c0-1.72,1.25-2.58,3.76-2.58c0.96,0,1.95,0.14,2.95,0.43v0.86c-1-0.34-1.99-0.52-2.95-0.52
					c-1.9,0-2.85,0.6-2.85,1.81c0,1.03,0.64,1.55,1.93,1.55h1.15c2.01,0,3.01,0.77,3.01,2.32c0,1.72-1.25,2.58-3.75,2.58
					C281.61,247.11,280.63,246.96,279.62,246.68z"/>
			</g>
			<g>
				<path class="st0" d="M5.74,151.49v57.39H0v-57.39H5.74z"/>
				<path class="st0" d="M24.33,208.88v-57.39h4.1l0.6,7.22c5.87-4.81,12.23-7.22,19.08-7.22c9.04,0,14.88,2.62,17.54,7.87
					c6.59-5.25,13.28-7.87,20.06-7.87c12.83,0,19.24,6.36,19.24,19.08v38.32h-5.74v-38.32c0-9.29-4.52-13.94-13.56-13.94
					c-7.22,0-13.17,2.48-17.87,7.43v44.82h-5.74v-39.25c0-8.67-4.67-13.01-13.99-13.01c-6.78,0-12.77,2.48-17.98,7.43v44.82H24.33z"
					/>
				<path class="st0" d="M122.44,153.84c6.52-1.57,13.85-2.35,21.97-2.35c18.4,0,27.6,9.09,27.6,27.27
					c0,20.08-9.26,30.12-27.77,30.12c-4.59,0-9.95-0.91-16.07-2.73v21.85h-5.74V153.84z M128.18,200.46
					c5.8,1.97,11.13,2.95,16.02,2.95c14.83,0,22.25-8.25,22.25-24.76c0-14.69-7.38-22.03-22.14-22.03c-5.1,0-10.48,0.44-16.13,1.31
					V200.46z"/>
				<path class="st0" d="M234.05,151.49v57.39h-4.21l-0.66-7.32c-6.6,4.88-13.96,7.32-22.08,7.32c-13.56,0-20.33-7.12-20.33-21.37
					v-36.02h5.74v36.18c0,10.71,4.96,16.07,14.87,16.07c7.25,0,14.23-2.42,20.94-7.27v-44.98H234.05z"/>
				<path class="st0" d="M258.37,132.37l0,76.5h-5.74l0-76.5H258.37z"/>
				<path class="st0" d="M275.87,206.15v-5.47c6.38,2.19,12.64,3.28,18.8,3.28c12.06,0,18.09-3.83,18.09-11.48
					c0-6.19-4.46-9.29-13.39-9.29h-7.32c-12.02,0-18.04-5.1-18.04-15.3c0-10.93,7.96-16.4,23.89-16.4c6.12,0,12.37,0.91,18.75,2.73
					v5.47c-6.38-2.19-12.63-3.28-18.75-3.28c-12.1,0-18.15,3.83-18.15,11.48c0,6.56,4.1,9.84,12.3,9.84h7.32
					c12.75,0,19.13,4.92,19.13,14.76c0,10.93-7.94,16.4-23.83,16.4C288.51,208.88,282.24,207.97,275.87,206.15z"/>
				<path class="st0" d="M356.38,151.49c15.7,0,23.56,8.69,23.56,26.07c0,1.24-0.04,2.53-0.11,3.88h-43.56
					c0,15.01,7.94,22.52,23.83,22.52c6.52,0,12.32-0.91,17.38-2.73v4.92c-5.06,1.82-10.86,2.73-17.38,2.73
					c-19.71,0-29.57-9.78-29.57-29.35C330.53,160.83,339.14,151.49,356.38,151.49z M336.27,176.3h38.15
					c-0.22-13.34-6.23-20.01-18.04-20.01C343.63,156.3,336.92,162.96,336.27,176.3z"/>
			</g>
		</g>
		<rect x="0" y="126.64" class="st0" width="5.74" height="5.74"/>
	</g>
	<g>
		<rect x="244.45" y="0" class="st1" width="8.84" height="8.84"/>
		<g>
			<g>
				<rect x="131.07" y="113.38" class="st1" width="8.84" height="8.84"/>
				<polygon class="st1" points="228.28,25 215.03,41.38 197.35,63.22 175.26,90.51 175.26,122.22 161.07,108.04 153.16,117.8 
					148.74,104.55 135.48,100.13 145.25,92.22 131.07,78.03 162.78,78.03 190.07,55.94 211.91,38.26 				"/>
			</g>
			<g>
				<polygon class="st1" points="209.1,38.26 187.27,55.94 144.32,55.94 126.65,73.61 126.65,38.26 				"/>
				<polygon class="st1" points="215.03,44.19 215.03,126.64 179.68,126.64 197.35,108.96 197.35,66.02 				"/>
			</g>
		</g>
	</g>
</g>
</svg>
