<?xml version="1.0" encoding="utf-8"?>
<!-- Generator: Adobe Illustrator 24.0.2, SVG Export Plug-In . SVG Version: 6.00 Build 0)  -->
<svg version="1.1" id="Camada_1" xmlns="http://www.w3.org/2000/svg" xmlns:xlink="http://www.w3.org/1999/xlink" x="0px" y="0px"
	 viewBox="0 0 542.62 94.43" style="enable-background:new 0 0 542.62 94.43;" xml:space="preserve">
<style type="text/css">
	.st0{fill:#101820;}
	.st1{fill:#E4002B;}
</style>
<g>
	<g>
		<g>
			<path class="st0" d="M103.29,84.74h0.71v2.9c0.85-0.22,1.58-0.34,2.19-0.34c2.15,0,3.22,1.13,3.22,3.39
				c0,2.45-1.13,3.68-3.39,3.68c-1.02,0-1.92-0.1-2.73-0.29V84.74z M103.99,93.54c0.72,0.13,1.38,0.2,1.96,0.2
				c1.84,0,2.76-1.03,2.76-3.09c0-1.78-0.85-2.67-2.54-2.67c-0.65,0-1.37,0.12-2.18,0.36V93.54z"/>
			<path class="st0" d="M119.26,87.3v7.07h-0.52l-0.08-0.9c-0.81,0.6-1.72,0.9-2.72,0.9c-1.67,0-2.51-0.88-2.51-2.63V87.3h0.71v4.46
				c0,1.32,0.61,1.98,1.83,1.98c0.89,0,1.75-0.3,2.58-0.9V87.3H119.26z"/>
			<path class="st0" d="M123.48,94.03v-0.67c0.79,0.27,1.56,0.4,2.32,0.4c1.49,0,2.23-0.47,2.23-1.41c0-0.76-0.55-1.15-1.65-1.15
				h-0.9c-1.48,0-2.22-0.63-2.22-1.89c0-1.35,0.98-2.02,2.94-2.02c0.75,0,1.52,0.11,2.31,0.34v0.67c-0.79-0.27-1.56-0.4-2.31-0.4
				c-1.49,0-2.24,0.47-2.24,1.41c0,0.81,0.51,1.21,1.52,1.21h0.9c1.57,0,2.36,0.61,2.36,1.82c0,1.35-0.98,2.02-2.94,2.02
				C125.04,94.37,124.27,94.26,123.48,94.03z"/>
			<path class="st0" d="M133.67,84.74v0.81h-0.84v-0.81H133.67z M133.6,87.3v7.07h-0.71V87.3H133.6z"/>
			<path class="st0" d="M138.1,94.37V87.3h0.51l0.09,0.9c0.9-0.6,1.79-0.9,2.65-0.9c1.72,0,2.58,0.74,2.58,2.23v4.84h-0.71v-4.86
				c0-1.05-0.64-1.58-1.91-1.58c-0.85,0-1.68,0.3-2.51,0.9v5.54H138.1z"/>
			<path class="st0" d="M151.14,87.3c1.94,0,2.9,1.07,2.9,3.21c0,0.15,0,0.31-0.01,0.48h-5.37c0,1.85,0.98,2.78,2.94,2.78
				c0.8,0,1.52-0.11,2.14-0.34v0.61c-0.62,0.22-1.34,0.34-2.14,0.34c-2.43,0-3.64-1.21-3.64-3.62
				C147.95,88.45,149.02,87.3,151.14,87.3z M148.66,90.36h4.7c-0.03-1.64-0.77-2.47-2.22-2.47
				C149.57,87.89,148.74,88.71,148.66,90.36z"/>
			<path class="st0" d="M157.93,94.03v-0.67c0.79,0.27,1.56,0.4,2.32,0.4c1.49,0,2.23-0.47,2.23-1.41c0-0.76-0.55-1.15-1.65-1.15
				h-0.9c-1.48,0-2.22-0.63-2.22-1.89c0-1.35,0.98-2.02,2.94-2.02c0.75,0,1.52,0.11,2.31,0.34v0.67c-0.79-0.27-1.56-0.4-2.31-0.4
				c-1.49,0-2.24,0.47-2.24,1.41c0,0.81,0.51,1.21,1.52,1.21h0.9c1.57,0,2.36,0.61,2.36,1.82c0,1.35-0.98,2.02-2.94,2.02
				C159.49,94.37,158.72,94.26,157.93,94.03z"/>
			<path class="st0" d="M167.08,94.03v-0.67c0.79,0.27,1.56,0.4,2.32,0.4c1.49,0,2.23-0.47,2.23-1.41c0-0.76-0.55-1.15-1.65-1.15
				h-0.9c-1.48,0-2.22-0.63-2.22-1.89c0-1.35,0.98-2.02,2.94-2.02c0.75,0,1.52,0.11,2.31,0.34v0.67c-0.79-0.27-1.56-0.4-2.31-0.4
				c-1.49,0-2.24,0.47-2.24,1.41c0,0.81,0.51,1.21,1.52,1.21h0.9c1.57,0,2.36,0.61,2.36,1.82c0,1.35-0.98,2.02-2.94,2.02
				C168.64,94.37,167.87,94.26,167.08,94.03z"/>
			<path class="st0" d="M181.8,94.03v-0.67c0.79,0.27,1.56,0.4,2.32,0.4c1.49,0,2.23-0.47,2.23-1.41c0-0.76-0.55-1.15-1.65-1.15
				h-0.9c-1.48,0-2.22-0.63-2.22-1.89c0-1.35,0.98-2.02,2.94-2.02c0.75,0,1.52,0.11,2.31,0.34v0.67c-0.79-0.27-1.56-0.4-2.31-0.4
				c-1.49,0-2.24,0.47-2.24,1.41c0,0.81,0.51,1.21,1.52,1.21h0.9c1.57,0,2.36,0.61,2.36,1.82c0,1.35-0.98,2.02-2.94,2.02
				C183.36,94.37,182.59,94.26,181.8,94.03z"/>
			<path class="st0" d="M190.74,90.83c0-2.4,1.1-3.6,3.3-3.6c2.2,0,3.3,1.2,3.3,3.6c0,2.4-1.1,3.6-3.3,3.6
				C191.85,94.43,190.75,93.23,190.74,90.83z M194.04,93.83c1.73,0,2.59-1.01,2.59-3.02c0-1.98-0.86-2.97-2.59-2.97
				c-1.73,0-2.59,0.99-2.59,2.97C191.45,92.82,192.31,93.83,194.04,93.83z"/>
			<path class="st0" d="M202.21,84.74v9.63h-0.71v-9.63H202.21z"/>
			<path class="st0" d="M212.53,87.3v7.07h-0.52l-0.08-0.9c-0.81,0.6-1.72,0.9-2.72,0.9c-1.67,0-2.51-0.88-2.51-2.63V87.3h0.71v4.46
				c0,1.32,0.61,1.98,1.83,1.98c0.89,0,1.75-0.3,2.58-0.9V87.3H212.53z"/>
			<path class="st0" d="M216.87,86.15h0.5l0.13,1.15h2.12v0.61h-2.06v4.47c0,0.93,0.34,1.39,1.02,1.39h1.04v0.61h-1.02
				c-1.15,0-1.72-0.64-1.72-1.91V86.15z"/>
			<path class="st0" d="M224.24,84.74v0.81h-0.84v-0.81H224.24z M224.17,87.3v7.07h-0.71V87.3H224.17z"/>
			<path class="st0" d="M228.33,90.83c0-2.4,1.1-3.6,3.3-3.6c2.2,0,3.3,1.2,3.3,3.6c0,2.4-1.1,3.6-3.3,3.6
				C229.44,94.43,228.34,93.23,228.33,90.83z M231.63,93.83c1.73,0,2.59-1.01,2.59-3.02c0-1.98-0.86-2.97-2.59-2.97
				c-1.73,0-2.59,0.99-2.59,2.97C229.04,92.82,229.9,93.83,231.63,93.83z"/>
			<path class="st0" d="M238.96,94.37V87.3h0.51l0.09,0.9c0.9-0.6,1.79-0.9,2.65-0.9c1.72,0,2.58,0.74,2.58,2.23v4.84h-0.71v-4.86
				c0-1.05-0.64-1.58-1.91-1.58c-0.85,0-1.68,0.3-2.51,0.9v5.54H238.96z"/>
			<path class="st0" d="M249.01,94.03v-0.67c0.79,0.27,1.56,0.4,2.32,0.4c1.49,0,2.23-0.47,2.23-1.41c0-0.76-0.55-1.15-1.65-1.15
				H251c-1.48,0-2.22-0.63-2.22-1.89c0-1.35,0.98-2.02,2.94-2.02c0.75,0,1.52,0.11,2.31,0.34v0.67c-0.79-0.27-1.56-0.4-2.31-0.4
				c-1.49,0-2.24,0.47-2.24,1.41c0,0.81,0.51,1.21,1.52,1.21h0.9c1.57,0,2.36,0.61,2.36,1.82c0,1.35-0.98,2.02-2.94,2.02
				C250.57,94.37,249.8,94.26,249.01,94.03z"/>
		</g>
		<g>
			<g>
				<path class="st0" d="M64.43,19.46v44.96h-4.5V19.46H64.43z"/>
				<path class="st0" d="M78.99,64.42V19.46h3.21l0.47,5.65c4.6-3.77,9.58-5.65,14.94-5.65c7.08,0,11.66,2.06,13.74,6.17
					c5.17-4.11,10.41-6.17,15.72-6.17c10.05,0,15.07,4.98,15.07,14.94v30.02h-4.5V34.41c0-7.28-3.54-10.92-10.62-10.92
					c-5.65,0-10.32,1.94-14,5.82v35.11h-4.5V33.68c0-6.79-3.65-10.19-10.96-10.19c-5.31,0-10.01,1.94-14.09,5.82v35.11H78.99z"/>
				<path class="st0" d="M155.85,21.3c5.11-1.23,10.85-1.84,17.21-1.84c14.42,0,21.62,7.12,21.62,21.37
					c0,15.73-7.25,23.59-21.75,23.59c-3.6,0-7.79-0.71-12.59-2.14V79.4h-4.5V21.3z M160.34,57.83c4.54,1.54,8.72,2.31,12.55,2.31
					c11.62,0,17.43-6.47,17.43-19.4c0-11.5-5.78-17.26-17.34-17.26c-4,0-8.21,0.34-12.63,1.03V57.83z"/>
				<path class="st0" d="M243.28,19.46v44.96h-3.3l-0.51-5.74c-5.17,3.83-10.93,5.74-17.3,5.74c-10.62,0-15.93-5.58-15.93-16.74
					V19.46h4.5v28.35c0,8.39,3.88,12.59,11.65,12.59c5.68,0,11.15-1.9,16.4-5.7V19.46H243.28z"/>
				<path class="st0" d="M262.34,4.49l0,59.93h-4.5l0-59.93H262.34z"/>
				<path class="st0" d="M276.04,62.28V58c4.99,1.71,9.91,2.57,14.73,2.57c9.45,0,14.17-3,14.17-8.99c0-4.85-3.5-7.28-10.49-7.28
					h-5.74c-9.42,0-14.13-4-14.13-11.99c0-8.56,6.24-12.85,18.71-12.85c4.8,0,9.69,0.71,14.69,2.14v4.28
					c-5-1.71-9.89-2.57-14.69-2.57c-9.48,0-14.22,3-14.22,8.99c0,5.14,3.21,7.71,9.63,7.71h5.74c9.99,0,14.99,3.85,14.99,11.56
					c0,8.56-6.22,12.85-18.67,12.85C285.95,64.42,281.04,63.71,276.04,62.28z"/>
				<path class="st0" d="M339.12,19.46c12.3,0,18.45,6.81,18.45,20.43c0,0.97-0.03,1.98-0.09,3.04h-34.13
					c0,11.76,6.22,17.64,18.67,17.64c5.11,0,9.65-0.71,13.62-2.14v3.85c-3.97,1.43-8.51,2.14-13.62,2.14
					c-15.44,0-23.17-7.67-23.17-22.99C318.86,26.78,325.61,19.46,339.12,19.46z M323.36,38.9h29.89
					c-0.17-10.45-4.88-15.67-14.13-15.67C329.12,23.23,323.87,28.46,323.36,38.9z"/>
			</g>
			<g>
				<rect x="59.93" y="0" class="st1" width="4.5" height="4.5"/>
				<g>
					<g>
						<rect x="2.25" y="57.68" class="st1" width="4.5" height="4.5"/>
						<polygon class="st1" points="51.7,12.72 44.96,21.05 35.97,32.16 24.73,46.04 24.73,62.18 17.51,54.96 13.49,59.93 
							11.24,53.18 4.5,50.94 9.47,46.91 2.25,39.7 18.38,39.7 32.27,28.46 43.37,19.46 						"/>
					</g>
					<g>
						<polygon class="st1" points="41.95,19.46 30.84,28.45 8.99,28.45 0,37.45 0,19.46 						"/>
						<polygon class="st1" points="44.96,22.48 44.96,64.42 26.98,64.42 35.97,55.43 35.97,33.59 						"/>
					</g>
				</g>
			</g>
		</g>
	</g>
	<rect x="387.51" y="0" class="st1" width="4.5" height="94.37"/>
	<g>
		<path class="st0" d="M416.86,14.53v1.56h-1.62v-1.56H416.86z M416.73,19.46v13.63h-1.36V19.46H416.73z"/>
		<path class="st0" d="M421.15,33.09V19.46h0.97l0.14,1.71c1.39-1.14,2.9-1.71,4.53-1.71c2.15,0,3.54,0.62,4.17,1.87
			c1.57-1.25,3.16-1.87,4.76-1.87c3.05,0,4.57,1.51,4.57,4.53v9.1h-1.36v-9.1c0-2.21-1.07-3.31-3.22-3.31
			c-1.71,0-3.13,0.59-4.25,1.77v10.65h-1.36v-9.32c0-2.06-1.11-3.09-3.32-3.09c-1.61,0-3.03,0.59-4.27,1.77v10.65H421.15z"/>
		<path class="st0" d="M444.45,20.02c1.55-0.37,3.29-0.56,5.22-0.56c4.37,0,6.56,2.16,6.56,6.48c0,4.77-2.2,7.15-6.6,7.15
			c-1.09,0-2.36-0.22-3.82-0.65v5.58h-1.36V20.02z M445.82,31.09c1.38,0.47,2.64,0.7,3.8,0.7c3.52,0,5.28-1.96,5.28-5.88
			c0-3.49-1.75-5.23-5.26-5.23c-1.21,0-2.49,0.1-3.83,0.31V31.09z"/>
		<path class="st0" d="M470.96,19.46v13.63h-1l-0.16-1.74c-1.57,1.16-3.32,1.74-5.25,1.74c-3.22,0-4.83-1.69-4.83-5.08v-8.56h1.36
			v8.6c0,2.54,1.18,3.82,3.53,3.82c1.72,0,3.38-0.58,4.97-1.73V19.46H470.96z"/>
		<path class="st0" d="M476.74,14.53v18.57h-1.36V14.53H476.74z"/>
		<path class="st0" d="M480.9,32.44v-1.3c1.51,0.52,3,0.78,4.47,0.78c2.86,0,4.3-0.91,4.3-2.73c0-1.47-1.06-2.21-3.18-2.21h-1.74
			c-2.86,0-4.28-1.21-4.28-3.64c0-2.6,1.89-3.9,5.67-3.9c1.45,0,2.94,0.22,4.45,0.65v1.3c-1.51-0.52-3-0.78-4.45-0.78
			c-2.87,0-4.31,0.91-4.31,2.73c0,1.56,0.97,2.34,2.92,2.34h1.74c3.03,0,4.54,1.17,4.54,3.51c0,2.6-1.89,3.9-5.66,3.9
			C483.9,33.09,482.41,32.88,480.9,32.44z"/>
		<path class="st0" d="M496.28,14.53v1.56h-1.62v-1.56H496.28z M496.15,19.46v13.63h-1.36V19.46H496.15z"/>
		<path class="st0" d="M499.92,26.28c0-4.63,2.12-6.95,6.36-6.95s6.36,2.32,6.36,6.95c0,4.62-2.12,6.93-6.36,6.93
			C502.06,33.21,499.94,30.9,499.92,26.28z M506.28,32.05c3.33,0,5-1.94,5-5.83c0-3.82-1.67-5.73-5-5.73s-5,1.91-5,5.73
			C501.28,30.11,502.95,32.05,506.28,32.05z"/>
		<path class="st0" d="M516.15,33.09V19.46h0.97l0.17,1.74c1.74-1.16,3.44-1.74,5.12-1.74c3.31,0,4.97,1.43,4.97,4.3v9.34h-1.36
			v-9.37c0-2.03-1.23-3.04-3.67-3.04c-1.64,0-3.25,0.58-4.83,1.73v10.69H516.15z"/>
		<path class="st0" d="M537.03,19.46c3.73,0,5.6,2.06,5.6,6.19c0,0.29-0.01,0.6-0.03,0.92h-10.35c0,3.57,1.89,5.35,5.66,5.35
			c1.55,0,2.93-0.22,4.13-0.65v1.17c-1.2,0.43-2.58,0.65-4.13,0.65c-4.68,0-7.02-2.32-7.02-6.97
			C530.88,21.68,532.93,19.46,537.03,19.46z M532.25,25.35h9.06c-0.05-3.17-1.48-4.75-4.28-4.75C534,20.6,532.4,22.19,532.25,25.35z
			"/>
		<path class="st0" d="M414.46,52.07c0-4.63,2.12-6.95,6.36-6.95s6.36,2.32,6.36,6.95c0,4.62-2.12,6.93-6.36,6.93
			C416.6,59,414.48,56.69,414.46,52.07z M420.82,57.85c3.33,0,5-1.94,5-5.83c0-3.82-1.67-5.73-5-5.73s-5,1.91-5,5.73
			C415.82,55.9,417.49,57.85,420.82,57.85z"/>
		<path class="st0" d="M436.92,58.24v-1.3c1.51,0.52,3,0.78,4.47,0.78c2.86,0,4.3-0.91,4.3-2.73c0-1.47-1.06-2.21-3.18-2.21h-1.74
			c-2.86,0-4.28-1.21-4.28-3.64c0-2.6,1.89-3.9,5.67-3.9c1.45,0,2.94,0.22,4.45,0.65v1.3c-1.51-0.52-3-0.78-4.45-0.78
			c-2.87,0-4.31,0.91-4.31,2.73c0,1.56,0.97,2.34,2.92,2.34h1.74c3.03,0,4.54,1.17,4.54,3.51c0,2.6-1.89,3.9-5.66,3.9
			C439.92,58.89,438.44,58.67,436.92,58.24z"/>
		<path class="st0" d="M456.05,45.25c3.73,0,5.6,2.06,5.6,6.19c0,0.29-0.01,0.6-0.03,0.92h-10.35c0,3.57,1.89,5.35,5.66,5.35
			c1.55,0,2.93-0.22,4.13-0.65v1.17c-1.2,0.43-2.58,0.65-4.13,0.65c-4.68,0-7.02-2.32-7.02-6.97
			C449.9,47.47,451.95,45.25,456.05,45.25z M451.27,51.15h9.06c-0.05-3.17-1.48-4.75-4.28-4.75
			C453.02,46.4,451.42,47.98,451.27,51.15z"/>
		<path class="st0" d="M476.38,45.25v13.63h-1l-0.16-1.74c-1.57,1.16-3.32,1.74-5.25,1.74c-3.22,0-4.83-1.69-4.83-5.08v-8.56h1.36
			v8.6c0,2.55,1.18,3.82,3.53,3.82c1.72,0,3.38-0.58,4.97-1.73V45.25H476.38z"/>
		<path class="st0" d="M414.65,84.68V71.05h2.66l0.43,2c1.31-1.33,2.8-2,4.47-2c3.23,0,4.84,1.68,4.84,5.04v8.59h-3.44v-8.59
			c0-1.51-0.75-2.26-2.25-2.26c-1.12,0-2.21,0.45-3.27,1.34v9.52H414.65z"/>
		<path class="st0" d="M436.05,71.05c4.14,0,6.21,2.11,6.21,6.34c0,0.56-0.04,1.13-0.12,1.69h-9.05c0,1.92,1.41,2.88,4.23,2.88
			c1.38,0,2.75-0.13,4.13-0.39v2.73c-1.2,0.26-2.67,0.39-4.39,0.39c-4.94,0-7.41-2.32-7.41-6.97
			C429.65,73.27,431.78,71.05,436.05,71.05z M433.09,76.68h5.82v-0.1c0-1.89-0.95-2.83-2.86-2.83
			C434.23,73.75,433.25,74.73,433.09,76.68z"/>
		<path class="st0" d="M457.01,83.64c0,3.98-2.39,5.97-7.18,5.97c-1.68,0-3.17-0.22-4.47-0.65v-2.73c1.32,0.43,2.82,0.65,4.49,0.65
			c2.48,0,3.71-1.04,3.71-3.12c-1.02,0.43-2.12,0.65-3.3,0.65c-4.05,0-6.08-2.21-6.08-6.63c0-4.49,2.36-6.74,7.08-6.74
			c1.58,0,3.5,0.19,5.74,0.56V83.64z M453.57,74.14c-0.56-0.21-1.36-0.31-2.4-0.31c-2.38,0-3.57,1.31-3.57,3.93
			c0,2.54,1.03,3.8,3.08,3.8c0.99,0,1.95-0.23,2.9-0.7V74.14z"/>
		<path class="st0" d="M459.6,77.86c0-4.57,2.25-6.86,6.75-6.86c4.5,0,6.75,2.29,6.75,6.86c0,4.56-2.25,6.84-6.75,6.84
			C461.87,84.71,459.62,82.43,459.6,77.86z M466.36,82.08c2.21,0,3.31-1.42,3.31-4.27c0-2.78-1.1-4.17-3.31-4.17
			c-2.21,0-3.31,1.39-3.31,4.17C463.04,80.66,464.15,82.08,466.36,82.08z M466.23,66.11h4.14l-3.1,3.36h-2.91L466.23,66.11z"/>
		<path class="st0" d="M485.77,84.29c-1.13,0.26-2.29,0.39-3.51,0.39c-4.85,0-7.27-2.36-7.27-7.08c0-4.37,2.42-6.56,7.27-6.56
			c1.21,0,2.38,0.13,3.51,0.39v2.73c-1.13-0.26-2.21-0.39-3.25-0.39c-2.73,0-4.09,1.28-4.09,3.83c0,2.9,1.36,4.35,4.09,4.35
			c1.04,0,2.12-0.13,3.25-0.39V84.29z"/>
		<path class="st0" d="M491.48,66.11v2.73h-3.44v-2.73H491.48z M491.48,71.05v13.63h-3.44V71.05H491.48z"/>
		<path class="st0" d="M494.08,77.86c0-4.57,2.25-6.86,6.75-6.86c4.5,0,6.75,2.29,6.75,6.86c0,4.56-2.25,6.84-6.75,6.84
			C496.34,84.71,494.09,82.43,494.08,77.86z M500.83,82.08c2.21,0,3.31-1.42,3.31-4.27c0-2.78-1.1-4.17-3.31-4.17
			c-2.21,0-3.31,1.39-3.31,4.17C497.52,80.66,498.62,82.08,500.83,82.08z"/>
	</g>
</g>
</svg>
