<?xml version="1.0" encoding="utf-8"?>
<!-- Generator: Adobe Illustrator 24.0.2, SVG Export Plug-In . SVG Version: 6.00 Build 0)  -->
<svg version="1.1" id="Camada_1" xmlns="http://www.w3.org/2000/svg" xmlns:xlink="http://www.w3.org/1999/xlink" x="0px" y="0px"
	 viewBox="0 0 500 132.05" style="enable-background:new 0 0 500 132.05;" xml:space="preserve">
<style type="text/css">
	.st0{fill:#101820;}
	.st1{fill:#E4002B;}
</style>
<g>
	<g>
		<path class="st0" d="M144.43,118.49h0.99v4.05c1.19-0.31,2.21-0.47,3.06-0.47c3,0,4.5,1.58,4.5,4.75c0,3.43-1.58,5.14-4.74,5.14
			c-1.42,0-2.69-0.13-3.81-0.4V118.49z M145.42,130.8c1.01,0.18,1.92,0.27,2.74,0.27c2.57,0,3.86-1.44,3.86-4.32
			c0-2.49-1.18-3.74-3.55-3.74c-0.9,0-1.92,0.17-3.05,0.51V130.8z"/>
		<path class="st0" d="M166.76,122.07v9.89h-0.73l-0.11-1.26c-1.14,0.84-2.4,1.26-3.81,1.26c-2.34,0-3.5-1.23-3.5-3.68v-6.21h0.99
			v6.24c0,1.85,0.85,2.77,2.56,2.77c1.25,0,2.45-0.42,3.61-1.25v-7.75H166.76z"/>
		<path class="st0" d="M172.67,131.49v-0.94c1.1,0.38,2.18,0.57,3.24,0.57c2.08,0,3.12-0.66,3.12-1.98c0-1.07-0.77-1.6-2.31-1.6
			h-1.26c-2.07,0-3.11-0.88-3.11-2.64c0-1.88,1.37-2.83,4.12-2.83c1.05,0,2.13,0.16,3.23,0.47v0.94c-1.1-0.38-2.18-0.57-3.23-0.57
			c-2.08,0-3.13,0.66-3.13,1.98c0,1.13,0.71,1.7,2.12,1.7h1.26c2.2,0,3.3,0.85,3.3,2.54c0,1.88-1.37,2.83-4.11,2.83
			C174.85,131.96,173.77,131.8,172.67,131.49z"/>
		<path class="st0" d="M186.92,118.49v1.13h-1.18v-1.13H186.92z M186.82,122.07v9.89h-0.99v-9.89H186.82z"/>
		<path class="st0" d="M193.11,131.96v-9.89h0.71l0.12,1.26c1.26-0.84,2.5-1.26,3.71-1.26c2.4,0,3.61,1.04,3.61,3.12v6.77h-0.99
			v-6.8c0-1.47-0.89-2.2-2.67-2.2c-1.19,0-2.35,0.42-3.5,1.25v7.75H193.11z"/>
		<path class="st0" d="M211.34,122.07c2.71,0,4.06,1.5,4.06,4.49c0,0.21-0.01,0.44-0.02,0.67h-7.51c0,2.59,1.37,3.88,4.11,3.88
			c1.12,0,2.12-0.16,3-0.47v0.85c-0.87,0.31-1.87,0.47-3,0.47c-3.4,0-5.1-1.69-5.1-5.06C206.89,123.68,208.37,122.07,211.34,122.07z
			 M207.88,126.35h6.57c-0.04-2.3-1.07-3.45-3.11-3.45C209.15,122.9,207.99,124.05,207.88,126.35z"/>
		<path class="st0" d="M220.84,131.49v-0.94c1.1,0.38,2.18,0.57,3.24,0.57c2.08,0,3.12-0.66,3.12-1.98c0-1.07-0.77-1.6-2.31-1.6
			h-1.26c-2.07,0-3.11-0.88-3.11-2.64c0-1.88,1.37-2.83,4.12-2.83c1.05,0,2.13,0.16,3.23,0.47v0.94c-1.1-0.38-2.18-0.57-3.23-0.57
			c-2.08,0-3.13,0.66-3.13,1.98c0,1.13,0.71,1.7,2.12,1.7h1.26c2.2,0,3.3,0.85,3.3,2.54c0,1.88-1.37,2.83-4.11,2.83
			C223.02,131.96,221.94,131.8,220.84,131.49z"/>
		<path class="st0" d="M233.63,131.49v-0.94c1.1,0.38,2.18,0.57,3.24,0.57c2.08,0,3.12-0.66,3.12-1.98c0-1.07-0.77-1.6-2.31-1.6
			h-1.26c-2.07,0-3.11-0.88-3.11-2.64c0-1.88,1.37-2.83,4.12-2.83c1.05,0,2.13,0.16,3.23,0.47v0.94c-1.1-0.38-2.18-0.57-3.23-0.57
			c-2.08,0-3.13,0.66-3.13,1.98c0,1.13,0.71,1.7,2.12,1.7h1.26c2.2,0,3.3,0.85,3.3,2.54c0,1.88-1.37,2.83-4.11,2.83
			C235.81,131.96,234.73,131.8,233.63,131.49z"/>
		<path class="st0" d="M254.21,131.49v-0.94c1.1,0.38,2.18,0.57,3.24,0.57c2.08,0,3.12-0.66,3.12-1.98c0-1.07-0.77-1.6-2.31-1.6H257
			c-2.07,0-3.11-0.88-3.11-2.64c0-1.88,1.37-2.83,4.12-2.83c1.05,0,2.13,0.16,3.23,0.47v0.94c-1.1-0.38-2.18-0.57-3.23-0.57
			c-2.08,0-3.13,0.66-3.13,1.98c0,1.13,0.71,1.7,2.12,1.7h1.26c2.2,0,3.3,0.85,3.3,2.54c0,1.88-1.37,2.83-4.11,2.83
			C256.39,131.96,255.31,131.8,254.21,131.49z"/>
		<path class="st0" d="M266.72,127.02c0-3.36,1.54-5.04,4.62-5.04c3.08,0,4.62,1.68,4.62,5.04c0,3.35-1.54,5.03-4.62,5.03
			C268.27,132.05,266.73,130.37,266.72,127.02z M271.33,131.21c2.42,0,3.63-1.41,3.63-4.23c0-2.77-1.21-4.15-3.63-4.15
			c-2.42,0-3.63,1.38-3.63,4.15C267.71,129.8,268.92,131.21,271.33,131.21z"/>
		<path class="st0" d="M282.76,118.49v13.47h-0.99v-13.47H282.76z"/>
		<path class="st0" d="M297.19,122.07v9.89h-0.73l-0.11-1.26c-1.14,0.84-2.4,1.26-3.81,1.26c-2.34,0-3.5-1.23-3.5-3.68v-6.21h0.99
			v6.24c0,1.85,0.85,2.77,2.56,2.77c1.25,0,2.45-0.42,3.61-1.25v-7.75H297.19z"/>
		<path class="st0" d="M303.25,120.47h0.7l0.18,1.6h2.97v0.85h-2.88v6.24c0,1.3,0.48,1.95,1.43,1.95h1.45v0.85h-1.43
			c-1.61,0-2.41-0.89-2.41-2.67V120.47z"/>
		<path class="st0" d="M313.56,118.49v1.13h-1.18v-1.13H313.56z M313.46,122.07v9.89h-0.99v-9.89H313.46z"/>
		<path class="st0" d="M319.28,127.02c0-3.36,1.54-5.04,4.62-5.04c3.08,0,4.62,1.68,4.62,5.04c0,3.35-1.54,5.03-4.62,5.03
			C320.83,132.05,319.29,130.37,319.28,127.02z M323.89,131.21c2.42,0,3.63-1.41,3.63-4.23c0-2.77-1.21-4.15-3.63-4.15
			c-2.42,0-3.63,1.38-3.63,4.15C320.27,129.8,321.48,131.21,323.89,131.21z"/>
		<path class="st0" d="M334.14,131.96v-9.89h0.71l0.12,1.26c1.26-0.84,2.5-1.26,3.71-1.26c2.4,0,3.61,1.04,3.61,3.12v6.77h-0.99
			v-6.8c0-1.47-0.89-2.2-2.67-2.2c-1.19,0-2.35,0.42-3.5,1.25v7.75H334.14z"/>
		<path class="st0" d="M348.2,131.49v-0.94c1.1,0.38,2.18,0.57,3.24,0.57c2.08,0,3.12-0.66,3.12-1.98c0-1.07-0.77-1.6-2.31-1.6
			h-1.26c-2.07,0-3.11-0.88-3.11-2.64c0-1.88,1.37-2.83,4.12-2.83c1.05,0,2.13,0.16,3.23,0.47v0.94c-1.1-0.38-2.18-0.57-3.23-0.57
			c-2.08,0-3.13,0.66-3.13,1.98c0,1.13,0.71,1.7,2.12,1.7h1.26c2.2,0,3.3,0.85,3.3,2.54c0,1.88-1.37,2.83-4.11,2.83
			C350.38,131.96,349.3,131.8,348.2,131.49z"/>
	</g>
	<g>
		<g>
			<path class="st0" d="M90.09,27.22v62.87h-6.29V27.22H90.09z"/>
			<path class="st0" d="M110.45,90.09V27.22h4.49l0.66,7.9c6.43-5.27,13.39-7.9,20.9-7.9c9.9,0,16.3,2.87,19.22,8.62
				c7.22-5.75,14.55-8.62,21.98-8.62c14.05,0,21.08,6.97,21.08,20.9v41.97h-6.29V48.11c0-10.18-4.95-15.27-14.85-15.27
				c-7.9,0-14.43,2.72-19.58,8.14v49.1h-6.29V47.09c0-9.5-5.11-14.25-15.33-14.25c-7.42,0-13.99,2.72-19.7,8.14v49.1H110.45z"/>
			<path class="st0" d="M217.93,29.79c7.14-1.72,15.17-2.57,24.07-2.57c20.16,0,30.24,9.96,30.24,29.88
				c0,22-10.14,32.99-30.42,32.99c-5.03,0-10.9-1-17.6-2.99v23.93h-6.29V29.79z M224.21,80.86c6.35,2.16,12.19,3.23,17.54,3.23
				c16.25,0,24.37-9.04,24.37-27.12c0-16.09-8.08-24.13-24.25-24.13c-5.59,0-11.48,0.48-17.66,1.44V80.86z"/>
			<path class="st0" d="M340.19,27.22v62.87h-4.61l-0.72-8.02c-7.23,5.35-15.29,8.02-24.19,8.02c-14.85,0-22.27-7.8-22.27-23.41
				V27.22h6.29v39.64c0,11.74,5.43,17.6,16.29,17.6c7.94,0,15.59-2.65,22.93-7.96V27.22H340.19z"/>
			<path class="st0" d="M366.84,6.28l0,83.81h-6.29l0-83.81H366.84z"/>
			<path class="st0" d="M386,87.09V81.1c6.98,2.4,13.85,3.59,20.6,3.59c13.21,0,19.82-4.19,19.82-12.57
				c0-6.79-4.89-10.18-14.67-10.18h-8.02c-13.17,0-19.76-5.59-19.76-16.77c0-11.98,8.72-17.96,26.17-17.96
				c6.71,0,13.55,1,20.54,2.99v5.99c-6.99-2.4-13.83-3.59-20.54-3.59c-13.25,0-19.88,4.19-19.88,12.57
				c0,7.19,4.49,10.78,13.47,10.78h8.02c13.97,0,20.96,5.39,20.96,16.17c0,11.98-8.7,17.96-26.11,17.96
				C399.85,90.09,392.98,89.09,386,87.09z"/>
			<path class="st0" d="M474.19,27.22c17.2,0,25.81,9.52,25.81,28.56c0,1.36-0.04,2.77-0.12,4.25h-47.72
				c0,16.45,8.7,24.67,26.11,24.67c7.14,0,13.49-1,19.04-2.99v5.39c-5.55,2-11.89,2.99-19.04,2.99c-21.6,0-32.39-10.72-32.39-32.15
				C445.87,37.45,455.31,27.22,474.19,27.22z M452.16,54.4h41.79c-0.24-14.61-6.82-21.91-19.76-21.91
				C460.22,32.49,452.88,39.79,452.16,54.4z"/>
		</g>
		<g>
			<rect x="83.8" y="0" class="st1" width="6.29" height="6.29"/>
			<g>
				<g>
					<rect x="3.14" y="80.66" class="st1" width="6.29" height="6.29"/>
					<polygon class="st1" points="72.3,17.79 62.87,29.44 50.3,44.97 34.58,64.38 34.58,86.94 24.49,76.85 18.86,83.8 15.72,74.37 
						6.29,71.22 13.24,65.6 3.14,55.51 25.7,55.51 45.12,39.79 60.65,27.22 					"/>
				</g>
				<g>
					<polygon class="st1" points="58.65,27.22 43.12,39.79 12.57,39.79 0,52.36 0,27.22 					"/>
					<polygon class="st1" points="62.87,31.43 62.87,90.09 37.72,90.09 50.3,77.51 50.3,46.96 					"/>
				</g>
			</g>
		</g>
	</g>
</g>
</svg>
