<?xml version="1.0" encoding="utf-8"?>
<!-- Generator: Adobe Illustrator 24.0.2, SVG Export Plug-In . SVG Version: 6.00 Build 0)  -->
<svg version="1.1" id="Camada_1" xmlns="http://www.w3.org/2000/svg" xmlns:xlink="http://www.w3.org/1999/xlink" x="0px" y="0px"
	 viewBox="0 0 651.84 143.32" style="enable-background:new 0 0 651.84 143.32;" xml:space="preserve">
<style type="text/css">
	.st0{fill:#E4002B;}
	.st1{fill:#101820;}
</style>
<g>
	<g>
		<rect x="120" y="0" class="st0" width="9" height="9"/>
		<g>
			<g>
				<rect x="4.5" y="115.5" class="st0" width="9" height="9"/>
				<polygon class="st0" points="103.53,25.47 90.03,42.15 72.02,64.39 49.52,92.2 49.52,124.5 35.06,110.05 27.01,120 
					22.51,106.49 9,101.99 18.95,93.94 4.5,79.49 36.8,79.49 64.61,56.98 86.85,38.97 				"/>
			</g>
			<g>
				<polygon class="st0" points="83.99,38.97 61.75,56.98 18.01,56.98 0,74.98 0,38.97 				"/>
				<polygon class="st0" points="90.03,45.01 90.03,129 54.02,129 72.02,110.99 72.02,67.25 				"/>
			</g>
		</g>
	</g>
	<g>
		<path class="st1" d="M427.66,114.66h1.05v4.3c1.26-0.33,2.34-0.5,3.25-0.5c3.19,0,4.78,1.68,4.78,5.04c0,3.64-1.68,5.46-5.03,5.46
			c-1.51,0-2.86-0.14-4.05-0.43V114.66z M428.71,127.74c1.07,0.19,2.04,0.29,2.91,0.29c2.73,0,4.1-1.53,4.1-4.59
			c0-2.65-1.26-3.97-3.77-3.97c-0.96,0-2.04,0.18-3.24,0.54V127.74z"/>
		<path class="st1" d="M451.37,118.46v10.5h-0.77l-0.12-1.34c-1.21,0.89-2.55,1.34-4.04,1.34c-2.48,0-3.72-1.3-3.72-3.91v-6.59h1.05
			v6.62c0,1.96,0.91,2.94,2.72,2.94c1.33,0,2.6-0.44,3.83-1.33v-8.23H451.37z"/>
		<path class="st1" d="M457.65,128.47v-1c1.17,0.4,2.31,0.6,3.44,0.6c2.21,0,3.31-0.7,3.31-2.1c0-1.13-0.82-1.7-2.45-1.7h-1.34
			c-2.2,0-3.3-0.93-3.3-2.8c0-2,1.46-3,4.37-3c1.12,0,2.26,0.17,3.43,0.5v1c-1.17-0.4-2.31-0.6-3.43-0.6c-2.21,0-3.32,0.7-3.32,2.1
			c0,1.2,0.75,1.8,2.25,1.8h1.34c2.33,0,3.5,0.9,3.5,2.7c0,2-1.45,3-4.36,3C459.96,128.97,458.81,128.8,457.65,128.47z"/>
		<path class="st1" d="M472.77,114.66v1.2h-1.25v-1.2H472.77z M472.67,118.46v10.5h-1.05v-10.5H472.67z"/>
		<path class="st1" d="M479.35,128.97v-10.5h0.75l0.13,1.34c1.34-0.89,2.65-1.34,3.94-1.34c2.55,0,3.83,1.1,3.83,3.31v7.19h-1.05
			v-7.22c0-1.56-0.94-2.34-2.83-2.34c-1.26,0-2.5,0.44-3.72,1.33v8.23H479.35z"/>
		<path class="st1" d="M498.71,118.46c2.87,0,4.31,1.59,4.31,4.77c0,0.23-0.01,0.46-0.02,0.71h-7.97c0,2.75,1.45,4.12,4.36,4.12
			c1.19,0,2.25-0.17,3.18-0.5v0.9c-0.93,0.33-1.99,0.5-3.18,0.5c-3.61,0-5.41-1.79-5.41-5.37
			C493.98,120.17,495.56,118.46,498.71,118.46z M495.03,123h6.98c-0.04-2.44-1.14-3.66-3.3-3.66
			C496.38,119.34,495.15,120.56,495.03,123z"/>
		<path class="st1" d="M508.8,128.47v-1c1.17,0.4,2.31,0.6,3.44,0.6c2.21,0,3.31-0.7,3.31-2.1c0-1.13-0.82-1.7-2.45-1.7h-1.34
			c-2.2,0-3.3-0.93-3.3-2.8c0-2,1.46-3,4.37-3c1.12,0,2.26,0.17,3.43,0.5v1c-1.17-0.4-2.31-0.6-3.43-0.6c-2.21,0-3.32,0.7-3.32,2.1
			c0,1.2,0.75,1.8,2.25,1.8h1.34c2.33,0,3.5,0.9,3.5,2.7c0,2-1.45,3-4.36,3C511.11,128.97,509.97,128.8,508.8,128.47z"/>
		<path class="st1" d="M522.38,128.47v-1c1.17,0.4,2.31,0.6,3.44,0.6c2.21,0,3.31-0.7,3.31-2.1c0-1.13-0.82-1.7-2.45-1.7h-1.34
			c-2.2,0-3.3-0.93-3.3-2.8c0-2,1.46-3,4.37-3c1.12,0,2.26,0.17,3.43,0.5v1c-1.17-0.4-2.31-0.6-3.43-0.6c-2.21,0-3.32,0.7-3.32,2.1
			c0,1.2,0.75,1.8,2.25,1.8h1.34c2.33,0,3.5,0.9,3.5,2.7c0,2-1.45,3-4.36,3C524.69,128.97,523.55,128.8,522.38,128.47z"/>
		<path class="st1" d="M544.24,128.47v-1c1.17,0.4,2.31,0.6,3.44,0.6c2.21,0,3.31-0.7,3.31-2.1c0-1.13-0.82-1.7-2.45-1.7h-1.34
			c-2.2,0-3.3-0.93-3.3-2.8c0-2,1.46-3,4.37-3c1.12,0,2.26,0.17,3.43,0.5v1c-1.17-0.4-2.31-0.6-3.43-0.6c-2.21,0-3.32,0.7-3.32,2.1
			c0,1.2,0.75,1.8,2.25,1.8h1.34c2.33,0,3.5,0.9,3.5,2.7c0,2-1.45,3-4.36,3C546.55,128.97,545.4,128.8,544.24,128.47z"/>
		<path class="st1" d="M557.52,123.71c0-3.57,1.63-5.35,4.9-5.35s4.9,1.78,4.9,5.35c0,3.56-1.63,5.34-4.9,5.34
			C559.16,129.06,557.53,127.28,557.52,123.71z M562.42,128.17c2.57,0,3.85-1.5,3.85-4.49c0-2.94-1.28-4.41-3.85-4.41
			s-3.85,1.47-3.85,4.41C558.57,126.67,559.85,128.17,562.42,128.17z"/>
		<path class="st1" d="M574.54,114.66v14.3h-1.05v-14.3H574.54z"/>
		<path class="st1" d="M589.87,118.46v10.5h-0.77l-0.12-1.34c-1.21,0.89-2.55,1.34-4.04,1.34c-2.48,0-3.72-1.3-3.72-3.91v-6.59h1.05
			v6.62c0,1.96,0.91,2.94,2.72,2.94c1.33,0,2.6-0.44,3.83-1.33v-8.23H589.87z"/>
		<path class="st1" d="M596.31,116.76h0.74l0.19,1.7h3.15v0.9h-3.06V126c0,1.38,0.51,2.07,1.52,2.07h1.54v0.9h-1.52
			c-1.71,0-2.56-0.94-2.56-2.83V116.76z"/>
		<path class="st1" d="M607.25,114.66v1.2H606v-1.2H607.25z M607.15,118.46v10.5h-1.05v-10.5H607.15z"/>
		<path class="st1" d="M613.33,123.71c0-3.57,1.63-5.35,4.9-5.35s4.9,1.78,4.9,5.35c0,3.56-1.63,5.34-4.9,5.34
			C614.98,129.06,613.34,127.28,613.33,123.71z M618.23,128.17c2.57,0,3.85-1.5,3.85-4.49c0-2.94-1.28-4.41-3.85-4.41
			s-3.85,1.47-3.85,4.41C614.38,126.67,615.66,128.17,618.23,128.17z"/>
		<path class="st1" d="M629.11,128.97v-10.5h0.75l0.13,1.34c1.34-0.89,2.65-1.34,3.94-1.34c2.55,0,3.83,1.1,3.83,3.31v7.19h-1.05
			v-7.22c0-1.56-0.94-2.34-2.83-2.34c-1.26,0-2.5,0.44-3.72,1.33v8.23H629.11z"/>
		<path class="st1" d="M644.04,128.47v-1c1.17,0.4,2.31,0.6,3.44,0.6c2.21,0,3.31-0.7,3.31-2.1c0-1.13-0.82-1.7-2.45-1.7H647
			c-2.2,0-3.3-0.93-3.3-2.8c0-2,1.46-3,4.37-3c1.12,0,2.26,0.17,3.43,0.5v1c-1.17-0.4-2.31-0.6-3.43-0.6c-2.21,0-3.32,0.7-3.32,2.1
			c0,1.2,0.75,1.8,2.25,1.8h1.34c2.33,0,3.5,0.9,3.5,2.7c0,2-1.45,3-4.36,3C646.35,128.97,645.2,128.8,644.04,128.47z"/>
	</g>
	<g>
		<g>
			<path class="st1" d="M133.31,85.99V129h-4.3V85.99H133.31z"/>
			<path class="st1" d="M147.23,129V85.99h3.07l0.45,5.41c4.4-3.6,9.16-5.41,14.3-5.41c6.77,0,11.15,1.97,13.15,5.9
				c4.94-3.93,9.95-5.9,15.03-5.9c9.61,0,14.42,4.77,14.42,14.3V129h-4.3v-28.71c0-6.96-3.39-10.45-10.16-10.45
				c-5.41,0-9.87,1.86-13.39,5.57V129h-4.3V99.59c0-6.5-3.5-9.75-10.49-9.75c-5.08,0-9.57,1.86-13.48,5.57V129H147.23z"/>
			<path class="st1" d="M220.76,87.75c4.89-1.17,10.38-1.76,16.47-1.76c13.79,0,20.69,6.81,20.69,20.44
				c0,15.05-6.94,22.57-20.81,22.57c-3.44,0-7.46-0.68-12.04-2.05v16.37h-4.3V87.75z M225.06,122.69c4.34,1.47,8.34,2.21,12,2.21
				c11.11,0,16.67-6.19,16.67-18.56c0-11.01-5.53-16.51-16.59-16.51c-3.82,0-7.85,0.33-12.08,0.98V122.69z"/>
			<path class="st1" d="M304.4,85.99V129h-3.15l-0.49-5.49c-4.94,3.66-10.46,5.49-16.55,5.49c-10.16,0-15.24-5.34-15.24-16.02V85.99
				h4.3v27.12c0,8.03,3.71,12.04,11.14,12.04c5.43,0,10.66-1.82,15.69-5.45V85.99H304.4z"/>
			<path class="st1" d="M322.63,71.67l0,57.33h-4.3l0-57.33H322.63z"/>
			<path class="st1" d="M335.74,126.95v-4.1c4.78,1.64,9.48,2.46,14.09,2.46c9.04,0,13.56-2.87,13.56-8.6
				c0-4.64-3.35-6.96-10.04-6.96h-5.49c-9.01,0-13.52-3.82-13.52-11.47c0-8.19,5.97-12.29,17.9-12.29c4.59,0,9.27,0.68,14.05,2.05
				v4.1c-4.78-1.64-9.46-2.46-14.05-2.46c-9.07,0-13.6,2.87-13.6,8.6c0,4.92,3.07,7.37,9.22,7.37h5.49
				c9.56,0,14.34,3.69,14.34,11.06c0,8.19-5.95,12.29-17.86,12.29C345.22,129,340.52,128.32,335.74,126.95z"/>
			<path class="st1" d="M396.08,85.99c11.77,0,17.65,6.51,17.65,19.54c0,0.93-0.03,1.9-0.08,2.91H381
				c0,11.25,5.95,16.88,17.86,16.88c4.89,0,9.23-0.68,13.02-2.05v3.69c-3.8,1.37-8.14,2.05-13.02,2.05c-14.77,0-22.16-7.33-22.16-22
				C376.7,92.99,383.16,85.99,396.08,85.99z M381,104.59h28.59c-0.16-9.99-4.67-14.99-13.52-14.99
				C386.52,89.59,381.49,94.59,381,104.59z"/>
		</g>
		<g>
			<rect x="129" y="67.37" class="st1" width="4.3" height="4.3"/>
		</g>
	</g>
</g>
</svg>
