<?xml version="1.0" encoding="utf-8"?>
<!-- Generator: Adobe Illustrator 24.0.2, SVG Export Plug-In . SVG Version: 6.00 Build 0)  -->
<svg version="1.1" id="Camada_1" xmlns="http://www.w3.org/2000/svg" xmlns:xlink="http://www.w3.org/1999/xlink" x="0px" y="0px"
	 viewBox="0 0 800 850" style="enable-background:new 0 0 800 850;" xml:space="preserve">
<style type="text/css">
	.st0{fill:#101820;}
	.st1{fill:#0A0E13;}
</style>
<rect class="st0" width="800" height="850"/>
<g>
	<g>
		<g>
			<path class="st1" d="M9.5,40.5v9h-9v-9H9.5 M10,40H0v10h10V40L10,40z"/>
		</g>
		<g>
			<path class="st1" d="M9.5,90.5v9h-9v-9H9.5 M10,90H0v10h10V90L10,90z"/>
		</g>
		<g>
			<path class="st1" d="M9.5,140.5v9h-9v-9H9.5 M10,140H0v10h10V140L10,140z"/>
		</g>
		<g>
			<path class="st1" d="M9.5,190.5v9h-9v-9H9.5 M10,190H0v10h10V190L10,190z"/>
		</g>
		<g>
			<path class="st1" d="M9.5,240.5v9h-9v-9H9.5 M10,240H0v10h10V240L10,240z"/>
		</g>
		<g>
			<path class="st1" d="M9.5,290.5v9h-9v-9H9.5 M10,290H0v10h10V290L10,290z"/>
		</g>
		<g>
			<path class="st1" d="M9.5,340.5v9h-9v-9H9.5 M10,340H0v10h10V340L10,340z"/>
		</g>
		<g>
			<path class="st1" d="M9.5,390.5v9h-9v-9H9.5 M10,390H0v10h10V390L10,390z"/>
		</g>
		<g>
			<path class="st1" d="M9.5,440.5v9h-9v-9H9.5 M10,440H0v10h10V440L10,440z"/>
		</g>
		<g>
			<path class="st1" d="M9.5,490.5v9h-9v-9H9.5 M10,490H0v10h10V490L10,490z"/>
		</g>
		<g>
			<path class="st1" d="M9.5,540.5v9h-9v-9H9.5 M10,540H0v10h10V540L10,540z"/>
		</g>
		<g>
			<rect x="0.25" y="590.25" class="st1" width="9.5" height="9.5"/>
			<path class="st1" d="M9.5,590.5v9h-9v-9H9.5 M10,590H0v10h10V590L10,590z"/>
		</g>
		<g>
			<path class="st1" d="M9.5,640.5v9h-9v-9H9.5 M10,640H0v10h10V640L10,640z"/>
		</g>
		<g>
			<path class="st1" d="M9.5,690.5v9h-9v-9H9.5 M10,690H0v10h10V690L10,690z"/>
		</g>
		<g>
			<path class="st1" d="M9.5,740.5v9h-9v-9H9.5 M10,740H0v10h10V740L10,740z"/>
		</g>
		<g>
			<path class="st1" d="M9.5,790.5v9h-9v-9H9.5 M10,790H0v10h10V790L10,790z"/>
		</g>
		<g>
			<path class="st1" d="M9.5,840.5v9h-9v-9H9.5 M10,840H0v10h10V840L10,840z"/>
		</g>
	</g>
	<g>
		<g>
			<rect x="50.25" y="40.25" class="st1" width="9.5" height="9.5"/>
			<path class="st1" d="M59.5,40.5v9h-9v-9H59.5 M60,40H50v10h10V40L60,40z"/>
		</g>
		<g>
			<path class="st1" d="M59.5,90.5v9h-9v-9H59.5 M60,90H50v10h10V90L60,90z"/>
		</g>
		<g>
			<path class="st1" d="M59.5,140.5v9h-9v-9H59.5 M60,140H50v10h10V140L60,140z"/>
		</g>
		<g>
			<path class="st1" d="M59.5,190.5v9h-9v-9H59.5 M60,190H50v10h10V190L60,190z"/>
		</g>
		<g>
			<path class="st1" d="M59.5,240.5v9h-9v-9H59.5 M60,240H50v10h10V240L60,240z"/>
		</g>
		<g>
			<path class="st1" d="M59.5,290.5v9h-9v-9H59.5 M60,290H50v10h10V290L60,290z"/>
		</g>
		<g>
			<path class="st1" d="M59.5,340.5v9h-9v-9H59.5 M60,340H50v10h10V340L60,340z"/>
		</g>
		<g>
			<path class="st1" d="M59.5,390.5v9h-9v-9H59.5 M60,390H50v10h10V390L60,390z"/>
		</g>
		<g>
			<path class="st1" d="M59.5,440.5v9h-9v-9H59.5 M60,440H50v10h10V440L60,440z"/>
		</g>
		<g>
			<rect x="50.25" y="490.25" class="st1" width="9.5" height="9.5"/>
			<path class="st1" d="M59.5,490.5v9h-9v-9H59.5 M60,490H50v10h10V490L60,490z"/>
		</g>
		<g>
			<path class="st1" d="M59.5,540.5v9h-9v-9H59.5 M60,540H50v10h10V540L60,540z"/>
		</g>
		<g>
			<path class="st1" d="M59.5,590.5v9h-9v-9H59.5 M60,590H50v10h10V590L60,590z"/>
		</g>
		<g>
			<path class="st1" d="M59.5,640.5v9h-9v-9H59.5 M60,640H50v10h10V640L60,640z"/>
		</g>
		<g>
			<path class="st1" d="M59.5,690.5v9h-9v-9H59.5 M60,690H50v10h10V690L60,690z"/>
		</g>
		<g>
			<path class="st1" d="M59.5,740.5v9h-9v-9H59.5 M60,740H50v10h10V740L60,740z"/>
		</g>
		<g>
			<rect x="50.25" y="790.25" class="st1" width="9.5" height="9.5"/>
			<path class="st1" d="M59.5,790.5v9h-9v-9H59.5 M60,790H50v10h10V790L60,790z"/>
		</g>
		<g>
			<path class="st1" d="M59.5,840.5v9h-9v-9H59.5 M60,840H50v10h10V840L60,840z"/>
		</g>
	</g>
	<g>
		<g>
			<path class="st1" d="M109.5,40.5v9h-9v-9H109.5 M110,40h-10v10h10V40L110,40z"/>
		</g>
		<g>
			<path class="st1" d="M109.5,90.5v9h-9v-9H109.5 M110,90h-10v10h10V90L110,90z"/>
		</g>
		<g>
			<path class="st1" d="M109.5,140.5v9h-9v-9H109.5 M110,140h-10v10h10V140L110,140z"/>
		</g>
		<g>
			<path class="st1" d="M109.5,190.5v9h-9v-9H109.5 M110,190h-10v10h10V190L110,190z"/>
		</g>
		<g>
			<rect x="100.25" y="240.25" class="st1" width="9.5" height="9.5"/>
			<path class="st1" d="M109.5,240.5v9h-9v-9H109.5 M110,240h-10v10h10V240L110,240z"/>
		</g>
		<g>
			<path class="st1" d="M109.5,290.5v9h-9v-9H109.5 M110,290h-10v10h10V290L110,290z"/>
		</g>
		<g>
			<path class="st1" d="M109.5,340.5v9h-9v-9H109.5 M110,340h-10v10h10V340L110,340z"/>
		</g>
		<g>
			<path class="st1" d="M109.5,390.5v9h-9v-9H109.5 M110,390h-10v10h10V390L110,390z"/>
		</g>
		<g>
			<path class="st1" d="M109.5,440.5v9h-9v-9H109.5 M110,440h-10v10h10V440L110,440z"/>
		</g>
		<g>
			<path class="st1" d="M109.5,490.5v9h-9v-9H109.5 M110,490h-10v10h10V490L110,490z"/>
		</g>
		<g>
			<path class="st1" d="M109.5,540.5v9h-9v-9H109.5 M110,540h-10v10h10V540L110,540z"/>
		</g>
		<g>
			<path class="st1" d="M109.5,590.5v9h-9v-9H109.5 M110,590h-10v10h10V590L110,590z"/>
		</g>
		<g>
			<path class="st1" d="M109.5,640.5v9h-9v-9H109.5 M110,640h-10v10h10V640L110,640z"/>
		</g>
		<g>
			<path class="st1" d="M109.5,690.5v9h-9v-9H109.5 M110,690h-10v10h10V690L110,690z"/>
		</g>
		<g>
			<path class="st1" d="M109.5,740.5v9h-9v-9H109.5 M110,740h-10v10h10V740L110,740z"/>
		</g>
		<g>
			<path class="st1" d="M109.5,790.5v9h-9v-9H109.5 M110,790h-10v10h10V790L110,790z"/>
		</g>
		<g>
			<path class="st1" d="M109.5,840.5v9h-9v-9H109.5 M110,840h-10v10h10V840L110,840z"/>
		</g>
	</g>
	<g>
		<g>
			<path class="st1" d="M159.5,40.5v9h-9v-9H159.5 M160,40h-10v10h10V40L160,40z"/>
		</g>
		<g>
			<path class="st1" d="M159.5,90.5v9h-9v-9H159.5 M160,90h-10v10h10V90L160,90z"/>
		</g>
		<g>
			<path class="st1" d="M159.5,140.5v9h-9v-9H159.5 M160,140h-10v10h10V140L160,140z"/>
		</g>
		<g>
			<path class="st1" d="M159.5,190.5v9h-9v-9H159.5 M160,190h-10v10h10V190L160,190z"/>
		</g>
		<g>
			<path class="st1" d="M159.5,240.5v9h-9v-9H159.5 M160,240h-10v10h10V240L160,240z"/>
		</g>
		<g>
			<path class="st1" d="M159.5,290.5v9h-9v-9H159.5 M160,290h-10v10h10V290L160,290z"/>
		</g>
		<g>
			<path class="st1" d="M159.5,340.5v9h-9v-9H159.5 M160,340h-10v10h10V340L160,340z"/>
		</g>
		<g>
			<path class="st1" d="M159.5,390.5v9h-9v-9H159.5 M160,390h-10v10h10V390L160,390z"/>
		</g>
		<g>
			<path class="st1" d="M159.5,440.5v9h-9v-9H159.5 M160,440h-10v10h10V440L160,440z"/>
		</g>
		<g>
			<path class="st1" d="M159.5,490.5v9h-9v-9H159.5 M160,490h-10v10h10V490L160,490z"/>
		</g>
		<g>
			<path class="st1" d="M159.5,540.5v9h-9v-9H159.5 M160,540h-10v10h10V540L160,540z"/>
		</g>
		<g>
			<path class="st1" d="M159.5,590.5v9h-9v-9H159.5 M160,590h-10v10h10V590L160,590z"/>
		</g>
		<g>
			<path class="st1" d="M159.5,640.5v9h-9v-9H159.5 M160,640h-10v10h10V640L160,640z"/>
		</g>
		<g>
			<path class="st1" d="M159.5,690.5v9h-9v-9H159.5 M160,690h-10v10h10V690L160,690z"/>
		</g>
		<g>
			<rect x="150.25" y="740.25" class="st1" width="9.5" height="9.5"/>
			<path class="st1" d="M159.5,740.5v9h-9v-9H159.5 M160,740h-10v10h10V740L160,740z"/>
		</g>
		<g>
			<path class="st1" d="M159.5,790.5v9h-9v-9H159.5 M160,790h-10v10h10V790L160,790z"/>
		</g>
		<g>
			<path class="st1" d="M159.5,840.5v9h-9v-9H159.5 M160,840h-10v10h10V840L160,840z"/>
		</g>
	</g>
	<g>
		<g>
			<path class="st1" d="M209.5,40.5v9h-9v-9H209.5 M210,40h-10v10h10V40L210,40z"/>
		</g>
		<g>
			<path class="st1" d="M209.5,90.5v9h-9v-9H209.5 M210,90h-10v10h10V90L210,90z"/>
		</g>
		<g>
			<rect x="200.25" y="140.25" class="st1" width="9.5" height="9.5"/>
			<path class="st1" d="M209.5,140.5v9h-9v-9H209.5 M210,140h-10v10h10V140L210,140z"/>
		</g>
		<g>
			<path class="st1" d="M209.5,190.5v9h-9v-9H209.5 M210,190h-10v10h10V190L210,190z"/>
		</g>
		<g>
			<path class="st1" d="M209.5,240.5v9h-9v-9H209.5 M210,240h-10v10h10V240L210,240z"/>
		</g>
		<g>
			<path class="st1" d="M209.5,290.5v9h-9v-9H209.5 M210,290h-10v10h10V290L210,290z"/>
		</g>
		<g>
			<path class="st1" d="M209.5,340.5v9h-9v-9H209.5 M210,340h-10v10h10V340L210,340z"/>
		</g>
		<g>
			<path class="st1" d="M209.5,390.5v9h-9v-9H209.5 M210,390h-10v10h10V390L210,390z"/>
		</g>
		<g>
			<path class="st1" d="M209.5,440.5v9h-9v-9H209.5 M210,440h-10v10h10V440L210,440z"/>
		</g>
		<g>
			<path class="st1" d="M209.5,490.5v9h-9v-9H209.5 M210,490h-10v10h10V490L210,490z"/>
		</g>
		<g>
			<path class="st1" d="M209.5,540.5v9h-9v-9H209.5 M210,540h-10v10h10V540L210,540z"/>
		</g>
		<g>
			<path class="st1" d="M209.5,590.5v9h-9v-9H209.5 M210,590h-10v10h10V590L210,590z"/>
		</g>
		<g>
			<path class="st1" d="M209.5,640.5v9h-9v-9H209.5 M210,640h-10v10h10V640L210,640z"/>
		</g>
		<g>
			<path class="st1" d="M209.5,690.5v9h-9v-9H209.5 M210,690h-10v10h10V690L210,690z"/>
		</g>
		<g>
			<path class="st1" d="M209.5,740.5v9h-9v-9H209.5 M210,740h-10v10h10V740L210,740z"/>
		</g>
		<g>
			<path class="st1" d="M209.5,790.5v9h-9v-9H209.5 M210,790h-10v10h10V790L210,790z"/>
		</g>
		<g>
			<path class="st1" d="M209.5,840.5v9h-9v-9H209.5 M210,840h-10v10h10V840L210,840z"/>
		</g>
	</g>
	<g>
		<g>
			<path class="st1" d="M259.5,40.5v9h-9v-9H259.5 M260,40h-10v10h10V40L260,40z"/>
		</g>
		<g>
			<path class="st1" d="M259.5,90.5v9h-9v-9H259.5 M260,90h-10v10h10V90L260,90z"/>
		</g>
		<g>
			<path class="st1" d="M259.5,140.5v9h-9v-9H259.5 M260,140h-10v10h10V140L260,140z"/>
		</g>
		<g>
			<path class="st1" d="M259.5,190.5v9h-9v-9H259.5 M260,190h-10v10h10V190L260,190z"/>
		</g>
		<g>
			<path class="st1" d="M259.5,240.5v9h-9v-9H259.5 M260,240h-10v10h10V240L260,240z"/>
		</g>
		<g>
			<path class="st1" d="M259.5,290.5v9h-9v-9H259.5 M260,290h-10v10h10V290L260,290z"/>
		</g>
		<g>
			<path class="st1" d="M259.5,340.5v9h-9v-9H259.5 M260,340h-10v10h10V340L260,340z"/>
		</g>
		<g>
			<rect x="250.25" y="390.25" class="st1" width="9.5" height="9.5"/>
			<path class="st1" d="M259.5,390.5v9h-9v-9H259.5 M260,390h-10v10h10V390L260,390z"/>
		</g>
		<g>
			<path class="st1" d="M259.5,440.5v9h-9v-9H259.5 M260,440h-10v10h10V440L260,440z"/>
		</g>
		<g>
			<path class="st1" d="M259.5,490.5v9h-9v-9H259.5 M260,490h-10v10h10V490L260,490z"/>
		</g>
		<g>
			<path class="st1" d="M259.5,540.5v9h-9v-9H259.5 M260,540h-10v10h10V540L260,540z"/>
		</g>
		<g>
			<path class="st1" d="M259.5,590.5v9h-9v-9H259.5 M260,590h-10v10h10V590L260,590z"/>
		</g>
		<g>
			<path class="st1" d="M259.5,640.5v9h-9v-9H259.5 M260,640h-10v10h10V640L260,640z"/>
		</g>
		<g>
			<path class="st1" d="M259.5,690.5v9h-9v-9H259.5 M260,690h-10v10h10V690L260,690z"/>
		</g>
		<g>
			<path class="st1" d="M259.5,740.5v9h-9v-9H259.5 M260,740h-10v10h10V740L260,740z"/>
		</g>
		<g>
			<path class="st1" d="M259.5,790.5v9h-9v-9H259.5 M260,790h-10v10h10V790L260,790z"/>
		</g>
		<g>
			<path class="st1" d="M259.5,840.5v9h-9v-9H259.5 M260,840h-10v10h10V840L260,840z"/>
		</g>
	</g>
	<g>
		<g>
			<path class="st1" d="M309.5,40.5v9h-9v-9H309.5 M310,40h-10v10h10V40L310,40z"/>
		</g>
		<g>
			<path class="st1" d="M309.5,90.5v9h-9v-9H309.5 M310,90h-10v10h10V90L310,90z"/>
		</g>
		<g>
			<path class="st1" d="M309.5,140.5v9h-9v-9H309.5 M310,140h-10v10h10V140L310,140z"/>
		</g>
		<g>
			<path class="st1" d="M309.5,190.5v9h-9v-9H309.5 M310,190h-10v10h10V190L310,190z"/>
		</g>
		<g>
			<path class="st1" d="M309.5,240.5v9h-9v-9H309.5 M310,240h-10v10h10V240L310,240z"/>
		</g>
		<g>
			<path class="st1" d="M309.5,290.5v9h-9v-9H309.5 M310,290h-10v10h10V290L310,290z"/>
		</g>
		<g>
			<path class="st1" d="M309.5,340.5v9h-9v-9H309.5 M310,340h-10v10h10V340L310,340z"/>
		</g>
		<g>
			<path class="st1" d="M309.5,390.5v9h-9v-9H309.5 M310,390h-10v10h10V390L310,390z"/>
		</g>
		<g>
			<path class="st1" d="M309.5,440.5v9h-9v-9H309.5 M310,440h-10v10h10V440L310,440z"/>
		</g>
		<g>
			<path class="st1" d="M309.5,490.5v9h-9v-9H309.5 M310,490h-10v10h10V490L310,490z"/>
		</g>
		<g>
			<path class="st1" d="M309.5,540.5v9h-9v-9H309.5 M310,540h-10v10h10V540L310,540z"/>
		</g>
		<g>
			<path class="st1" d="M309.5,590.5v9h-9v-9H309.5 M310,590h-10v10h10V590L310,590z"/>
		</g>
		<g>
			<rect x="300.25" y="640.25" class="st1" width="9.5" height="9.5"/>
			<path class="st1" d="M309.5,640.5v9h-9v-9H309.5 M310,640h-10v10h10V640L310,640z"/>
		</g>
		<g>
			<path class="st1" d="M309.5,690.5v9h-9v-9H309.5 M310,690h-10v10h10V690L310,690z"/>
		</g>
		<g>
			<path class="st1" d="M309.5,740.5v9h-9v-9H309.5 M310,740h-10v10h10V740L310,740z"/>
		</g>
		<g>
			<path class="st1" d="M309.5,790.5v9h-9v-9H309.5 M310,790h-10v10h10V790L310,790z"/>
		</g>
		<g>
			<path class="st1" d="M309.5,840.5v9h-9v-9H309.5 M310,840h-10v10h10V840L310,840z"/>
		</g>
	</g>
	<g>
		<g>
			<path class="st1" d="M359.5,40.5v9h-9v-9H359.5 M360,40h-10v10h10V40L360,40z"/>
		</g>
		<g>
			<path class="st1" d="M359.5,90.5v9h-9v-9H359.5 M360,90h-10v10h10V90L360,90z"/>
		</g>
		<g>
			<path class="st1" d="M359.5,140.5v9h-9v-9H359.5 M360,140h-10v10h10V140L360,140z"/>
		</g>
		<g>
			<path class="st1" d="M359.5,190.5v9h-9v-9H359.5 M360,190h-10v10h10V190L360,190z"/>
		</g>
		<g>
			<path class="st1" d="M359.5,240.5v9h-9v-9H359.5 M360,240h-10v10h10V240L360,240z"/>
		</g>
		<g>
			<path class="st1" d="M359.5,290.5v9h-9v-9H359.5 M360,290h-10v10h10V290L360,290z"/>
		</g>
		<g>
			<path class="st1" d="M359.5,340.5v9h-9v-9H359.5 M360,340h-10v10h10V340L360,340z"/>
		</g>
		<g>
			<path class="st1" d="M359.5,390.5v9h-9v-9H359.5 M360,390h-10v10h10V390L360,390z"/>
		</g>
		<g>
			<rect x="350.25" y="440.25" class="st1" width="9.5" height="9.5"/>
			<path class="st1" d="M359.5,440.5v9h-9v-9H359.5 M360,440h-10v10h10V440L360,440z"/>
		</g>
		<g>
			<path class="st1" d="M359.5,490.5v9h-9v-9H359.5 M360,490h-10v10h10V490L360,490z"/>
		</g>
		<g>
			<path class="st1" d="M359.5,540.5v9h-9v-9H359.5 M360,540h-10v10h10V540L360,540z"/>
		</g>
		<g>
			<path class="st1" d="M359.5,590.5v9h-9v-9H359.5 M360,590h-10v10h10V590L360,590z"/>
		</g>
		<g>
			<path class="st1" d="M359.5,640.5v9h-9v-9H359.5 M360,640h-10v10h10V640L360,640z"/>
		</g>
		<g>
			<path class="st1" d="M359.5,690.5v9h-9v-9H359.5 M360,690h-10v10h10V690L360,690z"/>
		</g>
		<g>
			<path class="st1" d="M359.5,740.5v9h-9v-9H359.5 M360,740h-10v10h10V740L360,740z"/>
		</g>
		<g>
			<path class="st1" d="M359.5,790.5v9h-9v-9H359.5 M360,790h-10v10h10V790L360,790z"/>
		</g>
		<g>
			<path class="st1" d="M359.5,840.5v9h-9v-9H359.5 M360,840h-10v10h10V840L360,840z"/>
		</g>
	</g>
	<g>
		<g>
			<path class="st1" d="M409.5,40.5v9h-9v-9H409.5 M410,40h-10v10h10V40L410,40z"/>
		</g>
		<g>
			<path class="st1" d="M409.5,90.5v9h-9v-9H409.5 M410,90h-10v10h10V90L410,90z"/>
		</g>
		<g>
			<path class="st1" d="M409.5,140.5v9h-9v-9H409.5 M410,140h-10v10h10V140L410,140z"/>
		</g>
		<g>
			<path class="st1" d="M409.5,190.5v9h-9v-9H409.5 M410,190h-10v10h10V190L410,190z"/>
		</g>
		<g>
			<path class="st1" d="M409.5,240.5v9h-9v-9H409.5 M410,240h-10v10h10V240L410,240z"/>
		</g>
		<g>
			<path class="st1" d="M409.5,290.5v9h-9v-9H409.5 M410,290h-10v10h10V290L410,290z"/>
		</g>
		<g>
			<rect x="400.25" y="340.25" class="st1" width="9.5" height="9.5"/>
			<path class="st1" d="M409.5,340.5v9h-9v-9H409.5 M410,340h-10v10h10V340L410,340z"/>
		</g>
		<g>
			<path class="st1" d="M409.5,390.5v9h-9v-9H409.5 M410,390h-10v10h10V390L410,390z"/>
		</g>
		<g>
			<path class="st1" d="M409.5,440.5v9h-9v-9H409.5 M410,440h-10v10h10V440L410,440z"/>
		</g>
		<g>
			<path class="st1" d="M409.5,490.5v9h-9v-9H409.5 M410,490h-10v10h10V490L410,490z"/>
		</g>
		<g>
			<path class="st1" d="M409.5,540.5v9h-9v-9H409.5 M410,540h-10v10h10V540L410,540z"/>
		</g>
		<g>
			<path class="st1" d="M409.5,590.5v9h-9v-9H409.5 M410,590h-10v10h10V590L410,590z"/>
		</g>
		<g>
			<path class="st1" d="M409.5,640.5v9h-9v-9H409.5 M410,640h-10v10h10V640L410,640z"/>
		</g>
		<g>
			<path class="st1" d="M409.5,690.5v9h-9v-9H409.5 M410,690h-10v10h10V690L410,690z"/>
		</g>
		<g>
			<path class="st1" d="M409.5,740.5v9h-9v-9H409.5 M410,740h-10v10h10V740L410,740z"/>
		</g>
		<g>
			<path class="st1" d="M409.5,790.5v9h-9v-9H409.5 M410,790h-10v10h10V790L410,790z"/>
		</g>
		<g>
			<path class="st1" d="M409.5,840.5v9h-9v-9H409.5 M410,840h-10v10h10V840L410,840z"/>
		</g>
	</g>
	<g>
		<g>
			<path class="st1" d="M459.5,40.5v9h-9v-9H459.5 M460,40h-10v10h10V40L460,40z"/>
		</g>
		<g>
			<path class="st1" d="M459.5,90.5v9h-9v-9H459.5 M460,90h-10v10h10V90L460,90z"/>
		</g>
		<g>
			<path class="st1" d="M459.5,140.5v9h-9v-9H459.5 M460,140h-10v10h10V140L460,140z"/>
		</g>
		<g>
			<path class="st1" d="M459.5,190.5v9h-9v-9H459.5 M460,190h-10v10h10V190L460,190z"/>
		</g>
		<g>
			<path class="st1" d="M459.5,240.5v9h-9v-9H459.5 M460,240h-10v10h10V240L460,240z"/>
		</g>
		<g>
			<path class="st1" d="M459.5,290.5v9h-9v-9H459.5 M460,290h-10v10h10V290L460,290z"/>
		</g>
		<g>
			<path class="st1" d="M459.5,340.5v9h-9v-9H459.5 M460,340h-10v10h10V340L460,340z"/>
		</g>
		<g>
			<path class="st1" d="M459.5,390.5v9h-9v-9H459.5 M460,390h-10v10h10V390L460,390z"/>
		</g>
		<g>
			<path class="st1" d="M459.5,440.5v9h-9v-9H459.5 M460,440h-10v10h10V440L460,440z"/>
		</g>
		<g>
			<path class="st1" d="M459.5,490.5v9h-9v-9H459.5 M460,490h-10v10h10V490L460,490z"/>
		</g>
		<g>
			<path class="st1" d="M459.5,540.5v9h-9v-9H459.5 M460,540h-10v10h10V540L460,540z"/>
		</g>
		<g>
			<path class="st1" d="M459.5,590.5v9h-9v-9H459.5 M460,590h-10v10h10V590L460,590z"/>
		</g>
		<g>
			<path class="st1" d="M459.5,640.5v9h-9v-9H459.5 M460,640h-10v10h10V640L460,640z"/>
		</g>
		<g>
			<path class="st1" d="M459.5,690.5v9h-9v-9H459.5 M460,690h-10v10h10V690L460,690z"/>
		</g>
		<g>
			<path class="st1" d="M459.5,740.5v9h-9v-9H459.5 M460,740h-10v10h10V740L460,740z"/>
		</g>
		<g>
			<path class="st1" d="M459.5,790.5v9h-9v-9H459.5 M460,790h-10v10h10V790L460,790z"/>
		</g>
		<g>
			<rect x="450.25" y="840.25" class="st1" width="9.5" height="9.5"/>
			<path class="st1" d="M459.5,840.5v9h-9v-9H459.5 M460,840h-10v10h10V840L460,840z"/>
		</g>
	</g>
	<g>
		<g>
			<path class="st1" d="M509.5,40.5v9h-9v-9H509.5 M510,40h-10v10h10V40L510,40z"/>
		</g>
		<g>
			<path class="st1" d="M509.5,90.5v9h-9v-9H509.5 M510,90h-10v10h10V90L510,90z"/>
		</g>
		<g>
			<path class="st1" d="M509.5,140.5v9h-9v-9H509.5 M510,140h-10v10h10V140L510,140z"/>
		</g>
		<g>
			<rect x="500.25" y="190.25" class="st1" width="9.5" height="9.5"/>
			<path class="st1" d="M509.5,190.5v9h-9v-9H509.5 M510,190h-10v10h10V190L510,190z"/>
		</g>
		<g>
			<path class="st1" d="M509.5,240.5v9h-9v-9H509.5 M510,240h-10v10h10V240L510,240z"/>
		</g>
		<g>
			<path class="st1" d="M509.5,290.5v9h-9v-9H509.5 M510,290h-10v10h10V290L510,290z"/>
		</g>
		<g>
			<path class="st1" d="M509.5,340.5v9h-9v-9H509.5 M510,340h-10v10h10V340L510,340z"/>
		</g>
		<g>
			<path class="st1" d="M509.5,390.5v9h-9v-9H509.5 M510,390h-10v10h10V390L510,390z"/>
		</g>
		<g>
			<path class="st1" d="M509.5,440.5v9h-9v-9H509.5 M510,440h-10v10h10V440L510,440z"/>
		</g>
		<g>
			<path class="st1" d="M509.5,490.5v9h-9v-9H509.5 M510,490h-10v10h10V490L510,490z"/>
		</g>
		<g>
			<path class="st1" d="M509.5,540.5v9h-9v-9H509.5 M510,540h-10v10h10V540L510,540z"/>
		</g>
		<g>
			<rect x="500.25" y="590.25" class="st1" width="9.5" height="9.5"/>
			<path class="st1" d="M509.5,590.5v9h-9v-9H509.5 M510,590h-10v10h10V590L510,590z"/>
		</g>
		<g>
			<path class="st1" d="M509.5,640.5v9h-9v-9H509.5 M510,640h-10v10h10V640L510,640z"/>
		</g>
		<g>
			<path class="st1" d="M509.5,690.5v9h-9v-9H509.5 M510,690h-10v10h10V690L510,690z"/>
		</g>
		<g>
			<path class="st1" d="M509.5,740.5v9h-9v-9H509.5 M510,740h-10v10h10V740L510,740z"/>
		</g>
		<g>
			<path class="st1" d="M509.5,790.5v9h-9v-9H509.5 M510,790h-10v10h10V790L510,790z"/>
		</g>
		<g>
			<path class="st1" d="M509.5,840.5v9h-9v-9H509.5 M510,840h-10v10h10V840L510,840z"/>
		</g>
	</g>
	<g>
		<g>
			<path class="st1" d="M559.5,40.5v9h-9v-9H559.5 M560,40h-10v10h10V40L560,40z"/>
		</g>
		<g>
			<rect x="550.25" y="90.25" class="st1" width="9.5" height="9.5"/>
			<path class="st1" d="M559.5,90.5v9h-9v-9H559.5 M560,90h-10v10h10V90L560,90z"/>
		</g>
		<g>
			<path class="st1" d="M559.5,140.5v9h-9v-9H559.5 M560,140h-10v10h10V140L560,140z"/>
		</g>
		<g>
			<path class="st1" d="M559.5,190.5v9h-9v-9H559.5 M560,190h-10v10h10V190L560,190z"/>
		</g>
		<g>
			<path class="st1" d="M559.5,240.5v9h-9v-9H559.5 M560,240h-10v10h10V240L560,240z"/>
		</g>
		<g>
			<path class="st1" d="M559.5,290.5v9h-9v-9H559.5 M560,290h-10v10h10V290L560,290z"/>
		</g>
		<g>
			<path class="st1" d="M559.5,340.5v9h-9v-9H559.5 M560,340h-10v10h10V340L560,340z"/>
		</g>
		<g>
			<path class="st1" d="M559.5,390.5v9h-9v-9H559.5 M560,390h-10v10h10V390L560,390z"/>
		</g>
		<g>
			<path class="st1" d="M559.5,440.5v9h-9v-9H559.5 M560,440h-10v10h10V440L560,440z"/>
		</g>
		<g>
			<path class="st1" d="M559.5,490.5v9h-9v-9H559.5 M560,490h-10v10h10V490L560,490z"/>
		</g>
		<g>
			<path class="st1" d="M559.5,540.5v9h-9v-9H559.5 M560,540h-10v10h10V540L560,540z"/>
		</g>
		<g>
			<path class="st1" d="M559.5,590.5v9h-9v-9H559.5 M560,590h-10v10h10V590L560,590z"/>
		</g>
		<g>
			<path class="st1" d="M559.5,640.5v9h-9v-9H559.5 M560,640h-10v10h10V640L560,640z"/>
		</g>
		<g>
			<rect x="550.25" y="690.25" class="st1" width="9.5" height="9.5"/>
			<path class="st1" d="M559.5,690.5v9h-9v-9H559.5 M560,690h-10v10h10V690L560,690z"/>
		</g>
		<g>
			<path class="st1" d="M559.5,740.5v9h-9v-9H559.5 M560,740h-10v10h10V740L560,740z"/>
		</g>
		<g>
			<path class="st1" d="M559.5,790.5v9h-9v-9H559.5 M560,790h-10v10h10V790L560,790z"/>
		</g>
		<g>
			<path class="st1" d="M559.5,840.5v9h-9v-9H559.5 M560,840h-10v10h10V840L560,840z"/>
		</g>
	</g>
	<g>
		<g>
			<path class="st1" d="M609.5,40.5v9h-9v-9H609.5 M610,40h-10v10h10V40L610,40z"/>
		</g>
		<g>
			<path class="st1" d="M609.5,90.5v9h-9v-9H609.5 M610,90h-10v10h10V90L610,90z"/>
		</g>
		<g>
			<path class="st1" d="M609.5,140.5v9h-9v-9H609.5 M610,140h-10v10h10V140L610,140z"/>
		</g>
		<g>
			<path class="st1" d="M609.5,190.5v9h-9v-9H609.5 M610,190h-10v10h10V190L610,190z"/>
		</g>
		<g>
			<path class="st1" d="M609.5,240.5v9h-9v-9H609.5 M610,240h-10v10h10V240L610,240z"/>
		</g>
		<g>
			<path class="st1" d="M609.5,290.5v9h-9v-9H609.5 M610,290h-10v10h10V290L610,290z"/>
		</g>
		<g>
			<path class="st1" d="M609.5,340.5v9h-9v-9H609.5 M610,340h-10v10h10V340L610,340z"/>
		</g>
		<g>
			<path class="st1" d="M609.5,390.5v9h-9v-9H609.5 M610,390h-10v10h10V390L610,390z"/>
		</g>
		<g>
			<path class="st1" d="M609.5,440.5v9h-9v-9H609.5 M610,440h-10v10h10V440L610,440z"/>
		</g>
		<g>
			<path class="st1" d="M609.5,490.5v9h-9v-9H609.5 M610,490h-10v10h10V490L610,490z"/>
		</g>
		<g>
			<path class="st1" d="M609.5,540.5v9h-9v-9H609.5 M610,540h-10v10h10V540L610,540z"/>
		</g>
		<g>
			<path class="st1" d="M609.5,590.5v9h-9v-9H609.5 M610,590h-10v10h10V590L610,590z"/>
		</g>
		<g>
			<path class="st1" d="M609.5,640.5v9h-9v-9H609.5 M610,640h-10v10h10V640L610,640z"/>
		</g>
		<g>
			<path class="st1" d="M609.5,690.5v9h-9v-9H609.5 M610,690h-10v10h10V690L610,690z"/>
		</g>
		<g>
			<path class="st1" d="M609.5,740.5v9h-9v-9H609.5 M610,740h-10v10h10V740L610,740z"/>
		</g>
		<g>
			<path class="st1" d="M609.5,790.5v9h-9v-9H609.5 M610,790h-10v10h10V790L610,790z"/>
		</g>
		<g>
			<path class="st1" d="M609.5,840.5v9h-9v-9H609.5 M610,840h-10v10h10V840L610,840z"/>
		</g>
	</g>
	<g>
		<g>
			<path class="st1" d="M659.5,40.5v9h-9v-9H659.5 M660,40h-10v10h10V40L660,40z"/>
		</g>
		<g>
			<path class="st1" d="M659.5,90.5v9h-9v-9H659.5 M660,90h-10v10h10V90L660,90z"/>
		</g>
		<g>
			<path class="st1" d="M659.5,140.5v9h-9v-9H659.5 M660,140h-10v10h10V140L660,140z"/>
		</g>
		<g>
			<path class="st1" d="M659.5,190.5v9h-9v-9H659.5 M660,190h-10v10h10V190L660,190z"/>
		</g>
		<g>
			<path class="st1" d="M659.5,240.5v9h-9v-9H659.5 M660,240h-10v10h10V240L660,240z"/>
		</g>
		<g>
			<path class="st1" d="M659.5,290.5v9h-9v-9H659.5 M660,290h-10v10h10V290L660,290z"/>
		</g>
		<g>
			<path class="st1" d="M659.5,340.5v9h-9v-9H659.5 M660,340h-10v10h10V340L660,340z"/>
		</g>
		<g>
			<path class="st1" d="M659.5,390.5v9h-9v-9H659.5 M660,390h-10v10h10V390L660,390z"/>
		</g>
		<g>
			<path class="st1" d="M659.5,440.5v9h-9v-9H659.5 M660,440h-10v10h10V440L660,440z"/>
		</g>
		<g>
			<path class="st1" d="M659.5,490.5v9h-9v-9H659.5 M660,490h-10v10h10V490L660,490z"/>
		</g>
		<g>
			<path class="st1" d="M659.5,540.5v9h-9v-9H659.5 M660,540h-10v10h10V540L660,540z"/>
		</g>
		<g>
			<path class="st1" d="M659.5,590.5v9h-9v-9H659.5 M660,590h-10v10h10V590L660,590z"/>
		</g>
		<g>
			<path class="st1" d="M659.5,640.5v9h-9v-9H659.5 M660,640h-10v10h10V640L660,640z"/>
		</g>
		<g>
			<path class="st1" d="M659.5,690.5v9h-9v-9H659.5 M660,690h-10v10h10V690L660,690z"/>
		</g>
		<g>
			<path class="st1" d="M659.5,740.5v9h-9v-9H659.5 M660,740h-10v10h10V740L660,740z"/>
		</g>
		<g>
			<path class="st1" d="M659.5,790.5v9h-9v-9H659.5 M660,790h-10v10h10V790L660,790z"/>
		</g>
		<g>
			<path class="st1" d="M659.5,840.5v9h-9v-9H659.5 M660,840h-10v10h10V840L660,840z"/>
		</g>
	</g>
	<g>
		<g>
			<path class="st1" d="M709.5,40.5v9h-9v-9H709.5 M710,40h-10v10h10V40L710,40z"/>
		</g>
		<g>
			<path class="st1" d="M709.5,90.5v9h-9v-9H709.5 M710,90h-10v10h10V90L710,90z"/>
		</g>
		<g>
			<path class="st1" d="M709.5,140.5v9h-9v-9H709.5 M710,140h-10v10h10V140L710,140z"/>
		</g>
		<g>
			<path class="st1" d="M709.5,190.5v9h-9v-9H709.5 M710,190h-10v10h10V190L710,190z"/>
		</g>
		<g>
			<path class="st1" d="M709.5,240.5v9h-9v-9H709.5 M710,240h-10v10h10V240L710,240z"/>
		</g>
		<g>
			<path class="st1" d="M709.5,290.5v9h-9v-9H709.5 M710,290h-10v10h10V290L710,290z"/>
		</g>
		<g>
			<path class="st1" d="M709.5,340.5v9h-9v-9H709.5 M710,340h-10v10h10V340L710,340z"/>
		</g>
		<g>
			<path class="st1" d="M709.5,390.5v9h-9v-9H709.5 M710,390h-10v10h10V390L710,390z"/>
		</g>
		<g>
			<path class="st1" d="M709.5,440.5v9h-9v-9H709.5 M710,440h-10v10h10V440L710,440z"/>
		</g>
		<g>
			<path class="st1" d="M709.5,490.5v9h-9v-9H709.5 M710,490h-10v10h10V490L710,490z"/>
		</g>
		<g>
			<rect x="700.25" y="540.25" class="st1" width="9.5" height="9.5"/>
			<path class="st1" d="M709.5,540.5v9h-9v-9H709.5 M710,540h-10v10h10V540L710,540z"/>
		</g>
		<g>
			<path class="st1" d="M709.5,590.5v9h-9v-9H709.5 M710,590h-10v10h10V590L710,590z"/>
		</g>
		<g>
			<path class="st1" d="M709.5,640.5v9h-9v-9H709.5 M710,640h-10v10h10V640L710,640z"/>
		</g>
		<g>
			<path class="st1" d="M709.5,690.5v9h-9v-9H709.5 M710,690h-10v10h10V690L710,690z"/>
		</g>
		<g>
			<path class="st1" d="M709.5,740.5v9h-9v-9H709.5 M710,740h-10v10h10V740L710,740z"/>
		</g>
		<g>
			<rect x="700.25" y="790.25" class="st1" width="9.5" height="9.5"/>
			<path class="st1" d="M709.5,790.5v9h-9v-9H709.5 M710,790h-10v10h10V790L710,790z"/>
		</g>
		<g>
			<path class="st1" d="M709.5,840.5v9h-9v-9H709.5 M710,840h-10v10h10V840L710,840z"/>
		</g>
	</g>
	<g>
		<g>
			<path class="st1" d="M759.5,40.5v9h-9v-9H759.5 M760,40h-10v10h10V40L760,40z"/>
		</g>
		<g>
			<path class="st1" d="M759.5,90.5v9h-9v-9H759.5 M760,90h-10v10h10V90L760,90z"/>
		</g>
		<g>
			<rect x="750.25" y="140.25" class="st1" width="9.5" height="9.5"/>
			<path class="st1" d="M759.5,140.5v9h-9v-9H759.5 M760,140h-10v10h10V140L760,140z"/>
		</g>
		<g>
			<path class="st1" d="M759.5,190.5v9h-9v-9H759.5 M760,190h-10v10h10V190L760,190z"/>
		</g>
		<g>
			<path class="st1" d="M759.5,240.5v9h-9v-9H759.5 M760,240h-10v10h10V240L760,240z"/>
		</g>
		<g>
			<rect x="750.25" y="290.25" class="st1" width="9.5" height="9.5"/>
			<path class="st1" d="M759.5,290.5v9h-9v-9H759.5 M760,290h-10v10h10V290L760,290z"/>
		</g>
		<g>
			<path class="st1" d="M759.5,340.5v9h-9v-9H759.5 M760,340h-10v10h10V340L760,340z"/>
		</g>
		<g>
			<rect x="750.25" y="390.25" class="st1" width="9.5" height="9.5"/>
			<path class="st1" d="M759.5,390.5v9h-9v-9H759.5 M760,390h-10v10h10V390L760,390z"/>
		</g>
		<g>
			<path class="st1" d="M759.5,440.5v9h-9v-9H759.5 M760,440h-10v10h10V440L760,440z"/>
		</g>
		<g>
			<path class="st1" d="M759.5,490.5v9h-9v-9H759.5 M760,490h-10v10h10V490L760,490z"/>
		</g>
		<g>
			<path class="st1" d="M759.5,540.5v9h-9v-9H759.5 M760,540h-10v10h10V540L760,540z"/>
		</g>
		<g>
			<path class="st1" d="M759.5,590.5v9h-9v-9H759.5 M760,590h-10v10h10V590L760,590z"/>
		</g>
		<g>
			<path class="st1" d="M759.5,640.5v9h-9v-9H759.5 M760,640h-10v10h10V640L760,640z"/>
		</g>
		<g>
			<path class="st1" d="M759.5,690.5v9h-9v-9H759.5 M760,690h-10v10h10V690L760,690z"/>
		</g>
		<g>
			<path class="st1" d="M759.5,740.5v9h-9v-9H759.5 M760,740h-10v10h10V740L760,740z"/>
		</g>
		<g>
			<path class="st1" d="M759.5,790.5v9h-9v-9H759.5 M760,790h-10v10h10V790L760,790z"/>
		</g>
		<g>
			<path class="st1" d="M759.5,840.5v9h-9v-9H759.5 M760,840h-10v10h10V840L760,840z"/>
		</g>
	</g>
</g>
</svg>
