<?xml version="1.0" encoding="utf-8"?>
<!-- Generator: Adobe Illustrator 24.0.2, SVG Export Plug-In . SVG Version: 6.00 Build 0)  -->
<svg version="1.1" id="Camada_1" xmlns="http://www.w3.org/2000/svg" xmlns:xlink="http://www.w3.org/1999/xlink" x="0px" y="0px"
	 viewBox="0 0 500 500" style="enable-background:new 0 0 500 500;" xml:space="preserve">
<style type="text/css">
	.st0{fill:#E4002B;}
</style>
<g>
	<rect x="465.11" y="0.01" class="st0" width="34.89" height="34.89"/>
	<g>
		<g>
			<path class="st0" d="M50.38,449.62v30.97H19.41v-30.97H50.38 M52.34,447.65H17.45v34.89h34.89V447.65L52.34,447.65z"/>
			<polygon class="st0" points="401.27,98.72 348.93,163.38 279.15,249.58 191.91,357.34 191.91,482.55 135.9,426.53 104.68,465.1 
				87.23,412.76 34.89,395.31 73.46,364.09 17.45,308.08 142.65,308.08 250.41,220.85 336.61,151.06 			"/>
		</g>
		<g>
			<path class="st0" d="M319.98,153.02l-81.35,65.86H69.79h-0.81l-0.58,0.58L1.96,285.89V153.02H319.98 M325.53,151.06H0v139.57
				l69.79-69.79h169.54L325.53,151.06L325.53,151.06z"/>
			<path class="st0" d="M346.97,180.01v318.02H214.1l66.43-66.43l0.58-0.58v-0.81V261.36L346.97,180.01 M348.93,174.46l-69.79,86.2
				V430.2l-69.79,69.79h139.57V174.46L348.93,174.46z"/>
		</g>
	</g>
</g>
</svg>
