<?xml version="1.0" encoding="utf-8"?>
<!-- Generator: Adobe Illustrator 24.0.2, SVG Export Plug-In . SVG Version: 6.00 Build 0)  -->
<svg version="1.1" id="Camada_1" xmlns="http://www.w3.org/2000/svg" xmlns:xlink="http://www.w3.org/1999/xlink" x="0px" y="0px"
	 viewBox="0 0 760 810" style="enable-background:new 0 0 760 810;" xml:space="preserve">
<style type="text/css">
	.st0{fill:#E4002B;}
</style>
<g>
	<g>
		<g>
			<path class="st0" d="M9.5,0.5v9h-9v-9H9.5 M10,0H0v10h10V0L10,0z"/>
		</g>
		<g>
			<path class="st0" d="M9.5,50.5v9h-9v-9H9.5 M10,50H0v10h10V50L10,50z"/>
		</g>
		<g>
			<path class="st0" d="M9.5,100.5v9h-9v-9H9.5 M10,100H0v10h10V100L10,100z"/>
		</g>
		<g>
			<path class="st0" d="M9.5,150.5v9h-9v-9H9.5 M10,150H0v10h10V150L10,150z"/>
		</g>
		<g>
			<path class="st0" d="M9.5,200.5v9h-9v-9H9.5 M10,200H0v10h10V200L10,200z"/>
		</g>
		<g>
			<path class="st0" d="M9.5,250.5v9h-9v-9H9.5 M10,250H0v10h10V250L10,250z"/>
		</g>
		<g>
			<path class="st0" d="M9.5,300.5v9h-9v-9H9.5 M10,300H0v10h10V300L10,300z"/>
		</g>
		<g>
			<path class="st0" d="M9.5,350.5v9h-9v-9H9.5 M10,350H0v10h10V350L10,350z"/>
		</g>
		<g>
			<path class="st0" d="M9.5,400.5v9h-9v-9H9.5 M10,400H0v10h10V400L10,400z"/>
		</g>
		<g>
			<path class="st0" d="M9.5,450.5v9h-9v-9H9.5 M10,450H0v10h10V450L10,450z"/>
		</g>
		<g>
			<path class="st0" d="M9.5,500.5v9h-9v-9H9.5 M10,500H0v10h10V500L10,500z"/>
		</g>
		<g>
			<rect x="0.25" y="550.25" class="st0" width="9.5" height="9.5"/>
			<path class="st0" d="M9.5,550.5v9h-9v-9H9.5 M10,550H0v10h10V550L10,550z"/>
		</g>
		<g>
			<path class="st0" d="M9.5,600.5v9h-9v-9H9.5 M10,600H0v10h10V600L10,600z"/>
		</g>
		<g>
			<path class="st0" d="M9.5,650.5v9h-9v-9H9.5 M10,650H0v10h10V650L10,650z"/>
		</g>
		<g>
			<path class="st0" d="M9.5,700.5v9h-9v-9H9.5 M10,700H0v10h10V700L10,700z"/>
		</g>
		<g>
			<path class="st0" d="M9.5,750.5v9h-9v-9H9.5 M10,750H0v10h10V750L10,750z"/>
		</g>
		<g>
			<path class="st0" d="M9.5,800.5v9h-9v-9H9.5 M10,800H0v10h10V800L10,800z"/>
		</g>
	</g>
	<g>
		<g>
			<rect x="50.25" y="0.25" class="st0" width="9.5" height="9.5"/>
			<path class="st0" d="M59.5,0.5v9h-9v-9H59.5 M60,0H50v10h10V0L60,0z"/>
		</g>
		<g>
			<path class="st0" d="M59.5,50.5v9h-9v-9H59.5 M60,50H50v10h10V50L60,50z"/>
		</g>
		<g>
			<path class="st0" d="M59.5,100.5v9h-9v-9H59.5 M60,100H50v10h10V100L60,100z"/>
		</g>
		<g>
			<path class="st0" d="M59.5,150.5v9h-9v-9H59.5 M60,150H50v10h10V150L60,150z"/>
		</g>
		<g>
			<path class="st0" d="M59.5,200.5v9h-9v-9H59.5 M60,200H50v10h10V200L60,200z"/>
		</g>
		<g>
			<path class="st0" d="M59.5,250.5v9h-9v-9H59.5 M60,250H50v10h10V250L60,250z"/>
		</g>
		<g>
			<path class="st0" d="M59.5,300.5v9h-9v-9H59.5 M60,300H50v10h10V300L60,300z"/>
		</g>
		<g>
			<path class="st0" d="M59.5,350.5v9h-9v-9H59.5 M60,350H50v10h10V350L60,350z"/>
		</g>
		<g>
			<path class="st0" d="M59.5,400.5v9h-9v-9H59.5 M60,400H50v10h10V400L60,400z"/>
		</g>
		<g>
			<rect x="50.25" y="450.25" class="st0" width="9.5" height="9.5"/>
			<path class="st0" d="M59.5,450.5v9h-9v-9H59.5 M60,450H50v10h10V450L60,450z"/>
		</g>
		<g>
			<path class="st0" d="M59.5,500.5v9h-9v-9H59.5 M60,500H50v10h10V500L60,500z"/>
		</g>
		<g>
			<path class="st0" d="M59.5,550.5v9h-9v-9H59.5 M60,550H50v10h10V550L60,550z"/>
		</g>
		<g>
			<path class="st0" d="M59.5,600.5v9h-9v-9H59.5 M60,600H50v10h10V600L60,600z"/>
		</g>
		<g>
			<path class="st0" d="M59.5,650.5v9h-9v-9H59.5 M60,650H50v10h10V650L60,650z"/>
		</g>
		<g>
			<path class="st0" d="M59.5,700.5v9h-9v-9H59.5 M60,700H50v10h10V700L60,700z"/>
		</g>
		<g>
			<rect x="50.25" y="750.25" class="st0" width="9.5" height="9.5"/>
			<path class="st0" d="M59.5,750.5v9h-9v-9H59.5 M60,750H50v10h10V750L60,750z"/>
		</g>
		<g>
			<path class="st0" d="M59.5,800.5v9h-9v-9H59.5 M60,800H50v10h10V800L60,800z"/>
		</g>
	</g>
	<g>
		<g>
			<path class="st0" d="M109.5,0.5v9h-9v-9H109.5 M110,0h-10v10h10V0L110,0z"/>
		</g>
		<g>
			<path class="st0" d="M109.5,50.5v9h-9v-9H109.5 M110,50h-10v10h10V50L110,50z"/>
		</g>
		<g>
			<path class="st0" d="M109.5,100.5v9h-9v-9H109.5 M110,100h-10v10h10V100L110,100z"/>
		</g>
		<g>
			<path class="st0" d="M109.5,150.5v9h-9v-9H109.5 M110,150h-10v10h10V150L110,150z"/>
		</g>
		<g>
			<rect x="100.25" y="200.25" class="st0" width="9.5" height="9.5"/>
			<path class="st0" d="M109.5,200.5v9h-9v-9H109.5 M110,200h-10v10h10V200L110,200z"/>
		</g>
		<g>
			<path class="st0" d="M109.5,250.5v9h-9v-9H109.5 M110,250h-10v10h10V250L110,250z"/>
		</g>
		<g>
			<path class="st0" d="M109.5,300.5v9h-9v-9H109.5 M110,300h-10v10h10V300L110,300z"/>
		</g>
		<g>
			<path class="st0" d="M109.5,350.5v9h-9v-9H109.5 M110,350h-10v10h10V350L110,350z"/>
		</g>
		<g>
			<path class="st0" d="M109.5,400.5v9h-9v-9H109.5 M110,400h-10v10h10V400L110,400z"/>
		</g>
		<g>
			<path class="st0" d="M109.5,450.5v9h-9v-9H109.5 M110,450h-10v10h10V450L110,450z"/>
		</g>
		<g>
			<path class="st0" d="M109.5,500.5v9h-9v-9H109.5 M110,500h-10v10h10V500L110,500z"/>
		</g>
		<g>
			<path class="st0" d="M109.5,550.5v9h-9v-9H109.5 M110,550h-10v10h10V550L110,550z"/>
		</g>
		<g>
			<path class="st0" d="M109.5,600.5v9h-9v-9H109.5 M110,600h-10v10h10V600L110,600z"/>
		</g>
		<g>
			<path class="st0" d="M109.5,650.5v9h-9v-9H109.5 M110,650h-10v10h10V650L110,650z"/>
		</g>
		<g>
			<path class="st0" d="M109.5,700.5v9h-9v-9H109.5 M110,700h-10v10h10V700L110,700z"/>
		</g>
		<g>
			<path class="st0" d="M109.5,750.5v9h-9v-9H109.5 M110,750h-10v10h10V750L110,750z"/>
		</g>
		<g>
			<path class="st0" d="M109.5,800.5v9h-9v-9H109.5 M110,800h-10v10h10V800L110,800z"/>
		</g>
	</g>
	<g>
		<g>
			<path class="st0" d="M159.5,0.5v9h-9v-9H159.5 M160,0h-10v10h10V0L160,0z"/>
		</g>
		<g>
			<path class="st0" d="M159.5,50.5v9h-9v-9H159.5 M160,50h-10v10h10V50L160,50z"/>
		</g>
		<g>
			<path class="st0" d="M159.5,100.5v9h-9v-9H159.5 M160,100h-10v10h10V100L160,100z"/>
		</g>
		<g>
			<path class="st0" d="M159.5,150.5v9h-9v-9H159.5 M160,150h-10v10h10V150L160,150z"/>
		</g>
		<g>
			<path class="st0" d="M159.5,200.5v9h-9v-9H159.5 M160,200h-10v10h10V200L160,200z"/>
		</g>
		<g>
			<path class="st0" d="M159.5,250.5v9h-9v-9H159.5 M160,250h-10v10h10V250L160,250z"/>
		</g>
		<g>
			<path class="st0" d="M159.5,300.5v9h-9v-9H159.5 M160,300h-10v10h10V300L160,300z"/>
		</g>
		<g>
			<path class="st0" d="M159.5,350.5v9h-9v-9H159.5 M160,350h-10v10h10V350L160,350z"/>
		</g>
		<g>
			<path class="st0" d="M159.5,400.5v9h-9v-9H159.5 M160,400h-10v10h10V400L160,400z"/>
		</g>
		<g>
			<path class="st0" d="M159.5,450.5v9h-9v-9H159.5 M160,450h-10v10h10V450L160,450z"/>
		</g>
		<g>
			<path class="st0" d="M159.5,500.5v9h-9v-9H159.5 M160,500h-10v10h10V500L160,500z"/>
		</g>
		<g>
			<path class="st0" d="M159.5,550.5v9h-9v-9H159.5 M160,550h-10v10h10V550L160,550z"/>
		</g>
		<g>
			<path class="st0" d="M159.5,600.5v9h-9v-9H159.5 M160,600h-10v10h10V600L160,600z"/>
		</g>
		<g>
			<path class="st0" d="M159.5,650.5v9h-9v-9H159.5 M160,650h-10v10h10V650L160,650z"/>
		</g>
		<g>
			<rect x="150.25" y="700.25" class="st0" width="9.5" height="9.5"/>
			<path class="st0" d="M159.5,700.5v9h-9v-9H159.5 M160,700h-10v10h10V700L160,700z"/>
		</g>
		<g>
			<path class="st0" d="M159.5,750.5v9h-9v-9H159.5 M160,750h-10v10h10V750L160,750z"/>
		</g>
		<g>
			<path class="st0" d="M159.5,800.5v9h-9v-9H159.5 M160,800h-10v10h10V800L160,800z"/>
		</g>
	</g>
	<g>
		<g>
			<path class="st0" d="M209.5,0.5v9h-9v-9H209.5 M210,0h-10v10h10V0L210,0z"/>
		</g>
		<g>
			<path class="st0" d="M209.5,50.5v9h-9v-9H209.5 M210,50h-10v10h10V50L210,50z"/>
		</g>
		<g>
			<rect x="200.25" y="100.25" class="st0" width="9.5" height="9.5"/>
			<path class="st0" d="M209.5,100.5v9h-9v-9H209.5 M210,100h-10v10h10V100L210,100z"/>
		</g>
		<g>
			<path class="st0" d="M209.5,150.5v9h-9v-9H209.5 M210,150h-10v10h10V150L210,150z"/>
		</g>
		<g>
			<path class="st0" d="M209.5,200.5v9h-9v-9H209.5 M210,200h-10v10h10V200L210,200z"/>
		</g>
		<g>
			<path class="st0" d="M209.5,250.5v9h-9v-9H209.5 M210,250h-10v10h10V250L210,250z"/>
		</g>
		<g>
			<path class="st0" d="M209.5,300.5v9h-9v-9H209.5 M210,300h-10v10h10V300L210,300z"/>
		</g>
		<g>
			<path class="st0" d="M209.5,350.5v9h-9v-9H209.5 M210,350h-10v10h10V350L210,350z"/>
		</g>
		<g>
			<path class="st0" d="M209.5,400.5v9h-9v-9H209.5 M210,400h-10v10h10V400L210,400z"/>
		</g>
		<g>
			<path class="st0" d="M209.5,450.5v9h-9v-9H209.5 M210,450h-10v10h10V450L210,450z"/>
		</g>
		<g>
			<path class="st0" d="M209.5,500.5v9h-9v-9H209.5 M210,500h-10v10h10V500L210,500z"/>
		</g>
		<g>
			<path class="st0" d="M209.5,550.5v9h-9v-9H209.5 M210,550h-10v10h10V550L210,550z"/>
		</g>
		<g>
			<path class="st0" d="M209.5,600.5v9h-9v-9H209.5 M210,600h-10v10h10V600L210,600z"/>
		</g>
		<g>
			<path class="st0" d="M209.5,650.5v9h-9v-9H209.5 M210,650h-10v10h10V650L210,650z"/>
		</g>
		<g>
			<path class="st0" d="M209.5,700.5v9h-9v-9H209.5 M210,700h-10v10h10V700L210,700z"/>
		</g>
		<g>
			<path class="st0" d="M209.5,750.5v9h-9v-9H209.5 M210,750h-10v10h10V750L210,750z"/>
		</g>
		<g>
			<path class="st0" d="M209.5,800.5v9h-9v-9H209.5 M210,800h-10v10h10V800L210,800z"/>
		</g>
	</g>
	<g>
		<g>
			<path class="st0" d="M259.5,0.5v9h-9v-9H259.5 M260,0h-10v10h10V0L260,0z"/>
		</g>
		<g>
			<path class="st0" d="M259.5,50.5v9h-9v-9H259.5 M260,50h-10v10h10V50L260,50z"/>
		</g>
		<g>
			<path class="st0" d="M259.5,100.5v9h-9v-9H259.5 M260,100h-10v10h10V100L260,100z"/>
		</g>
		<g>
			<path class="st0" d="M259.5,150.5v9h-9v-9H259.5 M260,150h-10v10h10V150L260,150z"/>
		</g>
		<g>
			<path class="st0" d="M259.5,200.5v9h-9v-9H259.5 M260,200h-10v10h10V200L260,200z"/>
		</g>
		<g>
			<path class="st0" d="M259.5,250.5v9h-9v-9H259.5 M260,250h-10v10h10V250L260,250z"/>
		</g>
		<g>
			<path class="st0" d="M259.5,300.5v9h-9v-9H259.5 M260,300h-10v10h10V300L260,300z"/>
		</g>
		<g>
			<rect x="250.25" y="350.25" class="st0" width="9.5" height="9.5"/>
			<path class="st0" d="M259.5,350.5v9h-9v-9H259.5 M260,350h-10v10h10V350L260,350z"/>
		</g>
		<g>
			<path class="st0" d="M259.5,400.5v9h-9v-9H259.5 M260,400h-10v10h10V400L260,400z"/>
		</g>
		<g>
			<path class="st0" d="M259.5,450.5v9h-9v-9H259.5 M260,450h-10v10h10V450L260,450z"/>
		</g>
		<g>
			<path class="st0" d="M259.5,500.5v9h-9v-9H259.5 M260,500h-10v10h10V500L260,500z"/>
		</g>
		<g>
			<path class="st0" d="M259.5,550.5v9h-9v-9H259.5 M260,550h-10v10h10V550L260,550z"/>
		</g>
		<g>
			<path class="st0" d="M259.5,600.5v9h-9v-9H259.5 M260,600h-10v10h10V600L260,600z"/>
		</g>
		<g>
			<path class="st0" d="M259.5,650.5v9h-9v-9H259.5 M260,650h-10v10h10V650L260,650z"/>
		</g>
		<g>
			<path class="st0" d="M259.5,700.5v9h-9v-9H259.5 M260,700h-10v10h10V700L260,700z"/>
		</g>
		<g>
			<path class="st0" d="M259.5,750.5v9h-9v-9H259.5 M260,750h-10v10h10V750L260,750z"/>
		</g>
		<g>
			<path class="st0" d="M259.5,800.5v9h-9v-9H259.5 M260,800h-10v10h10V800L260,800z"/>
		</g>
	</g>
	<g>
		<g>
			<path class="st0" d="M309.5,0.5v9h-9v-9H309.5 M310,0h-10v10h10V0L310,0z"/>
		</g>
		<g>
			<path class="st0" d="M309.5,50.5v9h-9v-9H309.5 M310,50h-10v10h10V50L310,50z"/>
		</g>
		<g>
			<path class="st0" d="M309.5,100.5v9h-9v-9H309.5 M310,100h-10v10h10V100L310,100z"/>
		</g>
		<g>
			<path class="st0" d="M309.5,150.5v9h-9v-9H309.5 M310,150h-10v10h10V150L310,150z"/>
		</g>
		<g>
			<path class="st0" d="M309.5,200.5v9h-9v-9H309.5 M310,200h-10v10h10V200L310,200z"/>
		</g>
		<g>
			<path class="st0" d="M309.5,250.5v9h-9v-9H309.5 M310,250h-10v10h10V250L310,250z"/>
		</g>
		<g>
			<path class="st0" d="M309.5,300.5v9h-9v-9H309.5 M310,300h-10v10h10V300L310,300z"/>
		</g>
		<g>
			<path class="st0" d="M309.5,350.5v9h-9v-9H309.5 M310,350h-10v10h10V350L310,350z"/>
		</g>
		<g>
			<path class="st0" d="M309.5,400.5v9h-9v-9H309.5 M310,400h-10v10h10V400L310,400z"/>
		</g>
		<g>
			<path class="st0" d="M309.5,450.5v9h-9v-9H309.5 M310,450h-10v10h10V450L310,450z"/>
		</g>
		<g>
			<path class="st0" d="M309.5,500.5v9h-9v-9H309.5 M310,500h-10v10h10V500L310,500z"/>
		</g>
		<g>
			<path class="st0" d="M309.5,550.5v9h-9v-9H309.5 M310,550h-10v10h10V550L310,550z"/>
		</g>
		<g>
			<rect x="300.25" y="600.25" class="st0" width="9.5" height="9.5"/>
			<path class="st0" d="M309.5,600.5v9h-9v-9H309.5 M310,600h-10v10h10V600L310,600z"/>
		</g>
		<g>
			<path class="st0" d="M309.5,650.5v9h-9v-9H309.5 M310,650h-10v10h10V650L310,650z"/>
		</g>
		<g>
			<path class="st0" d="M309.5,700.5v9h-9v-9H309.5 M310,700h-10v10h10V700L310,700z"/>
		</g>
		<g>
			<path class="st0" d="M309.5,750.5v9h-9v-9H309.5 M310,750h-10v10h10V750L310,750z"/>
		</g>
		<g>
			<path class="st0" d="M309.5,800.5v9h-9v-9H309.5 M310,800h-10v10h10V800L310,800z"/>
		</g>
	</g>
	<g>
		<g>
			<path class="st0" d="M359.5,0.5v9h-9v-9H359.5 M360,0h-10v10h10V0L360,0z"/>
		</g>
		<g>
			<path class="st0" d="M359.5,50.5v9h-9v-9H359.5 M360,50h-10v10h10V50L360,50z"/>
		</g>
		<g>
			<path class="st0" d="M359.5,100.5v9h-9v-9H359.5 M360,100h-10v10h10V100L360,100z"/>
		</g>
		<g>
			<path class="st0" d="M359.5,150.5v9h-9v-9H359.5 M360,150h-10v10h10V150L360,150z"/>
		</g>
		<g>
			<path class="st0" d="M359.5,200.5v9h-9v-9H359.5 M360,200h-10v10h10V200L360,200z"/>
		</g>
		<g>
			<path class="st0" d="M359.5,250.5v9h-9v-9H359.5 M360,250h-10v10h10V250L360,250z"/>
		</g>
		<g>
			<path class="st0" d="M359.5,300.5v9h-9v-9H359.5 M360,300h-10v10h10V300L360,300z"/>
		</g>
		<g>
			<path class="st0" d="M359.5,350.5v9h-9v-9H359.5 M360,350h-10v10h10V350L360,350z"/>
		</g>
		<g>
			<rect x="350.25" y="400.25" class="st0" width="9.5" height="9.5"/>
			<path class="st0" d="M359.5,400.5v9h-9v-9H359.5 M360,400h-10v10h10V400L360,400z"/>
		</g>
		<g>
			<path class="st0" d="M359.5,450.5v9h-9v-9H359.5 M360,450h-10v10h10V450L360,450z"/>
		</g>
		<g>
			<path class="st0" d="M359.5,500.5v9h-9v-9H359.5 M360,500h-10v10h10V500L360,500z"/>
		</g>
		<g>
			<path class="st0" d="M359.5,550.5v9h-9v-9H359.5 M360,550h-10v10h10V550L360,550z"/>
		</g>
		<g>
			<path class="st0" d="M359.5,600.5v9h-9v-9H359.5 M360,600h-10v10h10V600L360,600z"/>
		</g>
		<g>
			<path class="st0" d="M359.5,650.5v9h-9v-9H359.5 M360,650h-10v10h10V650L360,650z"/>
		</g>
		<g>
			<path class="st0" d="M359.5,700.5v9h-9v-9H359.5 M360,700h-10v10h10V700L360,700z"/>
		</g>
		<g>
			<path class="st0" d="M359.5,750.5v9h-9v-9H359.5 M360,750h-10v10h10V750L360,750z"/>
		</g>
		<g>
			<path class="st0" d="M359.5,800.5v9h-9v-9H359.5 M360,800h-10v10h10V800L360,800z"/>
		</g>
	</g>
	<g>
		<g>
			<path class="st0" d="M409.5,0.5v9h-9v-9H409.5 M410,0h-10v10h10V0L410,0z"/>
		</g>
		<g>
			<path class="st0" d="M409.5,50.5v9h-9v-9H409.5 M410,50h-10v10h10V50L410,50z"/>
		</g>
		<g>
			<path class="st0" d="M409.5,100.5v9h-9v-9H409.5 M410,100h-10v10h10V100L410,100z"/>
		</g>
		<g>
			<path class="st0" d="M409.5,150.5v9h-9v-9H409.5 M410,150h-10v10h10V150L410,150z"/>
		</g>
		<g>
			<path class="st0" d="M409.5,200.5v9h-9v-9H409.5 M410,200h-10v10h10V200L410,200z"/>
		</g>
		<g>
			<path class="st0" d="M409.5,250.5v9h-9v-9H409.5 M410,250h-10v10h10V250L410,250z"/>
		</g>
		<g>
			<rect x="400.25" y="300.25" class="st0" width="9.5" height="9.5"/>
			<path class="st0" d="M409.5,300.5v9h-9v-9H409.5 M410,300h-10v10h10V300L410,300z"/>
		</g>
		<g>
			<path class="st0" d="M409.5,350.5v9h-9v-9H409.5 M410,350h-10v10h10V350L410,350z"/>
		</g>
		<g>
			<path class="st0" d="M409.5,400.5v9h-9v-9H409.5 M410,400h-10v10h10V400L410,400z"/>
		</g>
		<g>
			<path class="st0" d="M409.5,450.5v9h-9v-9H409.5 M410,450h-10v10h10V450L410,450z"/>
		</g>
		<g>
			<path class="st0" d="M409.5,500.5v9h-9v-9H409.5 M410,500h-10v10h10V500L410,500z"/>
		</g>
		<g>
			<path class="st0" d="M409.5,550.5v9h-9v-9H409.5 M410,550h-10v10h10V550L410,550z"/>
		</g>
		<g>
			<path class="st0" d="M409.5,600.5v9h-9v-9H409.5 M410,600h-10v10h10V600L410,600z"/>
		</g>
		<g>
			<path class="st0" d="M409.5,650.5v9h-9v-9H409.5 M410,650h-10v10h10V650L410,650z"/>
		</g>
		<g>
			<path class="st0" d="M409.5,700.5v9h-9v-9H409.5 M410,700h-10v10h10V700L410,700z"/>
		</g>
		<g>
			<path class="st0" d="M409.5,750.5v9h-9v-9H409.5 M410,750h-10v10h10V750L410,750z"/>
		</g>
		<g>
			<path class="st0" d="M409.5,800.5v9h-9v-9H409.5 M410,800h-10v10h10V800L410,800z"/>
		</g>
	</g>
	<g>
		<g>
			<path class="st0" d="M459.5,0.5v9h-9v-9H459.5 M460,0h-10v10h10V0L460,0z"/>
		</g>
		<g>
			<path class="st0" d="M459.5,50.5v9h-9v-9H459.5 M460,50h-10v10h10V50L460,50z"/>
		</g>
		<g>
			<path class="st0" d="M459.5,100.5v9h-9v-9H459.5 M460,100h-10v10h10V100L460,100z"/>
		</g>
		<g>
			<path class="st0" d="M459.5,150.5v9h-9v-9H459.5 M460,150h-10v10h10V150L460,150z"/>
		</g>
		<g>
			<path class="st0" d="M459.5,200.5v9h-9v-9H459.5 M460,200h-10v10h10V200L460,200z"/>
		</g>
		<g>
			<path class="st0" d="M459.5,250.5v9h-9v-9H459.5 M460,250h-10v10h10V250L460,250z"/>
		</g>
		<g>
			<path class="st0" d="M459.5,300.5v9h-9v-9H459.5 M460,300h-10v10h10V300L460,300z"/>
		</g>
		<g>
			<path class="st0" d="M459.5,350.5v9h-9v-9H459.5 M460,350h-10v10h10V350L460,350z"/>
		</g>
		<g>
			<path class="st0" d="M459.5,400.5v9h-9v-9H459.5 M460,400h-10v10h10V400L460,400z"/>
		</g>
		<g>
			<path class="st0" d="M459.5,450.5v9h-9v-9H459.5 M460,450h-10v10h10V450L460,450z"/>
		</g>
		<g>
			<path class="st0" d="M459.5,500.5v9h-9v-9H459.5 M460,500h-10v10h10V500L460,500z"/>
		</g>
		<g>
			<path class="st0" d="M459.5,550.5v9h-9v-9H459.5 M460,550h-10v10h10V550L460,550z"/>
		</g>
		<g>
			<path class="st0" d="M459.5,600.5v9h-9v-9H459.5 M460,600h-10v10h10V600L460,600z"/>
		</g>
		<g>
			<path class="st0" d="M459.5,650.5v9h-9v-9H459.5 M460,650h-10v10h10V650L460,650z"/>
		</g>
		<g>
			<path class="st0" d="M459.5,700.5v9h-9v-9H459.5 M460,700h-10v10h10V700L460,700z"/>
		</g>
		<g>
			<path class="st0" d="M459.5,750.5v9h-9v-9H459.5 M460,750h-10v10h10V750L460,750z"/>
		</g>
		<g>
			<rect x="450.25" y="800.25" class="st0" width="9.5" height="9.5"/>
			<path class="st0" d="M459.5,800.5v9h-9v-9H459.5 M460,800h-10v10h10V800L460,800z"/>
		</g>
	</g>
	<g>
		<g>
			<path class="st0" d="M509.5,0.5v9h-9v-9H509.5 M510,0h-10v10h10V0L510,0z"/>
		</g>
		<g>
			<path class="st0" d="M509.5,50.5v9h-9v-9H509.5 M510,50h-10v10h10V50L510,50z"/>
		</g>
		<g>
			<path class="st0" d="M509.5,100.5v9h-9v-9H509.5 M510,100h-10v10h10V100L510,100z"/>
		</g>
		<g>
			<rect x="500.25" y="150.25" class="st0" width="9.5" height="9.5"/>
			<path class="st0" d="M509.5,150.5v9h-9v-9H509.5 M510,150h-10v10h10V150L510,150z"/>
		</g>
		<g>
			<path class="st0" d="M509.5,200.5v9h-9v-9H509.5 M510,200h-10v10h10V200L510,200z"/>
		</g>
		<g>
			<path class="st0" d="M509.5,250.5v9h-9v-9H509.5 M510,250h-10v10h10V250L510,250z"/>
		</g>
		<g>
			<path class="st0" d="M509.5,300.5v9h-9v-9H509.5 M510,300h-10v10h10V300L510,300z"/>
		</g>
		<g>
			<path class="st0" d="M509.5,350.5v9h-9v-9H509.5 M510,350h-10v10h10V350L510,350z"/>
		</g>
		<g>
			<path class="st0" d="M509.5,400.5v9h-9v-9H509.5 M510,400h-10v10h10V400L510,400z"/>
		</g>
		<g>
			<path class="st0" d="M509.5,450.5v9h-9v-9H509.5 M510,450h-10v10h10V450L510,450z"/>
		</g>
		<g>
			<path class="st0" d="M509.5,500.5v9h-9v-9H509.5 M510,500h-10v10h10V500L510,500z"/>
		</g>
		<g>
			<rect x="500.25" y="550.25" class="st0" width="9.5" height="9.5"/>
			<path class="st0" d="M509.5,550.5v9h-9v-9H509.5 M510,550h-10v10h10V550L510,550z"/>
		</g>
		<g>
			<path class="st0" d="M509.5,600.5v9h-9v-9H509.5 M510,600h-10v10h10V600L510,600z"/>
		</g>
		<g>
			<path class="st0" d="M509.5,650.5v9h-9v-9H509.5 M510,650h-10v10h10V650L510,650z"/>
		</g>
		<g>
			<path class="st0" d="M509.5,700.5v9h-9v-9H509.5 M510,700h-10v10h10V700L510,700z"/>
		</g>
		<g>
			<path class="st0" d="M509.5,750.5v9h-9v-9H509.5 M510,750h-10v10h10V750L510,750z"/>
		</g>
		<g>
			<path class="st0" d="M509.5,800.5v9h-9v-9H509.5 M510,800h-10v10h10V800L510,800z"/>
		</g>
	</g>
	<g>
		<g>
			<path class="st0" d="M559.5,0.5v9h-9v-9H559.5 M560,0h-10v10h10V0L560,0z"/>
		</g>
		<g>
			<rect x="550.25" y="50.25" class="st0" width="9.5" height="9.5"/>
			<path class="st0" d="M559.5,50.5v9h-9v-9H559.5 M560,50h-10v10h10V50L560,50z"/>
		</g>
		<g>
			<path class="st0" d="M559.5,100.5v9h-9v-9H559.5 M560,100h-10v10h10V100L560,100z"/>
		</g>
		<g>
			<path class="st0" d="M559.5,150.5v9h-9v-9H559.5 M560,150h-10v10h10V150L560,150z"/>
		</g>
		<g>
			<path class="st0" d="M559.5,200.5v9h-9v-9H559.5 M560,200h-10v10h10V200L560,200z"/>
		</g>
		<g>
			<path class="st0" d="M559.5,250.5v9h-9v-9H559.5 M560,250h-10v10h10V250L560,250z"/>
		</g>
		<g>
			<path class="st0" d="M559.5,300.5v9h-9v-9H559.5 M560,300h-10v10h10V300L560,300z"/>
		</g>
		<g>
			<path class="st0" d="M559.5,350.5v9h-9v-9H559.5 M560,350h-10v10h10V350L560,350z"/>
		</g>
		<g>
			<path class="st0" d="M559.5,400.5v9h-9v-9H559.5 M560,400h-10v10h10V400L560,400z"/>
		</g>
		<g>
			<path class="st0" d="M559.5,450.5v9h-9v-9H559.5 M560,450h-10v10h10V450L560,450z"/>
		</g>
		<g>
			<path class="st0" d="M559.5,500.5v9h-9v-9H559.5 M560,500h-10v10h10V500L560,500z"/>
		</g>
		<g>
			<path class="st0" d="M559.5,550.5v9h-9v-9H559.5 M560,550h-10v10h10V550L560,550z"/>
		</g>
		<g>
			<path class="st0" d="M559.5,600.5v9h-9v-9H559.5 M560,600h-10v10h10V600L560,600z"/>
		</g>
		<g>
			<rect x="550.25" y="650.25" class="st0" width="9.5" height="9.5"/>
			<path class="st0" d="M559.5,650.5v9h-9v-9H559.5 M560,650h-10v10h10V650L560,650z"/>
		</g>
		<g>
			<path class="st0" d="M559.5,700.5v9h-9v-9H559.5 M560,700h-10v10h10V700L560,700z"/>
		</g>
		<g>
			<path class="st0" d="M559.5,750.5v9h-9v-9H559.5 M560,750h-10v10h10V750L560,750z"/>
		</g>
		<g>
			<path class="st0" d="M559.5,800.5v9h-9v-9H559.5 M560,800h-10v10h10V800L560,800z"/>
		</g>
	</g>
	<g>
		<g>
			<path class="st0" d="M609.5,0.5v9h-9v-9H609.5 M610,0h-10v10h10V0L610,0z"/>
		</g>
		<g>
			<path class="st0" d="M609.5,50.5v9h-9v-9H609.5 M610,50h-10v10h10V50L610,50z"/>
		</g>
		<g>
			<path class="st0" d="M609.5,100.5v9h-9v-9H609.5 M610,100h-10v10h10V100L610,100z"/>
		</g>
		<g>
			<path class="st0" d="M609.5,150.5v9h-9v-9H609.5 M610,150h-10v10h10V150L610,150z"/>
		</g>
		<g>
			<path class="st0" d="M609.5,200.5v9h-9v-9H609.5 M610,200h-10v10h10V200L610,200z"/>
		</g>
		<g>
			<path class="st0" d="M609.5,250.5v9h-9v-9H609.5 M610,250h-10v10h10V250L610,250z"/>
		</g>
		<g>
			<path class="st0" d="M609.5,300.5v9h-9v-9H609.5 M610,300h-10v10h10V300L610,300z"/>
		</g>
		<g>
			<path class="st0" d="M609.5,350.5v9h-9v-9H609.5 M610,350h-10v10h10V350L610,350z"/>
		</g>
		<g>
			<path class="st0" d="M609.5,400.5v9h-9v-9H609.5 M610,400h-10v10h10V400L610,400z"/>
		</g>
		<g>
			<path class="st0" d="M609.5,450.5v9h-9v-9H609.5 M610,450h-10v10h10V450L610,450z"/>
		</g>
		<g>
			<path class="st0" d="M609.5,500.5v9h-9v-9H609.5 M610,500h-10v10h10V500L610,500z"/>
		</g>
		<g>
			<path class="st0" d="M609.5,550.5v9h-9v-9H609.5 M610,550h-10v10h10V550L610,550z"/>
		</g>
		<g>
			<path class="st0" d="M609.5,600.5v9h-9v-9H609.5 M610,600h-10v10h10V600L610,600z"/>
		</g>
		<g>
			<path class="st0" d="M609.5,650.5v9h-9v-9H609.5 M610,650h-10v10h10V650L610,650z"/>
		</g>
		<g>
			<path class="st0" d="M609.5,700.5v9h-9v-9H609.5 M610,700h-10v10h10V700L610,700z"/>
		</g>
		<g>
			<path class="st0" d="M609.5,750.5v9h-9v-9H609.5 M610,750h-10v10h10V750L610,750z"/>
		</g>
		<g>
			<path class="st0" d="M609.5,800.5v9h-9v-9H609.5 M610,800h-10v10h10V800L610,800z"/>
		</g>
	</g>
	<g>
		<g>
			<path class="st0" d="M659.5,0.5v9h-9v-9H659.5 M660,0h-10v10h10V0L660,0z"/>
		</g>
		<g>
			<path class="st0" d="M659.5,50.5v9h-9v-9H659.5 M660,50h-10v10h10V50L660,50z"/>
		</g>
		<g>
			<path class="st0" d="M659.5,100.5v9h-9v-9H659.5 M660,100h-10v10h10V100L660,100z"/>
		</g>
		<g>
			<path class="st0" d="M659.5,150.5v9h-9v-9H659.5 M660,150h-10v10h10V150L660,150z"/>
		</g>
		<g>
			<path class="st0" d="M659.5,200.5v9h-9v-9H659.5 M660,200h-10v10h10V200L660,200z"/>
		</g>
		<g>
			<path class="st0" d="M659.5,250.5v9h-9v-9H659.5 M660,250h-10v10h10V250L660,250z"/>
		</g>
		<g>
			<path class="st0" d="M659.5,300.5v9h-9v-9H659.5 M660,300h-10v10h10V300L660,300z"/>
		</g>
		<g>
			<path class="st0" d="M659.5,350.5v9h-9v-9H659.5 M660,350h-10v10h10V350L660,350z"/>
		</g>
		<g>
			<path class="st0" d="M659.5,400.5v9h-9v-9H659.5 M660,400h-10v10h10V400L660,400z"/>
		</g>
		<g>
			<path class="st0" d="M659.5,450.5v9h-9v-9H659.5 M660,450h-10v10h10V450L660,450z"/>
		</g>
		<g>
			<path class="st0" d="M659.5,500.5v9h-9v-9H659.5 M660,500h-10v10h10V500L660,500z"/>
		</g>
		<g>
			<path class="st0" d="M659.5,550.5v9h-9v-9H659.5 M660,550h-10v10h10V550L660,550z"/>
		</g>
		<g>
			<path class="st0" d="M659.5,600.5v9h-9v-9H659.5 M660,600h-10v10h10V600L660,600z"/>
		</g>
		<g>
			<path class="st0" d="M659.5,650.5v9h-9v-9H659.5 M660,650h-10v10h10V650L660,650z"/>
		</g>
		<g>
			<path class="st0" d="M659.5,700.5v9h-9v-9H659.5 M660,700h-10v10h10V700L660,700z"/>
		</g>
		<g>
			<path class="st0" d="M659.5,750.5v9h-9v-9H659.5 M660,750h-10v10h10V750L660,750z"/>
		</g>
		<g>
			<path class="st0" d="M659.5,800.5v9h-9v-9H659.5 M660,800h-10v10h10V800L660,800z"/>
		</g>
	</g>
	<g>
		<g>
			<path class="st0" d="M709.5,0.5v9h-9v-9H709.5 M710,0h-10v10h10V0L710,0z"/>
		</g>
		<g>
			<path class="st0" d="M709.5,50.5v9h-9v-9H709.5 M710,50h-10v10h10V50L710,50z"/>
		</g>
		<g>
			<path class="st0" d="M709.5,100.5v9h-9v-9H709.5 M710,100h-10v10h10V100L710,100z"/>
		</g>
		<g>
			<path class="st0" d="M709.5,150.5v9h-9v-9H709.5 M710,150h-10v10h10V150L710,150z"/>
		</g>
		<g>
			<path class="st0" d="M709.5,200.5v9h-9v-9H709.5 M710,200h-10v10h10V200L710,200z"/>
		</g>
		<g>
			<path class="st0" d="M709.5,250.5v9h-9v-9H709.5 M710,250h-10v10h10V250L710,250z"/>
		</g>
		<g>
			<path class="st0" d="M709.5,300.5v9h-9v-9H709.5 M710,300h-10v10h10V300L710,300z"/>
		</g>
		<g>
			<path class="st0" d="M709.5,350.5v9h-9v-9H709.5 M710,350h-10v10h10V350L710,350z"/>
		</g>
		<g>
			<path class="st0" d="M709.5,400.5v9h-9v-9H709.5 M710,400h-10v10h10V400L710,400z"/>
		</g>
		<g>
			<path class="st0" d="M709.5,450.5v9h-9v-9H709.5 M710,450h-10v10h10V450L710,450z"/>
		</g>
		<g>
			<rect x="700.25" y="500.25" class="st0" width="9.5" height="9.5"/>
			<path class="st0" d="M709.5,500.5v9h-9v-9H709.5 M710,500h-10v10h10V500L710,500z"/>
		</g>
		<g>
			<path class="st0" d="M709.5,550.5v9h-9v-9H709.5 M710,550h-10v10h10V550L710,550z"/>
		</g>
		<g>
			<path class="st0" d="M709.5,600.5v9h-9v-9H709.5 M710,600h-10v10h10V600L710,600z"/>
		</g>
		<g>
			<path class="st0" d="M709.5,650.5v9h-9v-9H709.5 M710,650h-10v10h10V650L710,650z"/>
		</g>
		<g>
			<path class="st0" d="M709.5,700.5v9h-9v-9H709.5 M710,700h-10v10h10V700L710,700z"/>
		</g>
		<g>
			<rect x="700.25" y="750.25" class="st0" width="9.5" height="9.5"/>
			<path class="st0" d="M709.5,750.5v9h-9v-9H709.5 M710,750h-10v10h10V750L710,750z"/>
		</g>
		<g>
			<path class="st0" d="M709.5,800.5v9h-9v-9H709.5 M710,800h-10v10h10V800L710,800z"/>
		</g>
	</g>
	<g>
		<g>
			<path class="st0" d="M759.5,0.5v9h-9v-9H759.5 M760,0h-10v10h10V0L760,0z"/>
		</g>
		<g>
			<path class="st0" d="M759.5,50.5v9h-9v-9H759.5 M760,50h-10v10h10V50L760,50z"/>
		</g>
		<g>
			<rect x="750.25" y="100.25" class="st0" width="9.5" height="9.5"/>
			<path class="st0" d="M759.5,100.5v9h-9v-9H759.5 M760,100h-10v10h10V100L760,100z"/>
		</g>
		<g>
			<path class="st0" d="M759.5,150.5v9h-9v-9H759.5 M760,150h-10v10h10V150L760,150z"/>
		</g>
		<g>
			<path class="st0" d="M759.5,200.5v9h-9v-9H759.5 M760,200h-10v10h10V200L760,200z"/>
		</g>
		<g>
			<rect x="750.25" y="250.25" class="st0" width="9.5" height="9.5"/>
			<path class="st0" d="M759.5,250.5v9h-9v-9H759.5 M760,250h-10v10h10V250L760,250z"/>
		</g>
		<g>
			<path class="st0" d="M759.5,300.5v9h-9v-9H759.5 M760,300h-10v10h10V300L760,300z"/>
		</g>
		<g>
			<rect x="750.25" y="350.25" class="st0" width="9.5" height="9.5"/>
			<path class="st0" d="M759.5,350.5v9h-9v-9H759.5 M760,350h-10v10h10V350L760,350z"/>
		</g>
		<g>
			<path class="st0" d="M759.5,400.5v9h-9v-9H759.5 M760,400h-10v10h10V400L760,400z"/>
		</g>
		<g>
			<path class="st0" d="M759.5,450.5v9h-9v-9H759.5 M760,450h-10v10h10V450L760,450z"/>
		</g>
		<g>
			<path class="st0" d="M759.5,500.5v9h-9v-9H759.5 M760,500h-10v10h10V500L760,500z"/>
		</g>
		<g>
			<path class="st0" d="M759.5,550.5v9h-9v-9H759.5 M760,550h-10v10h10V550L760,550z"/>
		</g>
		<g>
			<path class="st0" d="M759.5,600.5v9h-9v-9H759.5 M760,600h-10v10h10V600L760,600z"/>
		</g>
		<g>
			<path class="st0" d="M759.5,650.5v9h-9v-9H759.5 M760,650h-10v10h10V650L760,650z"/>
		</g>
		<g>
			<path class="st0" d="M759.5,700.5v9h-9v-9H759.5 M760,700h-10v10h10V700L760,700z"/>
		</g>
		<g>
			<path class="st0" d="M759.5,750.5v9h-9v-9H759.5 M760,750h-10v10h10V750L760,750z"/>
		</g>
		<g>
			<path class="st0" d="M759.5,800.5v9h-9v-9H759.5 M760,800h-10v10h10V800L760,800z"/>
		</g>
	</g>
</g>
</svg>
